<svg version="1.1" viewBox="0.0 0.0 400.98687664041995 359.7034120734908" fill="none" stroke="none" stroke-linecap="square" stroke-miterlimit="10" xmlns:xlink="http://www.w3.org/1999/xlink" xmlns="http://www.w3.org/2000/svg"><clipPath id="p.0"><path d="m0 0l400.98688 0l0 359.7034l-400.98688 0l0 -359.7034z" clip-rule="nonzero"/></clipPath><g clip-path="url(#p.0)"><path fill="#000000" fill-opacity="0.0" d="m0 0l400.98688 0l0 359.7034l-400.98688 0z" fill-rule="evenodd"/><path fill="#000000" fill-opacity="0.0" d="m187.37007 157.12193l84.50395 0l0 35.55905l-84.50395 0z" fill-rule="evenodd"/><path stroke="#000000" stroke-width="3.0" stroke-linejoin="round" stroke-linecap="butt" d="m187.37007 157.12193l84.50395 0l0 35.55905l-84.50395 0z" fill-rule="evenodd"/><path fill="#000000" d="m207.67436 178.57819q-0.171875 0.21875 -0.28125 0.28125q-0.109375 0.046875 -0.265625 0.046875q-0.296875 0 -0.484375 -0.203125q-0.1875 -0.203125 -0.1875 -0.671875l0 -0.90625q0 -0.484375 0.1875 -0.6875q0.1875 -0.203125 0.484375 -0.203125q0.234375 0 0.390625 0.125q0.171875 0.125 0.25 0.421875q0.078125 0.28125 0.171875 0.390625q0.1875 0.1875 0.671875 0.40625q0.484375 0.203125 1.0625 0.203125q0.890625 0 1.453125 -0.421875q0.375 -0.25 0.375 -0.625q0 -0.234375 -0.1875 -0.453125q-0.171875 -0.21875 -0.5625 -0.359375q-0.265625 -0.109375 -1.171875 -0.28125q-1.09375 -0.1875 -1.65625 -0.46875q-0.546875 -0.296875 -0.875 -0.8125q-0.328125 -0.53125 -0.328125 -1.125q0 -0.96875 0.796875 -1.6875q0.796875 -0.71875 2.078125 -0.71875q0.515625 0 0.953125 0.125q0.453125 0.109375 0.8125 0.34375q0.25 -0.25 0.515625 -0.25q0.296875 0 0.46875 0.203125q0.1875 0.203125 0.1875 0.671875l0 1.0q0 0.484375 -0.1875 0.6875q-0.171875 0.203125 -0.46875 0.203125q-0.25 0 -0.4375 -0.140625q-0.140625 -0.109375 -0.21875 -0.4375q-0.0625 -0.34375 -0.171875 -0.484375q-0.1875 -0.25 -0.5625 -0.40625q-0.375 -0.171875 -0.875 -0.171875q-0.71875 0 -1.140625 0.34375q-0.421875 0.328125 -0.421875 0.6875q0 0.25 0.171875 0.484375q0.171875 0.21875 0.5 0.359375q0.21875 0.078125 1.25 0.28125q1.03125 0.203125 1.578125 0.453125q0.546875 0.234375 0.90625 0.75q0.375 0.515625 0.375 1.21875q0 1.0 -0.703125 1.59375q-0.921875 0.765625 -2.359375 0.765625q-0.546875 0 -1.078125 -0.140625q-0.515625 -0.125 -1.015625 -0.390625zm9.623184 -4.234375l0 2.671875q0 0.4375 0.171875 0.578125q0.28125 0.203125 0.984375 0.203125q1.015625 0 1.875 -0.4375q0.34375 -0.15625 0.53125 -0.15625q0.25 0 0.4375 0.203125q0.203125 0.1875 0.203125 0.46875q0 0.25 -0.203125 0.4375q-0.328125 0.3125 -1.265625 0.578125q-0.9375 0.25 -1.578125 0.25q-1.25 0 -1.875 -0.53125q-0.609375 -0.546875 -0.609375 -1.328125l0 -2.9375l-0.484375 0q-0.484375 0 -0.6875 -0.1875q-0.203125 -0.1875 -0.203125 -0.484375q0 -0.28125 0.203125 -0.46875q0.203125 -0.1875 0.6875 -0.1875l0.484375 0l0 -1.203125q0 -0.484375 0.171875 -0.6875q0.1875 -0.203125 0.484375 -0.203125q0.296875 0 0.484375 0.203125q0.1875 0.203125 0.1875 0.6875l0 1.203125l2.46875 0q0.484375 0 0.6875 0.1875q0.203125 0.1875 0.203125 0.484375q0 0.28125 -0.203125 0.46875q-0.203125 0.1875 -0.6875 0.1875l-2.46875 0zm8.045059 -1.328125l0 0.828125q0.84375 -0.609375 1.328125 -0.796875q0.484375 -0.203125 0.90625 -0.203125q0.65625 0 1.265625 0.46875q0.421875 0.328125 0.421875 0.671875q0 0.28125 -0.203125 0.484375q-0.203125 0.203125 -0.484375 0.203125q-0.25 0 -0.53125 -0.25q-0.265625 -0.25 -0.46875 -0.25q-0.28125 0 -0.84375 0.359375q-0.546875 0.34375 -1.390625 1.046875l0 2.015625l1.90625 0q0.484375 0 0.6875 0.1875q0.203125 0.171875 0.203125 0.484375q0 0.28125 -0.203125 0.46875q-0.203125 0.1875 -0.6875 0.1875l-4.03125 0q-0.484375 0 -0.6875 -0.1875q-0.203125 -0.1875 -0.203125 -0.484375q0 -0.296875 0.203125 -0.46875q0.203125 -0.1875 0.6875 -0.1875l0.796875 0l0 -3.25l-0.484375 0q-0.484375 0 -0.6875 -0.1875q-0.203125 -0.1875 -0.203125 -0.484375q0 -0.28125 0.203125 -0.46875q0.203125 -0.1875 0.6875 -0.1875l1.8125 0zm8.763809 -2.53125l0 1.40625l-1.59375 0l0 -1.40625l1.59375 0zm0.171875 2.53125l0 4.578125l1.609375 0q0.46875 0 0.671875 0.1875q0.21875 0.171875 0.21875 0.484375q0 0.28125 -0.21875 0.46875q-0.203125 0.1875 -0.671875 0.1875l-4.546875 0q-0.46875 0 -0.6875 -0.1875q-0.203125 -0.1875 -0.203125 -0.484375q0 -0.296875 0.203125 -0.46875q0.21875 -0.1875 0.6875 -0.1875l1.609375 0l0 -3.25l-1.078125 0q-0.46875 0 -0.6875 -0.1875q-0.203125 -0.1875 -0.203125 -0.484375q0 -0.28125 0.203125 -0.46875q0.203125 -0.1875 0.6875 -0.1875l2.40625 0zm5.998184 0l0 0.453125q0.359375 -0.3125 0.796875 -0.46875q0.4375 -0.15625 0.953125 -0.15625q1.1875 0 1.875 0.734375q0.546875 0.578125 0.546875 1.53125l0 2.484375q0.421875 0 0.625 0.1875q0.203125 0.171875 0.203125 0.484375q0 0.28125 -0.203125 0.46875q-0.203125 0.1875 -0.6875 0.1875l-1.203125 0q-0.484375 0 -0.6875 -0.1875q-0.203125 -0.1875 -0.203125 -0.484375q0 -0.296875 0.1875 -0.46875q0.203125 -0.1875 0.640625 -0.1875l0 -2.53125q0 -0.421875 -0.234375 -0.625q-0.3125 -0.265625 -0.921875 -0.265625q-0.46875 0 -0.8125 0.1875q-0.34375 0.171875 -0.875 0.75l0 2.484375q0.5 0 0.65625 0.09375q0.3125 0.1875 0.3125 0.578125q0 0.28125 -0.203125 0.46875q-0.203125 0.1875 -0.6875 0.1875l-1.515625 0q-0.484375 0 -0.6875 -0.1875q-0.203125 -0.1875 -0.203125 -0.484375q0 -0.359375 0.3125 -0.5625q0.15625 -0.09375 0.671875 -0.09375l0 -3.25q-0.421875 0 -0.625 -0.1875q-0.203125 -0.1875 -0.203125 -0.484375q0 -0.28125 0.203125 -0.46875q0.203125 -0.1875 0.6875 -0.1875l1.28125 0zm10.810684 0.390625l0 -0.390625l1.5625 0q0.484375 0 0.6875 0.1875q0.203125 0.1875 0.203125 0.484375q0 0.28125 -0.203125 0.46875q-0.203125 0.1875 -0.6875 0.1875l-0.234375 0l0 4.859375q0 0.703125 -0.296875 1.21875q-0.296875 0.53125 -0.90625 0.90625q-0.609375 0.375 -1.375 0.375l-1.515625 0q-0.484375 0 -0.6875 -0.1875q-0.203125 -0.171875 -0.203125 -0.46875q0 -0.296875 0.203125 -0.484375q0.203125 -0.1875 0.6875 -0.1875l1.46875 0q0.625 0 0.953125 -0.34375q0.34375 -0.328125 0.34375 -0.828125l0 -0.65625q-0.4375 0.296875 -0.90625 0.4375q-0.453125 0.140625 -0.9375 0.140625q-1.359375 0 -2.28125 -0.90625q-0.921875 -0.90625 -0.921875 -2.25q0 -1.328125 0.921875 -2.234375q0.921875 -0.921875 2.28125 -0.921875q0.5 0 0.953125 0.15625q0.46875 0.140625 0.890625 0.4375zm-0.015625 2.5625q0 -0.734375 -0.546875 -1.265625q-0.53125 -0.546875 -1.296875 -0.546875q-0.765625 0 -1.3125 0.546875q-0.53125 0.53125 -0.53125 1.265625q0 0.734375 0.53125 1.28125q0.546875 0.53125 1.3125 0.53125q0.765625 0 1.296875 -0.53125q0.546875 -0.546875 0.546875 -1.28125z" fill-rule="nonzero"/><path fill="#000000" fill-opacity="0.0" d="m3.023622 143.47528l84.50394 0l0 35.55905l-84.50394 0z" fill-rule="evenodd"/><path stroke="#000000" stroke-width="3.0" stroke-linejoin="round" stroke-linecap="butt" d="m3.023622 143.47528l84.50394 0l0 35.55905l-84.50394 0z" fill-rule="evenodd"/><path fill="#000000" d="m20.719446 158.72841l0 5.21875l2.875 0l0 -1.265625q0 -0.484375 0.1875 -0.6875q0.1875 -0.203125 0.484375 -0.203125q0.296875 0 0.484375 0.203125q0.1875 0.203125 0.1875 0.6875l0 2.59375l-6.328125 0q-0.46875 0 -0.6875 -0.1875q-0.203125 -0.1875 -0.203125 -0.484375q0 -0.296875 0.203125 -0.46875q0.21875 -0.1875 0.6875 -0.1875l0.78125 0l0 -5.21875l-0.78125 0q-0.46875 0 -0.6875 -0.1875q-0.203125 -0.1875 -0.203125 -0.484375q0 -0.296875 0.203125 -0.484375q0.21875 -0.1875 0.6875 -0.1875l2.890625 0q0.484375 0 0.6875 0.1875q0.203125 0.1875 0.203125 0.484375q0 0.296875 -0.203125 0.484375q-0.203125 0.1875 -0.6875 0.1875l-0.78125 0zm9.045059 -1.890625l0 1.40625l-1.59375 0l0 -1.40625l1.59375 0zm0.171875 2.53125l0 4.578125l1.609375 0q0.4687481 0 0.6718731 0.1875q0.21875 0.171875 0.21875 0.484375q0 0.28125 -0.21875 0.46875q-0.203125 0.1875 -0.6718731 0.1875l-4.546875 0q-0.46875 0 -0.6875 -0.1875q-0.203125 -0.1875 -0.203125 -0.484375q0 -0.296875 0.203125 -0.46875q0.21875 -0.1875 0.6875 -0.1875l1.609375 0l0 -3.25l-1.078125 0q-0.46875 0 -0.6875 -0.1875q-0.203125 -0.1875 -0.203125 -0.484375q0 -0.28125 0.203125 -0.46875q0.203125 -0.1875 0.6875 -0.1875l2.40625 0zm8.779432 1.5625q-0.328125 -0.203125 -0.6875 -0.296875q-0.34375 -0.109375 -0.734375 -0.109375q-0.78125 0 -1.234375 0.25q-0.203125 0.109375 -0.203125 0.25q0 0.140625 0.265625 0.28125q0.21875 0.109375 0.9375 0.203125q1.328125 0.1875 1.84375 0.375q0.6875 0.234375 1.046875 0.71875q0.375 0.46875 0.375 1.0q0 0.703125 -0.625 1.1875q-0.90625 0.703125 -2.34375 0.703125q-0.578125 0 -1.078125 -0.109375q-0.484375 -0.09375 -0.890625 -0.296875q-0.109375 0.09375 -0.21875 0.140625q-0.109375 0.046875 -0.21875 0.046875q-0.3125 0 -0.5 -0.203125q-0.1875 -0.21875 -0.1875 -0.6875l0 -0.453125q0 -0.484375 0.1875 -0.6875q0.1875 -0.203125 0.484375 -0.203125q0.234375 0 0.390625 0.140625q0.171875 0.125 0.265625 0.453125q0.296875 0.25 0.71875 0.390625q0.4375 0.125 1.0 0.125q0.921875 0 1.421875 -0.28125q0.25 -0.140625 0.25 -0.296875q0 -0.265625 -0.34375 -0.4375q-0.34375 -0.15625 -1.421875 -0.28125q-1.609375 -0.171875 -2.15625 -0.65625q-0.53125 -0.46875 -0.53125 -1.171875q0 -0.703125 0.59375 -1.1875q0.828125 -0.640625 2.15625 -0.640625q0.453125 0 0.875 0.09375q0.4375 0.078125 0.828125 0.25q0.125 -0.078125 0.234375 -0.125q0.109375 -0.046875 0.1875 -0.046875q0.28125 0 0.453125 0.203125q0.1875 0.203125 0.1875 0.6875l0 0.328125q0 0.4375 -0.09375 0.59375q-0.21875 0.296875 -0.578125 0.296875q-0.234375 0 -0.421875 -0.140625q-0.171875 -0.15625 -0.234375 -0.40625zm6.232559 -0.234375l0 2.671875q0 0.4375 0.171875 0.578125q0.28125 0.203125 0.984375 0.203125q1.015625 0 1.875 -0.4375q0.34375 -0.15625 0.53125 -0.15625q0.25 0 0.4375 0.203125q0.203125 0.1875 0.203125 0.46875q0 0.25 -0.203125 0.4375q-0.328125 0.3125 -1.265625 0.578125q-0.9375 0.25 -1.578125 0.25q-1.25 0 -1.875 -0.53125q-0.609375 -0.546875 -0.609375 -1.328125l0 -2.9375l-0.484375 0q-0.484375 0 -0.6875 -0.1875q-0.203125 -0.1875 -0.203125 -0.484375q0 -0.28125 0.203125 -0.46875q0.203125 -0.1875 0.6875 -0.1875l0.484375 0l0 -1.203125q0 -0.484375 0.171875 -0.6875q0.1875 -0.203125 0.484375 -0.203125q0.296875 0 0.484375 0.203125q0.1875 0.203125 0.1875 0.6875l0 1.203125l2.46875 0q0.484375 0 0.6875 0.1875q0.203125 0.1875 0.203125 0.484375q0 0.28125 -0.203125 0.46875q-0.203125 0.1875 -0.6875 0.1875l-2.46875 0zm6.935684 0.78125l4.3125 2.390625q0.328125 0.1875 0.4375 0.328125q0.109375 0.140625 0.109375 0.359375q0 0.28125 -0.203125 0.484375q-0.203125 0.203125 -0.46875 0.203125q-0.171875 0 -0.53125 -0.1875l-6.4375 -3.578125l6.4375 -3.578125q0.359375 -0.1875 0.515625 -0.1875q0.28125 0 0.484375 0.203125q0.203125 0.1875 0.203125 0.46875q0 0.21875 -0.109375 0.375q-0.109375 0.140625 -0.4375 0.3125l-4.3125 2.40625zm8.295059 -1.25l-1.15625 -0.375q-0.40625 -0.125 -0.515625 -0.28125q-0.15625 -0.1875 -0.15625 -0.421875q0 -0.265625 0.1875 -0.46875q0.203125 -0.203125 0.4375 -0.203125q0.15625 0 0.46875 0.109375l1.140625 0.375l0 -1.21875q0 -0.484375 0.1875 -0.6875q0.1875 -0.203125 0.484375 -0.203125q0.296875 0 0.484375 0.203125q0.1875 0.203125 0.1875 0.6875l0 1.21875l1.15625 -0.375q0.3125 -0.109375 0.453125 -0.109375q0.25 0 0.4375 0.203125q0.1875 0.1875 0.1875 0.46875q0 0.234375 -0.140625 0.40625q-0.125 0.15625 -0.53125 0.296875l-1.15625 0.375l0.71875 0.984375q0.265625 0.359375 0.265625 0.5625q0 0.28125 -0.203125 0.484375q-0.1875 0.1875 -0.46875 0.1875q-0.203125 0 -0.34375 -0.078125q-0.125 -0.09375 -0.328125 -0.375l-0.71875 -0.984375l-0.703125 0.984375q-0.203125 0.28125 -0.34375 0.375q-0.140625 0.078125 -0.328125 0.078125q-0.28125 0 -0.484375 -0.1875q-0.1875 -0.203125 -0.1875 -0.484375q0 -0.203125 0.25 -0.5625l0.71875 -0.984375zm10.498184 1.25l-4.3125 -2.40625q-0.328125 -0.171875 -0.4375 -0.3125q-0.109375 -0.15625 -0.109375 -0.375q0 -0.28125 0.203125 -0.46875q0.203125 -0.203125 0.46875 -0.203125q0.171875 0 0.53125 0.1875l6.4375 3.578125l-6.4375 3.578125q-0.359375 0.1875 -0.53125 0.1875q-0.265625 0 -0.46875 -0.1875q-0.203125 -0.203125 -0.203125 -0.5q0 -0.21875 0.109375 -0.359375q0.109375 -0.140625 0.4375 -0.328125l4.3125 -2.390625z" fill-rule="nonzero"/><path fill="#000000" fill-opacity="0.0" d="m45.27559 143.47528l0 -23.745178l0.062992096 0l0 -23.750885" fill-rule="evenodd"/><path stroke="#000000" stroke-width="3.0" stroke-linejoin="round" stroke-linecap="butt" d="m45.27559 143.47528l0 -23.745178l0.062992096 0l0 -6.8660507" fill-rule="evenodd"/><path fill="#000000" stroke="#000000" stroke-width="3.0" stroke-linecap="butt" d="m45.33858 112.864044l4.995865 -7.1348267l-4.995865 -7.1348267l-4.995861 7.1348267z" fill-rule="evenodd"/><path fill="#000000" fill-opacity="0.0" d="m45.193066 216.66502l0 -18.815506l0.09449005 0l0 -18.82228" fill-rule="evenodd"/><path stroke="#000000" stroke-width="3.0" stroke-linejoin="round" stroke-linecap="butt" d="m45.193066 216.66502l0 -18.815506l0.09449005 0l0 -18.82228" fill-rule="evenodd"/><path fill="#000000" fill-opacity="0.0" d="m187.37007 174.90146l-58.649185 0l0 -136.0315l-58.642143 0" fill-rule="evenodd"/><path stroke="#000000" stroke-width="3.0" stroke-linejoin="round" stroke-linecap="butt" d="m187.37007 174.90147l-58.649185 0l0 -136.03151l-41.757317 0" fill-rule="evenodd"/><path stroke="#000000" stroke-width="3.0" stroke-linecap="butt" d="m86.96357 38.869965l-7.1348267 -4.995861l-7.1348343 4.995861l7.1348343 4.995861z" fill-rule="evenodd"/><path fill="#000000" fill-opacity="0.0" d="m87.52571 23.75164l26.236221 0l0 15.118111l-26.236221 0z" fill-rule="evenodd"/><path fill="#000000" d="m92.385086 28.571014l0 0.3125q0.25 -0.21875 0.546875 -0.328125q0.3125 -0.109375 0.671875 -0.109375q0.828125 0 1.3125 0.515625q0.390625 0.421875 0.390625 1.078125l0 1.734375q0.296875 0 0.4375 0.140625q0.140625 0.125 0.140625 0.328125q0 0.203125 -0.15625 0.34375q-0.140625 0.125 -0.46875 0.125l-0.84375 0q-0.34375 0 -0.484375 -0.125q-0.140625 -0.140625 -0.140625 -0.34375q0 -0.203125 0.140625 -0.328125q0.140625 -0.140625 0.4375 -0.140625l0 -1.765625q0 -0.296875 -0.15625 -0.4375q-0.21875 -0.1875 -0.65625 -0.1875q-0.3125 0 -0.5625 0.125q-0.234375 0.125 -0.609375 0.53125l0 1.734375q0.359375 0 0.453125 0.078125q0.234375 0.125 0.234375 0.390625q0 0.203125 -0.15625 0.34375q-0.140625 0.125 -0.46875 0.125l-1.0625 0q-0.34375 0 -0.484375 -0.125q-0.140625 -0.140625 -0.140625 -0.34375q0 -0.25 0.21875 -0.390625q0.109375 -0.078125 0.46875 -0.078125l0 -2.265625q-0.296875 0 -0.4375 -0.125q-0.140625 -0.140625 -0.140625 -0.34375q0 -0.203125 0.140625 -0.328125q0.140625 -0.140625 0.484375 -0.140625l0.890625 0zm7.3790436 4.140625l0 -0.21875q-0.359375 0.1875 -0.78125 0.28125q-0.421875 0.09375 -0.765625 0.09375q-0.75 0 -1.21875 -0.390625q-0.46875 -0.40625 -0.46875 -0.890625q0 -0.59375 0.59375 -1.09375q0.609375 -0.5 1.65625 -0.5q0.421875 0 0.984375 0.09375l0 -0.21875q0 -0.21875 -0.1875 -0.34375q-0.171875 -0.140625 -0.671875 -0.140625q-0.421875 0 -1.078125 0.171875q-0.25 0.046875 -0.390625 0.046875q-0.1875 0 -0.3125 -0.125q-0.125 -0.140625 -0.125 -0.34375q0 -0.125 0.046875 -0.203125q0.046875 -0.09375 0.125 -0.140625q0.078125 -0.046875 0.34375 -0.125q0.34375 -0.09375 0.703125 -0.15625q0.359375 -0.0625 0.640625 -0.0625q0.875 0 1.359375 0.390625q0.484375 0.375 0.484375 1.015625l0 1.921875l0.15625 0q0.328125 0 0.46875 0.140625q0.15625 0.125 0.15625 0.328125q0 0.203125 -0.15625 0.34375q-0.140625 0.125 -0.46875 0.125l-1.09375 0zm0 -1.671875q-0.5625 -0.109375 -1.03125 -0.109375q-0.578125 0 -0.984375 0.28125q-0.25 0.171875 -0.25 0.359375q0 0.125 0.125 0.21875q0.21875 0.140625 0.625 0.140625q0.328125 0 0.75 -0.125q0.4375 -0.140625 0.765625 -0.359375l0 -0.40625zm3.3165436 -2.46875l0 0.265625q0.21875 -0.21875 0.40625 -0.296875q0.1875 -0.09375 0.4375 -0.09375q0.203125 0 0.390625 0.109375q0.203125 0.09375 0.40625 0.296875q0.234375 -0.203125 0.484375 -0.296875q0.25 -0.109375 0.5 -0.109375q0.53125 0 0.84375 0.28125q0.4375 0.375 0.4375 0.953125l0 2.09375q0.28125 0 0.421875 0.140625q0.140625 0.125 0.140625 0.328125q0 0.203125 -0.140625 0.34375q-0.140625 0.125 -0.46875 0.125l-0.890625 0l0 -2.953125q0 -0.203125 -0.078125 -0.28125q-0.078125 -0.09375 -0.234375 -0.09375q-0.15625 0 -0.296875 0.078125q-0.15625 0.125 -0.40625 0.4375l0 1.875q0.296875 0 0.4375 0.140625q0.140625 0.125 0.140625 0.328125q0 0.203125 -0.140625 0.34375q-0.140625 0.125 -0.484375 0.125l-0.890625 0l0 -2.953125q0 -0.203125 -0.078125 -0.28125q-0.078125 -0.09375 -0.234375 -0.09375q-0.15625 0 -0.328125 0.109375q-0.15625 0.09375 -0.375 0.40625l0 1.875q0.296875 0 0.4375 0.140625q0.140625 0.125 0.140625 0.328125q0 0.203125 -0.140625 0.34375q-0.140625 0.125 -0.484375 0.125l-0.84375 0q-0.34375 0 -0.484375 -0.125q-0.140625 -0.140625 -0.140625 -0.34375q0 -0.203125 0.140625 -0.328125q0.140625 -0.140625 0.4375 -0.140625l0 -2.265625q-0.296875 0 -0.4375 -0.125q-0.140625 -0.140625 -0.140625 -0.34375q0 -0.203125 0.140625 -0.328125q0.140625 -0.140625 0.484375 -0.140625l0.890625 0zm9.379044 2.546875l-3.828125 0q0.140625 0.359375 0.515625 0.59375q0.375 0.21875 1.0 0.21875q0.53125 0 1.390625 -0.21875q0.34375 -0.09375 0.484375 -0.09375q0.1875 0 0.3125 0.140625q0.125 0.125 0.125 0.3125q0 0.1875 -0.125 0.3125q-0.1875 0.171875 -0.890625 0.328125q-0.703125 0.15625 -1.359375 0.15625q-1.125 0 -1.796875 -0.625q-0.671875 -0.640625 -0.671875 -1.578125q0 -0.984375 0.71875 -1.59375q0.734375 -0.625 1.6875 -0.625q0.5625 0 1.03125 0.203125q0.484375 0.203125 0.71875 0.4375q0.328125 0.34375 0.546875 0.828125q0.140625 0.34375 0.140625 0.8125l0 0.390625zm-1.03125 -0.9375q-0.21875 -0.390625 -0.5625 -0.59375q-0.34375 -0.203125 -0.828125 -0.203125q-0.46875 0 -0.8125 0.203125q-0.34375 0.203125 -0.5625 0.59375l2.765625 0z" fill-rule="nonzero"/><path fill="#000000" fill-opacity="0.0" d="m229.62204 192.68098l0 32.78354l-165.16534 0l0 -0.50006104" fill-rule="evenodd"/><path stroke="#000000" stroke-width="3.0" stroke-linejoin="round" stroke-linecap="butt" d="m229.62204 192.681l0 32.783524l-148.28793 0" fill-rule="evenodd"/><path stroke="#000000" stroke-width="3.0" stroke-linecap="butt" d="m81.334114 225.46452l-6.9837418 -5.2049713l-7.2796555 4.782364l6.9837418 5.2049713z" fill-rule="evenodd"/><path fill="#000000" fill-opacity="0.0" d="m82.92647 210.58792l39.11811 0l0 15.118118l-39.11811 0z" fill-rule="evenodd"/><path fill="#000000" d="m88.48897 216.3448l0 1.875q0 0.296875 0.125 0.390625q0.203125 0.15625 0.6875 0.15625q0.71875 0 1.328125 -0.3125q0.21875 -0.109375 0.359375 -0.109375q0.1875 0 0.3125 0.140625q0.140625 0.125 0.140625 0.328125q0 0.171875 -0.15625 0.3125q-0.21875 0.21875 -0.875 0.40625q-0.65625 0.171875 -1.109375 0.171875q-0.875 0 -1.3125 -0.375q-0.421875 -0.375 -0.421875 -0.921875l0 -2.0625l-0.34375 0q-0.328125 0 -0.484375 -0.125q-0.140625 -0.140625 -0.140625 -0.34375q0 -0.203125 0.140625 -0.328125q0.15625 -0.140625 0.484375 -0.140625l0.34375 0l0 -0.84375q0 -0.328125 0.125 -0.46875q0.125 -0.15625 0.34375 -0.15625q0.203125 0 0.328125 0.15625q0.125 0.140625 0.125 0.46875l0 0.84375l1.734375 0q0.328125 0 0.46875 0.140625q0.15625 0.125 0.15625 0.328125q0 0.203125 -0.15625 0.34375q-0.140625 0.125 -0.46875 0.125l-1.734375 0zm6.1759186 -2.703125l0 0.984375l-1.125 0l0 -0.984375l1.125 0zm0.125 1.765625l0 3.203125l1.109375 0q0.34375 0 0.484375 0.140625q0.140625 0.125 0.140625 0.328125q0 0.203125 -0.140625 0.34375q-0.140625 0.125 -0.484375 0.125l-3.171875 0q-0.328125 0 -0.484375 -0.125q-0.140625 -0.140625 -0.140625 -0.34375q0 -0.203125 0.140625 -0.328125q0.15625 -0.140625 0.484375 -0.140625l1.125 0l0 -2.265625l-0.75 0q-0.328125 0 -0.484375 -0.125q-0.140625 -0.140625 -0.140625 -0.34375q0 -0.203125 0.140625 -0.328125q0.140625 -0.140625 0.484375 -0.140625l1.6875 0zm4.8946686 0.9375l0 1.875q0 0.296875 0.125 0.390625q0.203125 0.15625 0.6875 0.15625q0.71875 0 1.328125 -0.3125q0.21875 -0.109375 0.359375 -0.109375q0.1875 0 0.3125 0.140625q0.140625 0.125 0.140625 0.328125q0 0.171875 -0.15625 0.3125q-0.21875 0.21875 -0.875 0.40625q-0.65625 0.171875 -1.109375 0.171875q-0.875 0 -1.3125 -0.375q-0.421875 -0.375 -0.421875 -0.921875l0 -2.0625l-0.34375 0q-0.328125 0 -0.484375 -0.125q-0.140625 -0.140625 -0.140625 -0.34375q0 -0.203125 0.140625 -0.328125q0.15625 -0.140625 0.484375 -0.140625l0.34375 0l0 -0.84375q0 -0.328125 0.125 -0.46875q0.125 -0.15625 0.34375 -0.15625q0.203125 0 0.328125 0.15625q0.125 0.140625 0.125 0.46875l0 0.84375l1.734375 0q0.328125 0 0.46875 0.140625q0.15625 0.125 0.15625 0.328125q0 0.203125 -0.15625 0.34375q-0.140625 0.125 -0.46875 0.125l-1.734375 0zm6.3009186 -2.703125l0 4.96875l1.125 0q0.328125 0 0.46875 0.140625q0.15625 0.125 0.15625 0.328125q0 0.203125 -0.15625 0.34375q-0.140625 0.125 -0.46875 0.125l-3.171875 0q-0.34375 0 -0.484375 -0.125q-0.140625 -0.140625 -0.140625 -0.34375q0 -0.203125 0.140625 -0.328125q0.140625 -0.140625 0.484375 -0.140625l1.109375 0l0 -4.03125l-0.75 0q-0.328125 0 -0.484375 -0.125q-0.140625 -0.140625 -0.140625 -0.34375q0 -0.203125 0.140625 -0.328125q0.15625 -0.140625 0.484375 -0.140625l1.6875 0zm7.4727936 4.3125l-3.828125 0q0.140625 0.359375 0.515625 0.59375q0.375 0.21875 1.0 0.21875q0.53125 0 1.390625 -0.21875q0.34375 -0.09375 0.484375 -0.09375q0.1875 0 0.3125 0.140625q0.125 0.125 0.125 0.3125q0 0.1875 -0.125 0.3125q-0.1875 0.171875 -0.890625 0.328125q-0.703125 0.15625 -1.359375 0.15625q-1.125 0 -1.796875 -0.625q-0.671875 -0.640625 -0.671875 -1.578125q0 -0.984375 0.71875 -1.59375q0.734375 -0.625 1.6875 -0.625q0.5625 0 1.03125 0.203125q0.484375 0.203125 0.71875 0.4375q0.328125 0.34375 0.546875 0.828125q0.140625 0.34375 0.140625 0.8125l0 0.390625zm-1.03125 -0.9375q-0.21875 -0.390625 -0.5625 -0.59375q-0.34375 -0.203125 -0.828125 -0.203125q-0.46875 0 -0.8125 0.203125q-0.34375 0.203125 -0.5625 0.59375l2.765625 0z" fill-rule="nonzero"/><path fill="#000000" fill-opacity="0.0" d="m187.37007 282.10095l84.50395 0l0 35.55905l-84.50395 0z" fill-rule="evenodd"/><path stroke="#000000" stroke-width="3.0" stroke-linejoin="round" stroke-linecap="butt" d="m187.37007 282.10095l84.50395 0l0 35.55905l-84.50395 0z" fill-rule="evenodd"/><path fill="#000000" d="m205.0659 297.35406l0 5.21875l2.875 0l0 -1.265625q0 -0.484375 0.1875 -0.6875q0.1875 -0.203125 0.484375 -0.203125q0.296875 0 0.484375 0.203125q0.1875 0.203125 0.1875 0.6875l0 2.59375l-6.328125 0q-0.46875 0 -0.6875 -0.1875q-0.203125 -0.1875 -0.203125 -0.484375q0 -0.296875 0.203125 -0.46875q0.21875 -0.1875 0.6875 -0.1875l0.78125 0l0 -5.21875l-0.78125 0q-0.46875 0 -0.6875 -0.1875q-0.203125 -0.1875 -0.203125 -0.484375q0 -0.296875 0.203125 -0.484375q0.21875 -0.1875 0.6875 -0.1875l2.890625 0q0.484375 0 0.6875 0.1875q0.203125 0.1875 0.203125 0.484375q0 0.296875 -0.203125 0.484375q-0.203125 0.1875 -0.6875 0.1875l-0.78125 0zm9.045059 -1.890625l0 1.40625l-1.59375 0l0 -1.40625l1.59375 0zm0.171875 2.53125l0 4.578125l1.609375 0q0.46875 0 0.671875 0.1875q0.21875 0.171875 0.21875 0.484375q0 0.28125 -0.21875 0.46875q-0.203125 0.1875 -0.671875 0.1875l-4.546875 0q-0.46875 0 -0.6875 -0.1875q-0.203125 -0.1875 -0.203125 -0.484375q0 -0.296875 0.203125 -0.46875q0.21875 -0.1875 0.6875 -0.1875l1.609375 0l0 -3.25l-1.078125 0q-0.46875 0 -0.6875 -0.1875q-0.203125 -0.1875 -0.203125 -0.484375q0 -0.28125 0.203125 -0.46875q0.203125 -0.1875 0.6875 -0.1875l2.40625 0zm8.779434 1.5625q-0.328125 -0.203125 -0.6875 -0.296875q-0.34375 -0.109375 -0.734375 -0.109375q-0.78125 0 -1.234375 0.25q-0.203125 0.109375 -0.203125 0.25q0 0.140625 0.265625 0.28125q0.21875 0.109375 0.9375 0.203125q1.328125 0.1875 1.84375 0.375q0.6875 0.234375 1.046875 0.71875q0.375 0.46875 0.375 1.0q0 0.703125 -0.625 1.1875q-0.90625 0.703125 -2.34375 0.703125q-0.578125 0 -1.078125 -0.109375q-0.484375 -0.09375 -0.890625 -0.296875q-0.109375 0.09375 -0.21875 0.140625q-0.109375 0.046875 -0.21875 0.046875q-0.3125 0 -0.5 -0.203125q-0.1875 -0.21875 -0.1875 -0.6875l0 -0.453125q0 -0.484375 0.1875 -0.6875q0.1875 -0.203125 0.484375 -0.203125q0.234375 0 0.390625 0.140625q0.171875 0.125 0.265625 0.453125q0.296875 0.25 0.71875 0.390625q0.4375 0.125 1.0 0.125q0.921875 0 1.421875 -0.28125q0.25 -0.140625 0.25 -0.296875q0 -0.265625 -0.34375 -0.4375q-0.34375 -0.15625 -1.421875 -0.28125q-1.609375 -0.171875 -2.15625 -0.65625q-0.53125 -0.46875 -0.53125 -1.171875q0 -0.703125 0.59375 -1.1875q0.828125 -0.640625 2.15625 -0.640625q0.453125 0 0.875 0.09375q0.4375 0.078125 0.828125 0.25q0.125 -0.078125 0.234375 -0.125q0.109375 -0.046875 0.1875 -0.046875q0.28125 0 0.453125 0.203125q0.1875 0.203125 0.1875 0.6875l0 0.328125q0 0.4375 -0.09375 0.59375q-0.21875 0.296875 -0.578125 0.296875q-0.234375 0 -0.421875 -0.140625q-0.171875 -0.15625 -0.234375 -0.40625zm6.232559 -0.234375l0 2.671875q0 0.4375 0.171875 0.578125q0.28125 0.203125 0.984375 0.203125q1.015625 0 1.875 -0.4375q0.34375 -0.15625 0.53125 -0.15625q0.25 0 0.4375 0.203125q0.203125 0.1875 0.203125 0.46875q0 0.25 -0.203125 0.4375q-0.328125 0.3125 -1.265625 0.578125q-0.9375 0.25 -1.578125 0.25q-1.25 0 -1.875 -0.53125q-0.609375 -0.546875 -0.609375 -1.328125l0 -2.9375l-0.484375 0q-0.484375 0 -0.6875 -0.1875q-0.203125 -0.1875 -0.203125 -0.484375q0 -0.28125 0.203125 -0.46875q0.203125 -0.1875 0.6875 -0.1875l0.484375 0l0 -1.203125q0 -0.484375 0.171875 -0.6875q0.1875 -0.203125 0.484375 -0.203125q0.296875 0 0.484375 0.203125q0.1875 0.203125 0.1875 0.6875l0 1.203125l2.46875 0q0.484375 0 0.6875 0.1875q0.203125 0.1875 0.203125 0.484375q0 0.28125 -0.203125 0.46875q-0.203125 0.1875 -0.6875 0.1875l-2.46875 0zm6.935684 0.78125l4.3125 2.390625q0.328125 0.1875 0.4375 0.328125q0.109375 0.140625 0.109375 0.359375q0 0.28125 -0.203125 0.484375q-0.203125 0.203125 -0.46875 0.203125q-0.171875 0 -0.53125 -0.1875l-6.4375 -3.578125l6.4375 -3.578125q0.359375 -0.1875 0.515625 -0.1875q0.28125 0 0.484375 0.203125q0.203125 0.1875 0.203125 0.46875q0 0.21875 -0.109375 0.375q-0.109375 0.140625 -0.4375 0.3125l-4.3125 2.40625zm8.295059 -1.25l-1.15625 -0.375q-0.40625 -0.125 -0.515625 -0.28125q-0.15625 -0.1875 -0.15625 -0.421875q0 -0.265625 0.1875 -0.46875q0.203125 -0.203125 0.4375 -0.203125q0.15625 0 0.46875 0.109375l1.140625 0.375l0 -1.21875q0 -0.484375 0.1875 -0.6875q0.1875 -0.203125 0.484375 -0.203125q0.296875 0 0.484375 0.203125q0.1875 0.203125 0.1875 0.6875l0 1.21875l1.15625 -0.375q0.3125 -0.109375 0.453125 -0.109375q0.25 0 0.4375 0.203125q0.1875 0.1875 0.1875 0.46875q0 0.234375 -0.140625 0.40625q-0.125 0.15625 -0.53125 0.296875l-1.15625 0.375l0.71875 0.984375q0.265625 0.359375 0.265625 0.5625q0 0.28125 -0.203125 0.484375q-0.1875 0.1875 -0.46875 0.1875q-0.203125 0 -0.34375 -0.078125q-0.125 -0.09375 -0.328125 -0.375l-0.71875 -0.984375l-0.703125 0.984375q-0.203125 0.28125 -0.34375 0.375q-0.140625 0.078125 -0.328125 0.078125q-0.28125 0 -0.484375 -0.1875q-0.1875 -0.203125 -0.1875 -0.484375q0 -0.203125 0.25 -0.5625l0.71875 -0.984375zm10.498184 1.25l-4.3125 -2.40625q-0.328125 -0.171875 -0.4375 -0.3125q-0.109375 -0.15625 -0.109375 -0.375q0 -0.28125 0.203125 -0.46875q0.203125 -0.203125 0.46875 -0.203125q0.171875 0 0.53125 0.1875l6.4374847 3.578125l-6.4374847 3.578125q-0.359375 0.1875 -0.53125 0.1875q-0.265625 0 -0.46875 -0.1875q-0.203125 -0.203125 -0.203125 -0.5q0 -0.21875 0.109375 -0.359375q0.109375 -0.140625 0.4375 -0.328125l4.3125 -2.390625z" fill-rule="nonzero"/><path fill="#000000" fill-opacity="0.0" d="m187.37007 299.88046l-59.02362 0l0 -38.48819l-59.023613 0" fill-rule="evenodd"/><path stroke="#000000" stroke-width="3.0" stroke-linejoin="round" stroke-linecap="butt" d="m187.37007 299.88046l-59.02362 0l0 -38.48819l-42.138786 0" fill-rule="evenodd"/><path stroke="#000000" stroke-width="3.0" stroke-linecap="butt" d="m86.207664 261.39227l-7.1348267 -4.9958496l-7.1348343 4.9958496l7.1348343 4.99588z" fill-rule="evenodd"/><path fill="#000000" fill-opacity="0.0" d="m271.87402 299.88046l28.578674 0l0 -0.1574707l28.58667 0" fill-rule="evenodd"/><path stroke="#000000" stroke-width="3.0" stroke-linejoin="round" stroke-linecap="butt" d="m271.87402 299.88046l28.578674 0l0 -0.1574707l28.58667 0" fill-rule="evenodd"/><path fill="#000000" fill-opacity="0.0" d="m186.85207 157.03511l42.771652 0l0 35.55905l-42.771652 0z" fill-rule="evenodd"/><path fill="#000000" fill-opacity="0.0" d="m229.62372 157.03511l42.771667 0l0 35.55905l-42.771667 0z" fill-rule="evenodd"/><path fill="#000000" fill-opacity="0.0" d="m208.2379 157.03511l0 -138.89185l128.7874 0l0 0.7501106" fill-rule="evenodd"/><path stroke="#000000" stroke-width="3.0" stroke-linejoin="round" stroke-linecap="butt" d="m208.2379 157.03511l0 -138.89185l111.919266 0" fill-rule="evenodd"/><path fill="#000000" stroke="#000000" stroke-width="3.0" stroke-linecap="butt" d="m320.15714 18.143263l6.9058533 5.3078938l7.3497314 -4.6739635l-6.9058533 -5.3078938z" fill-rule="evenodd"/><path fill="#000000" fill-opacity="0.0" d="m251.00955 157.03511l0 -98.21098l86.01575 0l0 0.16373825" fill-rule="evenodd"/><path stroke="#000000" stroke-width="3.0" stroke-linejoin="round" stroke-linecap="butt" d="m251.00955 157.03511l0 -98.21099l69.131714 0" fill-rule="evenodd"/><path fill="#000000" stroke="#000000" stroke-width="3.0" stroke-linecap="butt" d="m320.14127 58.82412l7.0860596 5.0648193l7.1829224 -4.9264374l-7.086029 -5.0648155z" fill-rule="evenodd"/><path fill="#000000" fill-opacity="0.0" d="m271.87402 174.90146l86.86612 0l0 -78.866135" fill-rule="evenodd"/><path stroke="#000000" stroke-width="3.0" stroke-linejoin="round" stroke-linecap="butt" d="m271.87402 174.90147l86.86612 0l0 -61.981323" fill-rule="evenodd"/><path fill="#000000" stroke="#000000" stroke-width="3.0" stroke-linecap="butt" d="m358.74014 112.92015l4.99588 -7.1348343l-4.99588 -7.1348267l-4.9958496 7.1348267z" fill-rule="evenodd"/><path fill="#000000" fill-opacity="0.0" d="m313.1014 116.681465l45.637817 0l0 15.118111l-45.637817 0z" fill-rule="evenodd"/><path fill="#000000" d="m323.79306 125.12584l0 1.53125l0.5625 0q0.328125 0 0.46875 0.125q0.15625 0.140625 0.15625 0.34375q0 0.203125 -0.15625 0.328125q-0.140625 0.140625 -0.46875 0.140625l-1.65625 0q-0.34375 0 -0.484375 -0.140625q-0.140625 -0.125 -0.140625 -0.328125q0 -0.203125 0.140625 -0.34375q0.15625 -0.125 0.484375 -0.125l0.15625 0l0 -4.21875l-0.15625 0q-0.34375 0 -0.484375 -0.125q-0.140625 -0.140625 -0.140625 -0.34375q0 -0.203125 0.140625 -0.328125q0.140625 -0.140625 0.484375 -0.140625l1.09375 0l0 0.328125q0.328125 -0.234375 0.671875 -0.34375q0.359375 -0.109375 0.71875 -0.109375q0.96875 0 1.640625 0.65625q0.671875 0.65625 0.671875 1.484375q0 0.921875 -0.796875 1.53125q-0.671875 0.5 -1.5 0.5q-0.359375 0 -0.71875 -0.109375q-0.34375 -0.109375 -0.6875 -0.3125zm2.765625 -1.609375q0 -0.1875 -0.15625 -0.484375q-0.15625 -0.3125 -0.484375 -0.515625q-0.3125 -0.203125 -0.734375 -0.203125q-0.703125 0 -1.109375 0.53125q-0.28125 0.359375 -0.28125 0.6875q0 0.375 0.390625 0.734375q0.40625 0.34375 1.0 0.34375q0.578125 0 0.96875 -0.34375q0.40625 -0.359375 0.40625 -0.75zm3.8009338 -2.015625l0 0.59375q0.578125 -0.421875 0.921875 -0.5625q0.34375 -0.15625 0.640625 -0.15625q0.453125 0 0.875 0.34375q0.296875 0.234375 0.296875 0.46875q0 0.203125 -0.140625 0.34375q-0.140625 0.125 -0.328125 0.125q-0.171875 0 -0.375 -0.171875q-0.1875 -0.171875 -0.34375 -0.171875q-0.1875 0 -0.578125 0.25q-0.390625 0.25 -0.96875 0.734375l0 1.40625l1.328125 0q0.328125 0 0.46875 0.140625q0.15625 0.125 0.15625 0.328125q0 0.203125 -0.15625 0.34375q-0.140625 0.125 -0.46875 0.125l-2.828125 0q-0.328125 0 -0.484375 -0.125q-0.140625 -0.140625 -0.140625 -0.34375q0 -0.203125 0.140625 -0.328125q0.15625 -0.140625 0.484375 -0.140625l0.5625 0l0 -2.265625l-0.34375 0q-0.328125 0 -0.484375 -0.125q-0.140625 -0.140625 -0.140625 -0.34375q0 -0.203125 0.140625 -0.328125q0.15625 -0.140625 0.484375 -0.140625l1.28125 0zm8.129028 2.546875l-3.828125 0q0.140625 0.359375 0.515625 0.59375q0.375 0.21875 1.0 0.21875q0.53125 0 1.390625 -0.21875q0.34375 -0.09375 0.484375 -0.09375q0.1875 0 0.3125 0.140625q0.125 0.125 0.125 0.3125q0 0.1875 -0.125 0.3125q-0.1875 0.171875 -0.890625 0.328125q-0.703125 0.15625 -1.359375 0.15625q-1.125 0 -1.796875 -0.625q-0.671875 -0.640625 -0.671875 -1.578125q0 -0.984375 0.71875 -1.59375q0.734375 -0.625 1.6875 -0.625q0.5625 0 1.03125 0.203125q0.484375 0.203125 0.71875 0.4375q0.328125 0.34375 0.546875 0.828125q0.140625 0.34375 0.140625 0.8125l0 0.390625zm-1.03125 -0.9375q-0.21875 -0.390625 -0.5625 -0.59375q-0.34375 -0.203125 -0.828125 -0.203125q-0.46875 0 -0.8125 0.203125q-0.34375 0.203125 -0.5625 0.59375l2.765625 0zm4.285309 -0.671875l0 2.265625l1.328125 0q0.328125 0 0.46875 0.140625q0.15625 0.125 0.15625 0.328125q0 0.203125 -0.15625 0.34375q-0.140625 0.125 -0.46875 0.125l-2.828125 0q-0.328125 0 -0.484375 -0.125q-0.140625 -0.140625 -0.140625 -0.34375q0 -0.203125 0.140625 -0.328125q0.15625 -0.140625 0.484375 -0.140625l0.5625 0l0 -2.265625l-0.453125 0q-0.328125 0 -0.484375 -0.125q-0.140625 -0.140625 -0.140625 -0.34375q0 -0.203125 0.140625 -0.328125q0.15625 -0.140625 0.484375 -0.140625l0.453125 0l0 -0.34375q0 -0.609375 0.453125 -1.015625q0.46875 -0.40625 1.328125 -0.40625q0.390625 0 0.890625 0.078125q0.515625 0.0625 0.65625 0.1875q0.140625 0.125 0.140625 0.328125q0 0.21875 -0.125 0.359375q-0.125 0.125 -0.3125 0.125q-0.078125 0 -0.265625 -0.03125q-0.578125 -0.109375 -1.015625 -0.109375q-0.46875 0 -0.640625 0.140625q-0.171875 0.125 -0.171875 0.34375l0 0.34375l1.4375 0q0.328125 0 0.46875 0.140625q0.15625 0.125 0.15625 0.328125q0 0.203125 -0.15625 0.34375q-0.140625 0.125 -0.46875 0.125l-1.4375 0zm5.9415283 -2.703125l0 0.984375l-1.125 0l0 -0.984375l1.125 0zm0.125 1.765625l0 3.203125l1.109375 0q0.34375 0 0.484375 0.140625q0.140625 0.125 0.140625 0.328125q0 0.203125 -0.140625 0.34375q-0.140625 0.125 -0.484375 0.125l-3.171875 0q-0.328125 0 -0.484375 -0.125q-0.140625 -0.140625 -0.140625 -0.34375q0 -0.203125 0.140625 -0.328125q0.15625 -0.140625 0.484375 -0.140625l1.125 0l0 -2.265625l-0.75 0q-0.328125 0 -0.484375 -0.125q-0.140625 -0.140625 -0.140625 -0.34375q0 -0.203125 0.140625 -0.328125q0.140625 -0.140625 0.484375 -0.140625l1.6875 0zm5.832184 1.984375l1.421875 1.21875q0.25 0.015625 0.375 0.15625q0.125 0.125 0.125 0.3125q0 0.203125 -0.140625 0.34375q-0.140625 0.125 -0.484375 0.125l-1.0625 0q-0.328125 0 -0.484375 -0.125q-0.140625 -0.140625 -0.140625 -0.34375q0 -0.171875 0.109375 -0.296875q0.109375 -0.125 0.28125 -0.171875l-0.703125 -0.59375l-0.703125 0.59375q0.21875 0.0625 0.296875 0.171875q0.09375 0.109375 0.09375 0.296875q0 0.203125 -0.140625 0.34375q-0.140625 0.125 -0.46875 0.125l-1.0625 0q-0.328125 0 -0.46875 -0.125q-0.140625 -0.140625 -0.140625 -0.34375q0 -0.1875 0.125 -0.3125q0.125 -0.140625 0.375 -0.15625l1.390625 -1.21875l-1.234375 -1.046875q-0.234375 -0.015625 -0.359375 -0.140625q-0.125 -0.140625 -0.125 -0.328125q0 -0.203125 0.140625 -0.328125q0.140625 -0.140625 0.484375 -0.140625l0.875 0q0.328125 0 0.46875 0.140625q0.15625 0.125 0.15625 0.328125q0 0.265625 -0.265625 0.4375l0.578125 0.46875l0.546875 -0.484375q-0.25 -0.171875 -0.25 -0.40625q0 -0.21875 0.140625 -0.34375q0.140625 -0.140625 0.484375 -0.140625l0.859375 0q0.34375 0 0.484375 0.140625q0.140625 0.125 0.140625 0.328125q0 0.1875 -0.125 0.328125q-0.125 0.125 -0.359375 0.140625l-1.234375 1.046875z" fill-rule="nonzero"/><path fill="#000000" fill-opacity="0.0" d="m271.93448 43.48178l45.637787 0l0 15.118111l-45.637787 0z" fill-rule="evenodd"/><path fill="#000000" d="m302.56015 48.301155l0 3.203125q0.296875 0 0.4375 0.140625q0.140625 0.125 0.140625 0.328125q0 0.203125 -0.140625 0.34375q-0.140625 0.125 -0.484375 0.125l-0.890625 0l0 -0.21875q-0.390625 0.1875 -0.765625 0.28125q-0.359375 0.09375 -0.6875 0.09375q-0.453125 0 -0.796875 -0.1875q-0.34375 -0.203125 -0.53125 -0.546875q-0.140625 -0.25 -0.140625 -0.609375l0 -2.015625l-0.15625 0q-0.34375 0 -0.484375 -0.125q-0.140625 -0.140625 -0.140625 -0.34375q0 -0.203125 0.140625 -0.328125q0.140625 -0.140625 0.484375 -0.140625l1.09375 0l0 2.78125q0 0.296875 0.140625 0.4375q0.140625 0.140625 0.4375 0.140625q0.28125 0 0.609375 -0.109375q0.328125 -0.109375 0.796875 -0.40625l0 -1.90625l-0.328125 0q-0.34375 0 -0.484375 -0.125q-0.140625 -0.140625 -0.140625 -0.34375q0 -0.203125 0.140625 -0.328125q0.140625 -0.140625 0.484375 -0.140625l1.265625 0zm3.4259033 0l0 0.59375q0.578125 -0.421875 0.921875 -0.5625q0.34375 -0.15625 0.640625 -0.15625q0.453125 0 0.875 0.34375q0.296875 0.234375 0.296875 0.46875q0 0.203125 -0.140625 0.34375q-0.140625 0.125 -0.328125 0.125q-0.171875 0 -0.375 -0.171875q-0.1875 -0.171875 -0.34375 -0.171875q-0.1875 0 -0.578125 0.25q-0.390625 0.25 -0.96875 0.734375l0 1.40625l1.328125 0q0.328125 0 0.46875 0.140625q0.15625 0.125 0.15625 0.328125q0 0.203125 -0.15625 0.34375q-0.140625 0.125 -0.46875 0.125l-2.828125 0q-0.328125 0 -0.484375 -0.125q-0.140625 -0.140625 -0.140625 -0.34375q0 -0.203125 0.140625 -0.328125q0.15625 -0.140625 0.484375 -0.140625l0.5625 0l0 -2.265625l-0.34375 0q-0.328125 0 -0.484375 -0.125q-0.140625 -0.140625 -0.140625 -0.34375q0 -0.203125 0.140625 -0.328125q0.15625 -0.140625 0.484375 -0.140625l1.28125 0zm6.254059 -1.765625l0 4.96875l1.125 0q0.328125 0 0.46875 0.140625q0.15625 0.125 0.15625 0.328125q0 0.203125 -0.15625 0.34375q-0.140625 0.125 -0.46875 0.125l-3.171875 0q-0.34375 0 -0.484375 -0.125q-0.140625 -0.140625 -0.140625 -0.34375q0 -0.203125 0.140625 -0.328125q0.140625 -0.140625 0.484375 -0.140625l1.109375 0l0 -4.03125l-0.75 0q-0.328125 0 -0.484375 -0.125q-0.140625 -0.140625 -0.140625 -0.34375q0 -0.203125 0.140625 -0.328125q0.15625 -0.140625 0.484375 -0.140625l1.6875 0z" fill-rule="nonzero"/><path fill="#000000" fill-opacity="0.0" d="m272.397 3.023622l45.637787 0l0 15.118111l-45.637787 0z" fill-rule="evenodd"/><path fill="#000000" d="m294.28424 11.467997l0 1.53125l0.5625 0q0.328125 0 0.46875 0.125q0.15625 0.140625 0.15625 0.34375q0 0.203125 -0.15625 0.328125q-0.140625 0.140625 -0.46875 0.140625l-1.65625 0q-0.34375 0 -0.484375 -0.140625q-0.140625 -0.125 -0.140625 -0.328125q0 -0.203125 0.140625 -0.34375q0.15625 -0.125 0.484375 -0.125l0.15625 0l0 -4.21875l-0.15625 0q-0.34375 0 -0.484375 -0.125q-0.140625 -0.140625 -0.140625 -0.34375q0 -0.203125 0.140625 -0.32812548q0.140625 -0.140625 0.484375 -0.140625l1.09375 0l0 0.32812548q0.328125 -0.23437548 0.671875 -0.34375048q0.359375 -0.109375 0.71875 -0.109375q0.96875 0 1.640625 0.6562505q0.671875 0.65625 0.671875 1.484375q0 0.921875 -0.796875 1.53125q-0.671875 0.5 -1.5 0.5q-0.359375 0 -0.71875 -0.109375q-0.34375 -0.109375 -0.6875 -0.3125zm2.765625 -1.609375q0 -0.1875 -0.15625 -0.484375q-0.15625 -0.3125 -0.484375 -0.515625q-0.3125 -0.203125 -0.734375 -0.203125q-0.703125 0 -1.109375 0.53125q-0.28125 0.359375 -0.28125 0.6875q0 0.375 0.390625 0.734375q0.40625 0.34375 1.0 0.34375q0.578125 0 0.96875 -0.34375q0.40625 -0.359375 0.40625 -0.75zm6.4102783 0.140625q0 0.53125 -0.296875 1.03125q-0.296875 0.5 -0.890625 0.8125q-0.578125 0.296875 -1.21875 0.296875q-0.640625 0 -1.234375 -0.296875q-0.578125 -0.296875 -0.890625 -0.796875q-0.296875 -0.515625 -0.296875 -1.0625q0 -0.5625 0.3125 -1.09375q0.3125 -0.546875 0.890625 -0.859375q0.578125 -0.31250048 1.21875 -0.31250048q0.625 0 1.21875 0.32812548q0.59375 0.3125 0.890625 0.84375q0.296875 0.53125 0.296875 1.109375zm-0.921875 0q0 -0.453125 -0.328125 -0.828125q-0.4375 -0.515625 -1.15625 -0.515625q-0.640625 0 -1.0625 0.40625q-0.421875 0.40625 -0.421875 0.9375q0 0.4375 0.421875 0.828125q0.4375 0.375 1.0625 0.375q0.625 0 1.046875 -0.375q0.4375 -0.390625 0.4375 -0.828125zm3.9103088 -2.1562505l0 0.5937505q0.578125 -0.421875 0.921875 -0.5625005q0.34375 -0.15625 0.640625 -0.15625q0.453125 0 0.875 0.34375048q0.296875 0.234375 0.296875 0.46875q0 0.203125 -0.140625 0.34375q-0.140625 0.125 -0.328125 0.125q-0.171875 0 -0.375 -0.171875q-0.1875 -0.171875 -0.34375 -0.171875q-0.1875 0 -0.578125 0.25q-0.390625 0.25 -0.96875 0.734375l0 1.40625l1.328125 0q0.328125 0 0.46875 0.140625q0.15625 0.125 0.15625 0.328125q0 0.203125 -0.15625 0.34375q-0.140625 0.125 -0.46875 0.125l-2.828125 0q-0.328125 0 -0.484375 -0.125q-0.140625 -0.140625 -0.140625 -0.34375q0 -0.203125 0.140625 -0.328125q0.15625 -0.140625 0.484375 -0.140625l0.5625 0l0 -2.265625l-0.34375 0q-0.328125 0 -0.484375 -0.125q-0.140625 -0.140625 -0.140625 -0.34375q0 -0.203125 0.140625 -0.32812548q0.15625 -0.140625 0.484375 -0.140625l1.28125 0zm5.5509033 0.9375005l0 1.875q0 0.296875 0.125 0.390625q0.203125 0.15625 0.6875 0.15625q0.71875 0 1.328125 -0.3125q0.21875 -0.109375 0.359375 -0.109375q0.1875 0 0.3125 0.140625q0.140625 0.125 0.140625 0.328125q0 0.171875 -0.15625 0.3125q-0.21875 0.21875 -0.875 0.40625q-0.65625 0.171875 -1.109375 0.171875q-0.875 0 -1.3125 -0.375q-0.421875 -0.375 -0.421875 -0.921875l0 -2.0625l-0.34375 0q-0.328125 0 -0.484375 -0.125q-0.140625 -0.140625 -0.140625 -0.34375q0 -0.203125 0.140625 -0.32812548q0.15625 -0.140625 0.484375 -0.140625l0.34375 0l0 -0.84375q0 -0.328125 0.125 -0.46875q0.125 -0.15625 0.34375 -0.15625q0.203125 0 0.328125 0.15625q0.125 0.140625 0.125 0.46875l0 0.84375l1.734375 0q0.328125 0 0.46875 0.140625q0.15625 0.12500048 0.15625 0.32812548q0 0.203125 -0.15625 0.34375q-0.140625 0.125 -0.46875 0.125l-1.734375 0z" fill-rule="nonzero"/><path fill="#cfe2f3" d="m17.933224 245.02724l0 0c0 -15.664017 12.204647 -28.362213 27.259842 -28.362213l0 0c7.229759 0 14.163406 2.9881592 19.275616 8.307098c5.112213 5.318939 7.98423 12.5329895 7.98423 20.055115l0 0c0 15.664017 -12.204651 28.362198 -27.259846 28.362198l0 0c-15.055195 0 -27.259842 -12.698181 -27.259842 -28.362198z" fill-rule="evenodd"/><path stroke="#4e8aeb" stroke-width="3.0" stroke-linejoin="round" stroke-linecap="butt" d="m17.933224 245.02724l0 0c0 -15.664017 12.204647 -28.362213 27.259842 -28.362213l0 0c7.229759 0 14.163406 2.9881592 19.275616 8.307098c5.112213 5.318939 7.98423 12.5329895 7.98423 20.055115l0 0c0 15.664017 -12.204651 28.362198 -27.259846 28.362198l0 0c-15.055195 0 -27.259842 -12.698181 -27.259842 -28.362198z" fill-rule="evenodd"/><path fill="#cfe2f3" d="m62.05367 253.80534l0 0c-3.8216896 8.244156 -12.474274 12.67598 -20.972725 10.742172c-8.498451 -1.9338379 -14.653782 -9.735184 -14.91971 -18.90947c-0.26592827 -9.174286 5.4260426 -17.358429 13.796587 -19.837296c8.370544 -2.4788666 17.263622 1.3860474 21.555645 9.368042l-8.601131 5.1553497c-1.9510765 -4.07251 -6.15049 -6.1087646 -10.141632 -4.9175873c-3.9911423 1.1911926 -6.7253685 5.296829 -6.6031914 9.915176c0.122177124 4.6183624 3.068657 8.5359955 7.1157837 9.461121c4.0471306 0.9251404 8.13155 -1.3852844 9.86393 -5.579712z" fill-rule="evenodd"/><path stroke="#4e8aeb" stroke-width="3.0" stroke-linejoin="round" stroke-linecap="butt" d="m62.05367 253.80534l0 0c-3.8216896 8.244156 -12.474274 12.67598 -20.972725 10.742172c-8.498451 -1.9338379 -14.653782 -9.735184 -14.91971 -18.90947c-0.26592827 -9.174286 5.4260426 -17.358429 13.796587 -19.837296c8.370544 -2.4788666 17.263622 1.3860474 21.555645 9.368042l-8.601131 5.1553497c-1.9510765 -4.07251 -6.15049 -6.1087646 -10.141632 -4.9175873c-3.9911423 1.1911926 -6.7253685 5.296829 -6.6031914 9.915176c0.122177124 4.6183624 3.068657 8.5359955 7.1157837 9.461121c4.0471306 0.9251404 8.13155 -1.3852844 9.86393 -5.579712z" fill-rule="evenodd"/><path fill="#000000" fill-opacity="0.0" d="m8.52267 276.4393l78.267715 0l0 25.700806l-78.267715 0z" fill-rule="evenodd"/><path fill="#000000" d="m25.708849 297.89557q-0.171875 0.21875 -0.28125 0.28125q-0.109375 0.046875 -0.265625 0.046875q-0.296875 0 -0.484375 -0.203125q-0.1875 -0.203125 -0.1875 -0.671875l0 -0.90625q0 -0.484375 0.1875 -0.6875q0.1875 -0.203125 0.484375 -0.203125q0.234375 0 0.390625 0.125q0.171875 0.125 0.25 0.421875q0.078125 0.28125 0.171875 0.390625q0.1875 0.1875 0.671875 0.40625q0.484375 0.203125 1.0625 0.203125q0.890625 0 1.453125 -0.421875q0.375 -0.25 0.375 -0.625q0 -0.234375 -0.1875 -0.453125q-0.171875 -0.21875 -0.5625 -0.359375q-0.265625 -0.109375 -1.171875 -0.28125q-1.09375 -0.1875 -1.65625 -0.46875q-0.546875 -0.296875 -0.875 -0.8125q-0.328125 -0.53125 -0.328125 -1.125q0 -0.96875 0.796875 -1.6875q0.796875 -0.71875 2.078125 -0.71875q0.515625 0 0.953125 0.125q0.453125 0.109375 0.8125 0.34375q0.25 -0.25 0.515625 -0.25q0.296875 0 0.46875 0.203125q0.1875 0.203125 0.1875 0.671875l0 1.0q0 0.484375 -0.1875 0.6875q-0.171875 0.203125 -0.46875 0.203125q-0.25 0 -0.4375 -0.140625q-0.140625 -0.109375 -0.21875 -0.4375q-0.0625 -0.34375 -0.171875 -0.484375q-0.1875 -0.25 -0.5625 -0.40625q-0.375 -0.171875 -0.875 -0.171875q-0.71875 0 -1.140625 0.34375q-0.421875 0.328125 -0.421875 0.6875q0 0.25 0.171875 0.484375q0.171875 0.21875 0.5 0.359375q0.21875 0.078125 1.25 0.28125q1.03125 0.203125 1.578125 0.453125q0.546875 0.234375 0.90625 0.75q0.375 0.515625 0.375 1.21875q0 1.0 -0.703125 1.59375q-0.921875 0.765625 -2.359375 0.765625q-0.546875 0 -1.078125 -0.140625q-0.515625 -0.125 -1.015625 -0.390625zm13.295061 -1.9375l-5.46875 0q0.203125 0.53125 0.734375 0.84375q0.53125 0.3125 1.4375 0.3125q0.75 0 1.96875 -0.3125q0.515625 -0.125 0.703125 -0.125q0.265625 0 0.453125 0.1875q0.1875 0.1875 0.1875 0.46875q0 0.265625 -0.203125 0.4375q-0.265625 0.25 -1.28125 0.46875q-1.0 0.21875 -1.921875 0.21875q-1.609375 0 -2.578125 -0.90625q-0.953125 -0.90625 -0.953125 -2.234375q0 -1.40625 1.03125 -2.28125q1.046875 -0.875 2.40625 -0.875q0.8125 0 1.484375 0.28125q0.6875 0.28125 1.015625 0.609375q0.46875 0.484375 0.78125 1.203125q0.203125 0.484375 0.203125 1.140625l0 0.5625zm-1.46875 -1.328125q-0.3125 -0.578125 -0.8125 -0.859375q-0.484375 -0.28125 -1.171875 -0.28125q-0.671875 0 -1.171875 0.28125q-0.5 0.28125 -0.8125 0.859375l3.96875 0zm7.326309 3.609375l0 -0.3125q-0.5 0.265625 -1.109375 0.390625q-0.609375 0.140625 -1.09375 0.140625q-1.078125 0 -1.75 -0.5625q-0.671875 -0.578125 -0.671875 -1.265625q0 -0.84375 0.859375 -1.5625q0.859375 -0.71875 2.359375 -0.71875q0.609375 0 1.40625 0.140625l0 -0.328125q0 -0.296875 -0.265625 -0.484375q-0.25 -0.1875 -0.96875 -0.1875q-0.59375 0 -1.546875 0.234375q-0.34375 0.078125 -0.546875 0.078125q-0.265625 0 -0.453125 -0.1875q-0.171875 -0.1875 -0.171875 -0.484375q0 -0.171875 0.0625 -0.296875q0.0625 -0.125 0.171875 -0.203125q0.125 -0.078125 0.5 -0.171875q0.484375 -0.140625 1.0 -0.21875q0.515625 -0.078125 0.9375 -0.078125q1.234375 0 1.921875 0.53125q0.6875 0.53125 0.6875 1.46875l0 2.75l0.234375 0q0.484375 0 0.6875 0.1875q0.203125 0.171875 0.203125 0.484375q0 0.28125 -0.203125 0.46875q-0.203125 0.1875 -0.6875 0.1875l-1.5625 0zm0 -2.390625q-0.796875 -0.15625 -1.484375 -0.15625q-0.8125 0 -1.390625 0.40625q-0.375 0.25 -0.375 0.5q0 0.203125 0.1875 0.3125q0.3125 0.21875 0.890625 0.21875q0.46875 0 1.078125 -0.1875q0.609375 -0.1875 1.09375 -0.515625l0 -0.578125zm8.232559 -1.953125q-0.328125 -0.203125 -0.6875 -0.296875q-0.34375 -0.109375 -0.734375 -0.109375q-0.78125 0 -1.234375 0.25q-0.203125 0.109375 -0.203125 0.25q0 0.140625 0.265625 0.28125q0.21875 0.109375 0.9375 0.203125q1.328125 0.1875 1.84375 0.375q0.6875 0.234375 1.046875 0.71875q0.375 0.46875 0.375 1.0q0 0.703125 -0.625 1.1875q-0.90625 0.703125 -2.34375 0.703125q-0.578125 0 -1.078125 -0.109375q-0.484375 -0.09375 -0.890625 -0.296875q-0.109375 0.09375 -0.21875 0.140625q-0.109375 0.046875 -0.21875 0.046875q-0.3125 0 -0.5 -0.203125q-0.1875 -0.21875 -0.1875 -0.6875l0 -0.453125q0 -0.484375 0.1875 -0.6875q0.1875 -0.203125 0.484375 -0.203125q0.234375 0 0.390625 0.140625q0.171875 0.125 0.265625 0.453125q0.296875 0.25 0.71875 0.390625q0.4375 0.125 1.0 0.125q0.921875 0 1.421875 -0.28125q0.25 -0.140625 0.25 -0.296875q0 -0.265625 -0.34375 -0.4375q-0.34375 -0.15625 -1.421875 -0.28125q-1.609375 -0.171875 -2.15625 -0.65625q-0.53125 -0.46875 -0.53125 -1.171875q0 -0.703125 0.59375 -1.1875q0.828125 -0.640625 2.15625 -0.640625q0.453125 0 0.875 0.09375q0.4375 0.078125 0.828125 0.25q0.125 -0.078125 0.234375 -0.125q0.109375 -0.046875 0.1875 -0.046875q0.28125 0 0.453125 0.203125q0.1875 0.203125 0.1875 0.6875l0 0.328125q0 0.4375 -0.09375 0.59375q-0.21875 0.296875 -0.578125 0.296875q-0.234375 0 -0.421875 -0.140625q-0.171875 -0.15625 -0.234375 -0.40625zm10.029434 1.5q0 0.765625 -0.4375 1.484375q-0.421875 0.71875 -1.265625 1.15625q-0.84375 0.421875 -1.75 0.421875q-0.921875 0 -1.75 -0.421875q-0.828125 -0.421875 -1.265625 -1.140625q-0.4375 -0.71875 -0.4375 -1.515625q0 -0.796875 0.4375 -1.5625q0.4375 -0.78125 1.265625 -1.21875q0.84375 -0.4375 1.75 -0.4375q0.90625 0 1.75 0.453125q0.84375 0.4375 1.265625 1.203125q0.4375 0.765625 0.4375 1.578125zm-1.34375 0q0 -0.640625 -0.453125 -1.171875q-0.640625 -0.734375 -1.65625 -0.734375q-0.90625 0 -1.515625 0.578125q-0.609375 0.578125 -0.609375 1.34375q0 0.625 0.609375 1.171875q0.625 0.53125 1.515625 0.53125q0.890625 0 1.5 -0.53125q0.609375 -0.546875 0.609375 -1.1875zm4.5294304 -3.0625l0 0.453125q0.359375 -0.3125 0.796875 -0.46875q0.4375 -0.15625 0.953125 -0.15625q1.1875 0 1.875 0.734375q0.546875 0.578125 0.546875 1.53125l0 2.484375q0.421875 0 0.625 0.1875q0.203125 0.171875 0.203125 0.484375q0 0.28125 -0.203125 0.46875q-0.203125 0.1875 -0.6875 0.1875l-1.203125 0q-0.484375 0 -0.6875 -0.1875q-0.203125 -0.1875 -0.203125 -0.484375q0 -0.296875 0.1875 -0.46875q0.203125 -0.1875 0.640625 -0.1875l0 -2.53125q0 -0.421875 -0.234375 -0.625q-0.3125 -0.265625 -0.921875 -0.265625q-0.46875 0 -0.8125 0.1875q-0.34375 0.171875 -0.875 0.75l0 2.484375q0.5 0 0.65625 0.09375q0.3125 0.1875 0.3125 0.578125q0 0.28125 -0.203125 0.46875q-0.203125 0.1875 -0.6875 0.1875l-1.515625 0q-0.484375 0 -0.6875 -0.1875q-0.20312119 -0.1875 -0.20312119 -0.484375q0 -0.359375 0.3124962 -0.5625q0.15625 -0.09375 0.671875 -0.09375l0 -3.25q-0.421875 0 -0.625 -0.1875q-0.203125 -0.1875 -0.203125 -0.484375q0 -0.28125 0.203125 -0.46875q0.203125 -0.1875 0.6875 -0.1875l1.28125 0z" fill-rule="nonzero"/><path fill="#ebe3fd" d="m55.391228 252.5443l0 23.65355l21.937012 0l-10.753281 -11.611572l10.753281 -12.041977z" fill-rule="evenodd"/><path stroke="#8b6bda" stroke-width="3.0" stroke-linejoin="round" stroke-linecap="butt" d="m55.391228 252.5443l0 23.65355l21.937012 0l-10.753281 -11.611572l10.753281 -12.041977z" fill-rule="evenodd"/><path fill="#cfe2f3" d="m15.551333 38.872375l0 0c0 -15.664013 12.204648 -28.362206 27.259842 -28.362206l0 0c7.229759 0 14.163406 2.9881516 19.27562 8.307097c5.1122093 5.318945 7.984226 12.532982 7.984226 20.055107l0 0c0 15.664013 -12.204651 28.362206 -27.259846 28.362206l0 0c-15.055195 0 -27.259842 -12.698193 -27.259842 -28.362206z" fill-rule="evenodd"/><path stroke="#4e8aeb" stroke-width="3.0" stroke-linejoin="round" stroke-linecap="butt" d="m15.551333 38.872375l0 0c0 -15.664013 12.204648 -28.362206 27.259842 -28.362206l0 0c7.229759 0 14.163406 2.9881516 19.27562 8.307097c5.1122093 5.318945 7.984226 12.532982 7.984226 20.055107l0 0c0 15.664013 -12.204651 28.362206 -27.259846 28.362206l0 0c-15.055195 0 -27.259842 -12.698193 -27.259842 -28.362206z" fill-rule="evenodd"/><path fill="#cfe2f3" d="m59.67178 47.650494l0 0c-3.8216896 8.244152 -12.474274 12.675976 -20.972725 10.742161c-8.498451 -1.9338188 -14.653782 -9.735176 -14.91971 -18.909462c-0.26592827 -9.174288 5.4260426 -17.358438 13.796587 -19.837303c8.370544 -2.4788628 17.263618 1.3860512 21.555645 9.368046l-8.601131 5.1553535c-1.9510765 -4.072508 -6.15049 -6.1087646 -10.141632 -4.9175835c-3.9911423 1.1911793 -6.7253685 5.2968216 -6.6031914 9.915176c0.122177124 4.6183586 3.068657 8.535984 7.1157837 9.461121c4.0471306 0.92513657 8.13155 -1.385292 9.86393 -5.5797157z" fill-rule="evenodd"/><path stroke="#4e8aeb" stroke-width="3.0" stroke-linejoin="round" stroke-linecap="butt" d="m59.67178 47.650494l0 0c-3.8216896 8.244152 -12.474274 12.675976 -20.972725 10.742161c-8.498451 -1.9338188 -14.653782 -9.735176 -14.91971 -18.909462c-0.26592827 -9.174288 5.4260426 -17.358438 13.796587 -19.837303c8.370544 -2.4788628 17.263618 1.3860512 21.555645 9.368046l-8.601131 5.1553535c-1.9510765 -4.072508 -6.15049 -6.1087646 -10.141632 -4.9175835c-3.9911423 1.1911793 -6.7253685 5.2968216 -6.6031914 9.915176c0.122177124 4.6183586 3.068657 8.535984 7.1157837 9.461121c4.0471306 0.92513657 8.13155 -1.385292 9.86393 -5.5797157z" fill-rule="evenodd"/><path fill="#000000" fill-opacity="0.0" d="m6.14078 70.28445l78.267715 0l0 25.70079l-78.267715 0z" fill-rule="evenodd"/><path fill="#000000" d="m25.92071 85.537575l0 5.21875l0.90625 0q0.484375 0 0.6875 0.1875q0.203125 0.171875 0.203125 0.484375q0 0.28125 -0.203125 0.46875q-0.203125 0.1875 -0.6875 0.1875l-3.125 0q-0.484375 0 -0.6875 -0.1875q-0.203125 -0.1875 -0.203125 -0.484375q0 -0.296875 0.203125 -0.46875q0.203125 -0.1875 0.6875 -0.1875l0.890625 0l0 -5.21875l-1.4375 0l0 1.25q0 0.484375 -0.1875 0.6875q-0.1875 0.203125 -0.484375 0.203125q-0.296875 0 -0.484375 -0.203125q-0.1875 -0.203125 -0.1875 -0.6875l0 -2.59375l6.90625 0l0 2.59375q0 0.484375 -0.1875 0.6875q-0.171875 0.203125 -0.46875 0.203125q-0.296875 0 -0.484375 -0.203125q-0.1875 -0.203125 -0.1875 -0.6875l0 -1.25l-1.46875 0zm7.357561 4.59375l1.921875 -4.59375l-0.296875 0q-0.484375 0 -0.6875 -0.1875q-0.203125 -0.1875 -0.203125 -0.484375q0 -0.296875 0.203125 -0.484375q0.203125 -0.1875 0.6875 -0.1875l1.78125 0q0.484375 0 0.6875 0.1875q0.203125 0.1875 0.203125 0.484375q0 0.359375 -0.3125 0.5625q-0.140625 0.109375 -0.609375 0.109375l-2.734375 6.546875l-1.28125 0l-2.734377 -6.546875q-0.46875 0 -0.625 -0.109375q-0.3125 -0.203125 -0.3125 -0.5625q0 -0.296875 0.21875 -0.484375q0.203125 -0.1875 0.671875 -0.1875l1.8125 0q0.4687519 0 0.6718769 0.1875q0.21875 0.1875 0.21875 0.484375q0 0.296875 -0.203125 0.484375q-0.203125 0.1875 -0.6875019 0.1875l-0.3125 0l1.9218769 4.59375zm6.045059 1.609375q-0.171875 0.21875 -0.28125 0.28125q-0.109375 0.046875 -0.265625 0.046875q-0.296875 0 -0.484375 -0.203125q-0.1875 -0.203125 -0.1875 -0.671875l0 -0.90625q0 -0.484375 0.1875 -0.6875q0.1875 -0.203125 0.484375 -0.203125q0.234375 0 0.390625 0.125q0.171875 0.125 0.25 0.421875q0.078125 0.28125 0.171875 0.390625q0.1875 0.1875 0.671875 0.40625q0.484375 0.203125 1.0625 0.203125q0.890625 0 1.453125 -0.421875q0.375 -0.25 0.375 -0.625q0 -0.234375 -0.1875 -0.453125q-0.171875 -0.21875 -0.5625 -0.359375q-0.265625 -0.109375 -1.171875 -0.28125q-1.09375 -0.1875 -1.65625 -0.46875q-0.546875 -0.296875 -0.875 -0.8125q-0.328125 -0.53125 -0.328125 -1.125q0 -0.96875 0.796875 -1.6875q0.796875 -0.71875 2.078125 -0.71875q0.515625 0 0.953125 0.125q0.453125 0.109375 0.8125 0.34375q0.25 -0.25 0.515625 -0.25q0.296875 0 0.46875 0.203125q0.1875 0.203125 0.1875 0.671875l0 1.0q0 0.484375 -0.1875 0.6875q-0.171875 0.203125 -0.46875 0.203125q-0.25 0 -0.4375 -0.140625q-0.140625 -0.109375 -0.21875 -0.4375q-0.0625 -0.34375 -0.171875 -0.484375q-0.1875 -0.25 -0.5625 -0.40625q-0.375 -0.171875 -0.875 -0.171875q-0.71875 0 -1.140625 0.34375q-0.421875 0.328125 -0.421875 0.6875q0 0.25 0.171875 0.484375q0.171875 0.21875 0.5 0.359375q0.21875 0.078125 1.25 0.28125q1.03125 0.203125 1.578125 0.453125q0.546875 0.234375 0.90625 0.75q0.375 0.515625 0.375 1.21875q0 1.0 -0.703125 1.59375q-0.921875 0.765625 -2.359375 0.765625q-0.546875 0 -1.078125 -0.140625q-0.515625 -0.125 -1.015625 -0.390625zm8.576309 -8.09375l0 2.84375q0.421875 -0.25 0.84375 -0.359375q0.421875 -0.125 0.859375 -0.125q0.6875 0 1.21875 0.234375q0.546875 0.234375 0.90625 0.734375q0.359375 0.5 0.359375 1.265625l0 2.515625q0.5 0 0.65625 0.09375q0.3125 0.203125 0.3125 0.578125q0 0.28125 -0.203125 0.46875q-0.203125 0.1875 -0.6875 0.1875l-1.515625 0q-0.46875 0 -0.6875 -0.1875q-0.203125 -0.1875 -0.203125 -0.484375q0 -0.359375 0.3125 -0.5625q0.171875 -0.109375 0.671875 -0.09375l0 -2.421875q0 -0.515625 -0.234375 -0.71875q-0.3125 -0.28125 -0.90625 -0.28125q-0.4375 0 -0.78125 0.171875q-0.34375 0.171875 -0.921875 0.75l0 2.5q0.515625 0 0.65625 0.09375q0.328125 0.203125 0.328125 0.578125q0 0.28125 -0.203125 0.46875q-0.203125 0.1875 -0.6875 0.1875l-1.515625 0q-0.484375 0 -0.6875 -0.1875q-0.203125 -0.1875 -0.203125 -0.484375q0 -0.359375 0.3125 -0.5625q0.15625 -0.109375 0.65625 -0.09375l0 -5.78125l-0.21875 0q-0.484375 0 -0.6875 -0.1875q-0.203125 -0.1875 -0.203125 -0.484375q0 -0.28125 0.203125 -0.46875q0.203125 -0.1875 0.6875 -0.1875l1.5625 0zm12.841934 5.59375q0 0.765625 -0.4375 1.484375q-0.421875 0.71875 -1.265625 1.15625q-0.84375 0.421875 -1.75 0.421875q-0.921875 0 -1.75 -0.421875q-0.828125 -0.421875 -1.265625 -1.140625q-0.4375 -0.71875 -0.4375 -1.515625q0 -0.796875 0.4375 -1.5625q0.4375 -0.78125 1.265625 -1.21875q0.84375 -0.4375 1.75 -0.4375q0.90625 0 1.75 0.453125q0.84375 0.4375 1.265625 1.203125q0.4375 0.765625 0.4375 1.578125zm-1.34375 0q0 -0.640625 -0.453125 -1.171875q-0.640625 -0.734375 -1.65625 -0.734375q-0.90625 0 -1.515625 0.578125q-0.609375 0.578125 -0.609375 1.34375q0 0.625 0.609375 1.171875q0.625 0.53125 1.515625 0.53125q0.890625 0 1.5 -0.53125q0.609375 -0.546875 0.609375 -1.1875zm5.8888054 0.390625l-0.9375 2.453125l-1.2499962 0l-1.125 -4.578125q-0.359375 -0.015625 -0.546875 -0.203125q-0.1875 -0.1875 -0.1875 -0.46875q0 -0.28125 0.203125 -0.46875q0.21875 -0.1875 0.6875 -0.1875l1.25 0q0.484375 0 0.6874962 0.1875q0.203125 0.1875 0.203125 0.484375q0 0.296875 -0.234375 0.5q-0.17187119 0.15625 -0.6874962 0.15625l0.5 2.125l0.8281212 -2.171875l1.1875 0l0.828125 2.171875l0.53125 -2.125q-0.5 0 -0.65625 -0.09375q-0.3125 -0.203125 -0.3125 -0.578125q0 -0.28125 0.203125 -0.46875q0.203125 -0.1875 0.6875 -0.1875l1.25 0q0.484375 0 0.6875 0.1875q0.21875 0.1875 0.21875 0.484375q0 0.265625 -0.1875 0.453125q-0.171875 0.1875 -0.53125 0.203125l-1.09375 4.578125l-1.234375 0l-0.96875 -2.453125z" fill-rule="nonzero"/><path fill="#ebe3fd" d="m53.00934 46.389435l0 23.653542l21.937012 0l-10.753288 -11.611546l10.753288 -12.041996z" fill-rule="evenodd"/><path stroke="#8b6bda" stroke-width="3.0" stroke-linejoin="round" stroke-linecap="butt" d="m53.00934 46.389435l0 23.653542l21.937012 0l-10.753288 -11.611546l10.753288 -12.041996z" fill-rule="evenodd"/><path fill="#cfe2f3" d="m329.03165 38.935368l0 0c0 -15.664013 12.204651 -28.362206 27.259857 -28.362206l0 0c7.2297363 0 14.163391 2.9881516 19.275604 8.307097c5.112213 5.318945 7.9842224 12.532982 7.9842224 20.055107l0 0c0 15.664013 -12.204651 28.362202 -27.259827 28.362202l0 0c-15.055206 0 -27.259857 -12.698189 -27.259857 -28.362202z" fill-rule="evenodd"/><path stroke="#4e8aeb" stroke-width="3.0" stroke-linejoin="round" stroke-linecap="butt" d="m329.03165 38.935368l0 0c0 -15.664013 12.204651 -28.362206 27.259857 -28.362206l0 0c7.2297363 0 14.163391 2.9881516 19.275604 8.307097c5.112213 5.318945 7.9842224 12.532982 7.9842224 20.055107l0 0c0 15.664013 -12.204651 28.362202 -27.259827 28.362202l0 0c-15.055206 0 -27.259857 -12.698189 -27.259857 -28.362202z" fill-rule="evenodd"/><path fill="#cfe2f3" d="m373.1521 47.713486l0 0c-3.8216858 8.244152 -12.474274 12.675976 -20.972717 10.742161c-8.498474 -1.9338188 -14.653809 -9.735176 -14.919708 -18.909462c-0.26593018 -9.174288 5.4260254 -17.358438 13.79657 -19.837303c8.370544 -2.4788628 17.26361 1.3860512 21.555634 9.368046l-8.601105 5.1553535c-1.9510803 -4.072508 -6.1505127 -6.1087646 -10.141632 -4.9175835c-3.99115 1.1911793 -6.7253723 5.2968216 -6.6032104 9.915176c0.12219238 4.6183586 3.0686646 8.535984 7.1157837 9.461121c4.0471497 0.92513657 8.131561 -1.385292 9.863922 -5.5797157z" fill-rule="evenodd"/><path stroke="#4e8aeb" stroke-width="3.0" stroke-linejoin="round" stroke-linecap="butt" d="m373.1521 47.713486l0 0c-3.8216858 8.244152 -12.474274 12.675976 -20.972717 10.742161c-8.498474 -1.9338188 -14.653809 -9.735176 -14.919708 -18.909462c-0.26593018 -9.174288 5.4260254 -17.358438 13.79657 -19.837303c8.370544 -2.4788628 17.26361 1.3860512 21.555634 9.368046l-8.601105 5.1553535c-1.9510803 -4.072508 -6.1505127 -6.1087646 -10.141632 -4.9175835c-3.99115 1.1911793 -6.7253723 5.2968216 -6.6032104 9.915176c0.12219238 4.6183586 3.0686646 8.535984 7.1157837 9.461121c4.0471497 0.92513657 8.131561 -1.385292 9.863922 -5.5797157z" fill-rule="evenodd"/><path fill="#000000" fill-opacity="0.0" d="m319.6211 70.34744l78.26773 0l0 25.700783l-78.26773 0z" fill-rule="evenodd"/><path fill="#000000" d="m324.81 91.80369q-0.171875 0.21875 -0.28125 0.28125q-0.109375 0.046875 -0.265625 0.046875q-0.296875 0 -0.484375 -0.203125q-0.1875 -0.203125 -0.1875 -0.671875l0 -0.90625q0 -0.484375 0.1875 -0.6875q0.1875 -0.203125 0.484375 -0.203125q0.234375 0 0.390625 0.125q0.171875 0.125 0.25 0.421875q0.078125 0.28125 0.171875 0.390625q0.1875 0.1875 0.671875 0.40625q0.484375 0.203125 1.0625 0.203125q0.890625 0 1.453125 -0.421875q0.375 -0.25 0.375 -0.625q0 -0.234375 -0.1875 -0.453125q-0.171875 -0.21875 -0.5625 -0.359375q-0.265625 -0.109375 -1.171875 -0.28125q-1.09375 -0.1875 -1.65625 -0.46875q-0.546875 -0.296875 -0.875 -0.8125q-0.328125 -0.53125 -0.328125 -1.125q0 -0.96875 0.796875 -1.6875q0.796875 -0.71875 2.078125 -0.71875q0.515625 0 0.953125 0.125q0.453125 0.109375 0.8125 0.34375q0.25 -0.25 0.515625 -0.25q0.296875 0 0.46875 0.203125q0.1875 0.203125 0.1875 0.671875l0 1.0q0 0.484375 -0.1875 0.6875q-0.171875 0.203125 -0.46875 0.203125q-0.25 0 -0.4375 -0.140625q-0.140625 -0.109375 -0.21875 -0.4375q-0.0625 -0.34375 -0.171875 -0.484375q-0.1875 -0.25 -0.5625 -0.40625q-0.375 -0.171875 -0.875 -0.171875q-0.71875 0 -1.140625 0.34375q-0.421875 0.328125 -0.421875 0.6875q0 0.25 0.171875 0.484375q0.171875 0.21875 0.5 0.359375q0.21875 0.078125 1.25 0.28125q1.03125 0.203125 1.578125 0.453125q0.546875 0.234375 0.90625 0.75q0.375 0.515625 0.375 1.21875q0 1.0 -0.703125 1.59375q-0.921875 0.765625 -2.359375 0.765625q-0.546875 0 -1.078125 -0.140625q-0.515625 -0.125 -1.015625 -0.390625zm13.295074 -1.9375l-5.46875 0q0.203125 0.53125 0.734375 0.84375q0.53125 0.3125 1.4375 0.3125q0.75 0 1.96875 -0.3125q0.515625 -0.125 0.703125 -0.125q0.265625 0 0.453125 0.1875q0.1875 0.1875 0.1875 0.46875q0 0.265625 -0.203125 0.4375q-0.265625 0.25 -1.28125 0.46875q-1.0 0.21875 -1.921875 0.21875q-1.609375 0 -2.578125 -0.90625q-0.953125 -0.90625 -0.953125 -2.234375q0 -1.40625 1.03125 -2.28125q1.046875 -0.875 2.40625 -0.875q0.8125 0 1.484375 0.28125q0.6875 0.28125 1.015625 0.609375q0.46875 0.484375 0.78125 1.203125q0.203125 0.484375 0.203125 1.140625l0 0.5625zm-1.46875 -1.328125q-0.3125 -0.578125 -0.8125 -0.859375q-0.484375 -0.28125 -1.171875 -0.28125q-0.671875 0 -1.171875 0.28125q-0.5 0.28125 -0.8125 0.859375l3.96875 0zm5.841919 -2.296875l0 0.828125q0.84375 -0.609375 1.328125 -0.796875q0.484375 -0.203125 0.90625 -0.203125q0.65625 0 1.265625 0.46875q0.421875 0.328125 0.421875 0.671875q0 0.28125 -0.203125 0.484375q-0.203125 0.203125 -0.484375 0.203125q-0.25 0 -0.53125 -0.25q-0.265625 -0.25 -0.46875 -0.25q-0.28125 0 -0.84375 0.359375q-0.546875 0.34375 -1.390625 1.046875l0 2.015625l1.90625 0q0.484375 0 0.6875 0.1875q0.203125 0.171875 0.203125 0.484375q0 0.28125 -0.203125 0.46875q-0.203125 0.1875 -0.6875 0.1875l-4.03125 0q-0.484375 0 -0.6875 -0.1875q-0.203125 -0.1875 -0.203125 -0.484375q0 -0.296875 0.203125 -0.46875q0.203125 -0.1875 0.6875 -0.1875l0.796875 0l0 -3.25l-0.484375 0q-0.484375 0 -0.6875 -0.1875q-0.203125 -0.1875 -0.203125 -0.484375q0 -0.28125 0.203125 -0.46875q0.203125 -0.1875 0.6875 -0.1875l1.8125 0zm8.295074 4.28125l1.4375 -2.953125q-0.546875 0 -0.6875 -0.09375q-0.328125 -0.203125 -0.328125 -0.578125q0 -0.28125 0.203125 -0.46875q0.203125 -0.1875 0.6875 -0.1875l1.828125 0q0.484375 0 0.6875 0.1875q0.203125 0.1875 0.203125 0.484375q0 0.28125 -0.203125 0.46875q-0.203125 0.1875 -0.6875 0.1875l-0.21875 0l-2.234375 4.578125l-1.390625 0l-2.234375 -4.578125l-0.1875 0q-0.484375 0 -0.6875 -0.1875q-0.203125 -0.1875 -0.203125 -0.484375q0 -0.28125 0.203125 -0.46875q0.203125 -0.1875 0.6875 -0.1875l1.796875 0q0.46875 0 0.671875 0.1875q0.203125 0.1875 0.203125 0.484375q0 0.359375 -0.3125 0.5625q-0.15625 0.09375 -0.6875 0.09375l1.453125 2.953125zm11.326294 -0.65625l-5.46875 0q0.203125 0.53125 0.734375 0.84375q0.53125 0.3125 1.4375 0.3125q0.75 0 1.96875 -0.3125q0.515625 -0.125 0.703125 -0.125q0.265625 0 0.453125 0.1875q0.1875 0.1875 0.1875 0.46875q0 0.265625 -0.203125 0.4375q-0.265625 0.25 -1.28125 0.46875q-1.0 0.21875 -1.921875 0.21875q-1.609375 0 -2.578125 -0.90625q-0.953125 -0.90625 -0.953125 -2.234375q0 -1.40625 1.03125 -2.28125q1.046875 -0.875 2.40625 -0.875q0.8125 0 1.484375 0.28125q0.6875 0.28125 1.015625 0.609375q0.46875 0.484375 0.78125 1.203125q0.203125 0.484375 0.203125 1.140625l0 0.5625zm-1.46875 -1.328125q-0.3125 -0.578125 -0.8125 -0.859375q-0.484375 -0.28125 -1.171875 -0.28125q-0.671875 0 -1.171875 0.28125q-0.5 0.28125 -0.8125 0.859375l3.96875 0zm5.8419495 -2.296875l0 0.828125q0.84375 -0.609375 1.328125 -0.796875q0.484375 -0.203125 0.90625 -0.203125q0.65625 0 1.265625 0.46875q0.421875 0.328125 0.421875 0.671875q0 0.28125 -0.203125 0.484375q-0.203125 0.203125 -0.484375 0.203125q-0.25 0 -0.53125 -0.25q-0.265625 -0.25 -0.46875 -0.25q-0.28125 0 -0.84375 0.359375q-0.546875 0.34375 -1.390625 1.046875l0 2.015625l1.90625 0q0.484375 0 0.6875 0.1875q0.203125 0.171875 0.203125 0.484375q0 0.28125 -0.203125 0.46875q-0.203125 0.1875 -0.6875 0.1875l-4.03125 0q-0.484375 0 -0.6875 -0.1875q-0.203125 -0.1875 -0.203125 -0.484375q0 -0.296875 0.203125 -0.46875q0.203125 -0.1875 0.6875 -0.1875l0.796875 0l0 -3.25l-0.484375 0q-0.484375 0 -0.6875 -0.1875q-0.203125 -0.1875 -0.203125 -0.484375q0 -0.28125 0.203125 -0.46875q0.203125 -0.1875 0.6875 -0.1875l1.8125 0zm11.326294 -0.640625l0 3.78125q0 1.234375 -0.890625 2.09375q-0.890625 0.859375 -2.140625 0.859375q-0.609375 0 -1.15625 -0.203125q-0.546875 -0.21875 -0.984375 -0.640625q-0.421875 -0.4375 -0.671875 -0.890625q-0.234375 -0.453125 -0.234375 -1.21875l0 -3.78125q-0.421875 0 -0.625 -0.1875q-0.203125 -0.203125 -0.203125 -0.484375q0 -0.296875 0.203125 -0.484375q0.203125 -0.1875 0.6875 -0.1875l1.75 0q0.484375 0 0.6875 0.1875q0.203125 0.1875 0.203125 0.484375q0 0.296875 -0.203125 0.484375q-0.203125 0.1875 -0.6875 0.1875l-0.484375 0l0 3.890625q0 0.59375 0.5 1.0625q0.5 0.453125 1.203125 0.453125q0.46875 0 0.875 -0.21875q0.421875 -0.21875 0.671875 -0.640625q0.171875 -0.265625 0.171875 -0.65625l0 -3.890625l-0.484375 0q-0.484375 0 -0.6875 -0.1875q-0.203125 -0.1875 -0.203125 -0.484375q0 -0.296875 0.203125 -0.484375q0.203125 -0.1875 0.6875 -0.1875l1.75 0q0.484375 0 0.6875 0.1875q0.203125 0.1875 0.203125 0.484375q0 0.28125 -0.203125 0.484375q-0.203125 0.1875 -0.625 0.1875zm3.5763245 3.53125l0 1.6875l0.484375 0q0.46875 0 0.671875 0.1875q0.21875 0.171875 0.21875 0.484375q0 0.28125 -0.21875 0.46875q-0.203125 0.1875 -0.671875 0.1875l-2.03125 0q-0.484375 0 -0.6875 -0.1875q-0.203125 -0.1875 -0.203125 -0.484375q0 -0.296875 0.203125 -0.46875q0.21875 -0.1875 0.6875 -0.1875l0.203125 0l0 -5.21875l-0.203125 0q-0.484375 0 -0.6875 -0.1875q-0.203125 -0.1875 -0.203125 -0.484375q0 -0.296875 0.203125 -0.484375q0.203125 -0.1875 0.6875 -0.1875l3.015625 0q1.421875 0 2.1875 0.703125q0.78125 0.703125 0.78125 1.703125q0 0.625 -0.359375 1.140625q-0.359375 0.5 -1.09375 0.90625q0.421875 0.359375 0.90625 0.9375q0.296875 0.375 0.796875 1.171875q0.515625 0 0.671875 0.09375q0.296875 0.203125 0.296875 0.578125q0 0.28125 -0.203125 0.46875q-0.203125 0.1875 -0.6875 0.1875l-0.765625 0q-1.609375 -2.5 -2.6875 -3.015625l-1.3125 0zm0 -1.328125l1.03125 0q0.59375 0 1.046875 -0.171875q0.609375 -0.234375 0.8125 -0.5q0.21875 -0.265625 0.21875 -0.515625q0 -0.375 -0.40625 -0.6875q-0.40625 -0.328125 -1.171875 -0.328125l-1.53125 0l0 2.203125zm8.810669 -2.203125l0 5.21875l2.875 0l0 -1.265625q0 -0.484375 0.1875 -0.6875q0.1875 -0.203125 0.484375 -0.203125q0.296875 0 0.484375 0.203125q0.1875 0.203125 0.1875 0.6875l0 2.59375l-6.328125 0q-0.46875 0 -0.6875 -0.1875q-0.203125 -0.1875 -0.203125 -0.484375q0 -0.296875 0.203125 -0.46875q0.21875 -0.1875 0.6875 -0.1875l0.78125 0l0 -5.21875l-0.78125 0q-0.46875 0 -0.6875 -0.1875q-0.203125 -0.1875 -0.203125 -0.484375q0 -0.296875 0.203125 -0.484375q0.21875 -0.1875 0.6875 -0.1875l2.890625 0q0.484375 0 0.6875 0.1875q0.203125 0.1875 0.203125 0.484375q0 0.296875 -0.203125 0.484375q-0.203125 0.1875 -0.6875 0.1875l-0.78125 0z" fill-rule="nonzero"/><path fill="#ebe3fd" d="m366.48965 46.452427l0 23.653545l21.937012 0l-10.753296 -11.611549l10.753296 -12.041996z" fill-rule="evenodd"/><path stroke="#8b6bda" stroke-width="3.0" stroke-linejoin="round" stroke-linecap="butt" d="m366.48965 46.452427l0 23.653545l21.937012 0l-10.753296 -11.611549l10.753296 -12.041996z" fill-rule="evenodd"/><path fill="#cfe2f3" d="m329.0313 299.72278l0 0c0 -15.664032 12.204651 -28.362213 27.259857 -28.362213l0 0c7.229767 0 14.163391 2.9881592 19.275604 8.307098c5.112213 5.318939 7.9842224 12.5329895 7.9842224 20.055115l0 0c0 15.664001 -12.204651 28.362183 -27.259827 28.362183l0 0c-15.055206 0 -27.259857 -12.698181 -27.259857 -28.362183z" fill-rule="evenodd"/><path stroke="#4e8aeb" stroke-width="3.0" stroke-linejoin="round" stroke-linecap="butt" d="m329.0313 299.72278l0 0c0 -15.664032 12.204651 -28.362213 27.259857 -28.362213l0 0c7.229767 0 14.163391 2.9881592 19.275604 8.307098c5.112213 5.318939 7.9842224 12.5329895 7.9842224 20.055115l0 0c0 15.664001 -12.204651 28.362183 -27.259827 28.362183l0 0c-15.055206 0 -27.259857 -12.698181 -27.259857 -28.362183z" fill-rule="evenodd"/><path fill="#cfe2f3" d="m373.15176 308.5009l0 0c-3.8216858 8.244141 -12.474274 12.675964 -20.972717 10.742157c-8.498444 -1.9338074 -14.653778 -9.735168 -14.919708 -18.909454c-0.26593018 -9.174286 5.4260254 -17.358429 13.79657 -19.83731c8.370544 -2.4788513 17.263641 1.3860474 21.555664 9.368042l-8.601135 5.155365c-1.9510803 -4.07251 -6.150482 -6.1087646 -10.141632 -4.917572c-3.99115 1.1911621 -6.7253723 5.296814 -6.6032104 9.915161c0.12219238 4.618347 3.0686646 8.53598 7.1157837 9.461121c4.0471497 0.9251404 8.131561 -1.3852844 9.863953 -5.579712z" fill-rule="evenodd"/><path stroke="#4e8aeb" stroke-width="3.0" stroke-linejoin="round" stroke-linecap="butt" d="m373.15176 308.5009l0 0c-3.8216858 8.244141 -12.474274 12.675964 -20.972717 10.742157c-8.498444 -1.9338074 -14.653778 -9.735168 -14.919708 -18.909454c-0.26593018 -9.174286 5.4260254 -17.358429 13.79657 -19.83731c8.370544 -2.4788513 17.263641 1.3860474 21.555664 9.368042l-8.601135 5.155365c-1.9510803 -4.07251 -6.150482 -6.1087646 -10.141632 -4.917572c-3.99115 1.1911621 -6.7253723 5.296814 -6.6032104 9.915161c0.12219238 4.618347 3.0686646 8.53598 7.1157837 9.461121c4.0471497 0.9251404 8.131561 -1.3852844 9.863953 -5.579712z" fill-rule="evenodd"/><path fill="#000000" fill-opacity="0.0" d="m319.62076 331.13486l78.26773 0l0 25.700775l-78.26773 0z" fill-rule="evenodd"/><path fill="#000000" d="m333.386 349.63797l0 1.96875l3.40625 0l0 -0.734375q0 -0.46875 0.1875 -0.671875q0.1875 -0.21875 0.484375 -0.21875q0.296875 0 0.46875 0.21875q0.1875 0.203125 0.1875 0.671875l0 2.0625l-6.265625 0q-0.484375 0 -0.703125 -0.1875q-0.203125 -0.1875 -0.203125 -0.484375q0 -0.296875 0.203125 -0.46875q0.21875 -0.1875 0.703125 -0.1875l0.203125 0l0 -5.21875l-0.203125 0q-0.484375 0 -0.703125 -0.1875q-0.203125 -0.1875 -0.203125 -0.484375q0 -0.296875 0.203125 -0.484375q0.21875 -0.1875 0.703125 -0.1875l5.984375 0l0 2.03125q0 0.484375 -0.1875 0.6875q-0.1875 0.203125 -0.484375 0.203125q-0.296875 0 -0.484375 -0.203125q-0.1875 -0.203125 -0.1875 -0.6875l0 -0.6875l-3.109375 0l0 1.921875l1.171875 0q0 -0.515625 0.09375 -0.671875q0.203125 -0.3125 0.578125 -0.3125q0.296875 0 0.484375 0.203125q0.1875 0.203125 0.1875 0.6875l0 1.53125q0 0.4375 -0.109375 0.578125q-0.203125 0.3125 -0.5625 0.3125q-0.375 0 -0.578125 -0.3125q-0.09375 -0.15625 -0.09375 -0.6875l-1.171875 0zm7.716919 2.5625l0 2.1875l0.796875 0q0.484375 0 0.6875 0.1875q0.203125 0.1875 0.203125 0.484375q0 0.296875 -0.203125 0.46875q-0.203125 0.1875 -0.6875 0.1875l-2.359375 0q-0.484375 0 -0.6875 -0.1875q-0.203125 -0.171875 -0.203125 -0.46875q0 -0.296875 0.203125 -0.484375q0.21875 -0.1875 0.6875 -0.1875l0.234375 0l0 -6.03125l-0.234375 0q-0.484375 0 -0.6875 -0.1875q-0.203125 -0.1875 -0.203125 -0.484375q0 -0.28125 0.203125 -0.46875q0.203125 -0.1875 0.6875 -0.1875l1.5625 0l0 0.453125q0.46875 -0.3125 0.96875 -0.46875q0.5 -0.15625 1.03125 -0.15625q1.359375 0 2.328125 0.921875q0.96875 0.921875 0.96875 2.125q0 1.3125 -1.140625 2.171875q-0.953125 0.71875 -2.140625 0.71875q-0.515625 0 -1.015625 -0.140625q-0.5 -0.15625 -1.0 -0.453125zm3.953125 -2.296875q0 -0.28125 -0.21875 -0.703125q-0.21875 -0.4375 -0.6875 -0.71875q-0.453125 -0.296875 -1.0625 -0.296875q-1.0 0 -1.59375 0.75q-0.390625 0.515625 -0.390625 0.984375q0 0.53125 0.5625 1.046875q0.578125 0.5 1.421875 0.5q0.84375 0 1.40625 -0.5q0.5625 -0.5 0.5625 -1.0625zm6.1856995 -5.40625l0 1.40625l-1.59375 0l0 -1.40625l1.59375 0zm0.171875 2.53125l0 4.578125l1.609375 0q0.46875 0 0.671875 0.1875q0.21875 0.171875 0.21875 0.484375q0 0.28125 -0.21875 0.46875q-0.203125 0.1875 -0.671875 0.1875l-4.546875 0q-0.46875 0 -0.6875 -0.1875q-0.203125 -0.1875 -0.203125 -0.484375q0 -0.296875 0.203125 -0.46875q0.21875 -0.1875 0.6875 -0.1875l1.609375 0l0 -3.25l-1.078125 0q-0.46875 0 -0.6875 -0.1875q-0.203125 -0.1875 -0.203125 -0.484375q0 -0.28125 0.203125 -0.46875q0.203125 -0.1875 0.6875 -0.1875l2.40625 0zm8.779419 1.5625q-0.328125 -0.203125 -0.6875 -0.296875q-0.34375 -0.109375 -0.734375 -0.109375q-0.78125 0 -1.234375 0.25q-0.203125 0.109375 -0.203125 0.25q0 0.140625 0.265625 0.28125q0.21875 0.109375 0.9375 0.203125q1.328125 0.1875 1.84375 0.375q0.6875 0.234375 1.046875 0.71875q0.375 0.46875 0.375 1.0q0 0.703125 -0.625 1.1875q-0.90625 0.703125 -2.34375 0.703125q-0.578125 0 -1.078125 -0.109375q-0.484375 -0.09375 -0.890625 -0.296875q-0.109375 0.09375 -0.21875 0.140625q-0.109375 0.046875 -0.21875 0.046875q-0.3125 0 -0.5 -0.203125q-0.1875 -0.21875 -0.1875 -0.6875l0 -0.453125q0 -0.484375 0.1875 -0.6875q0.1875 -0.203125 0.484375 -0.203125q0.234375 0 0.390625 0.140625q0.171875 0.125 0.265625 0.453125q0.296875 0.25 0.71875 0.390625q0.4375 0.125 1.0 0.125q0.921875 0 1.421875 -0.28125q0.25 -0.140625 0.25 -0.296875q0 -0.265625 -0.34375 -0.4375q-0.34375 -0.15625 -1.421875 -0.28125q-1.609375 -0.171875 -2.15625 -0.65625q-0.53125 -0.46875 -0.53125 -1.171875q0 -0.703125 0.59375 -1.1875q0.828125 -0.640625 2.15625 -0.640625q0.453125 0 0.875 0.09375q0.4375 0.078125 0.828125 0.25q0.125 -0.078125 0.234375 -0.125q0.109375 -0.046875 0.1875 -0.046875q0.28125 0 0.453125 0.203125q0.1875 0.203125 0.1875 0.6875l0 0.328125q0 0.4375 -0.09375 0.59375q-0.21875 0.296875 -0.578125 0.296875q-0.234375 0 -0.421875 -0.140625q-0.171875 -0.15625 -0.234375 -0.40625zm10.029449 1.5q0 0.765625 -0.4375 1.484375q-0.421875 0.71875 -1.265625 1.15625q-0.84375 0.421875 -1.75 0.421875q-0.921875 0 -1.75 -0.421875q-0.828125 -0.421875 -1.265625 -1.140625q-0.4375 -0.71875 -0.4375 -1.515625q0 -0.796875 0.4375 -1.5625q0.4375 -0.78125 1.265625 -1.21875q0.84375 -0.4375 1.75 -0.4375q0.90625 0 1.75 0.453125q0.84375 0.4375 1.265625 1.203125q0.4375 0.765625 0.4375 1.578125zm-1.34375 0q0 -0.640625 -0.453125 -1.171875q-0.640625 -0.734375 -1.65625 -0.734375q-0.90625 0 -1.515625 0.578125q-0.609375 0.578125 -0.609375 1.34375q0 0.625 0.609375 1.171875q0.625 0.53125 1.515625 0.53125q0.890625 0 1.5 -0.53125q0.609375 -0.546875 0.609375 -1.1875zm8.935669 -5.59375l0 7.109375l0.21875 0q0.484375 0 0.6875 0.1875q0.21875 0.171875 0.21875 0.484375q0 0.28125 -0.21875 0.46875q-0.203125 0.1875 -0.6875 0.1875l-1.546875 0l0 -0.328125q-0.46875 0.265625 -0.96875 0.40625q-0.484375 0.140625 -1.03125 0.140625q-1.5 0 -2.421875 -0.859375q-0.90625 -0.875 -0.90625 -2.171875q0 -1.359375 0.953125 -2.3125q0.96875 -0.953125 2.359375 -0.953125q0.515625 0 1.015625 0.15625q0.5 0.15625 1.0 0.46875l0 -1.65625l-0.234375 0q-0.484375 0 -0.6875 -0.1875q-0.203125 -0.1875 -0.203125 -0.46875q0 -0.296875 0.203125 -0.484375q0.203125 -0.1875 0.6875 -0.1875l1.5625 0zm-1.328125 5.65625q0 -0.828125 -0.59375 -1.390625q-0.578125 -0.578125 -1.40625 -0.578125q-0.84375 0 -1.421875 0.578125q-0.578125 0.5625 -0.578125 1.375q0 0.734375 0.515625 1.203125q0.53125 0.46875 1.484375 0.46875q0.9375 0 1.46875 -0.46875q0.53125 -0.46875 0.53125 -1.1875zm9.607574 0.5l-5.46875 0q0.203125 0.53125 0.734375 0.84375q0.53125 0.3125 1.4375 0.3125q0.75 0 1.96875 -0.3125q0.515625 -0.125 0.703125 -0.125q0.265625 0 0.453125 0.1875q0.1875 0.1875 0.1875 0.46875q0 0.265625 -0.203125 0.4375q-0.265625 0.25 -1.28125 0.46875q-1.0 0.21875 -1.921875 0.21875q-1.609375 0 -2.578125 -0.90625q-0.953125 -0.90625 -0.953125 -2.234375q0 -1.40625 1.03125 -2.28125q1.046875 -0.875 2.40625 -0.875q0.8125 0 1.484375 0.28125q0.6875 0.28125 1.015625 0.609375q0.46875 0.484375 0.78125 1.203125q0.203125 0.484375 0.203125 1.140625l0 0.5625zm-1.46875 -1.328125q-0.3125 -0.578125 -0.8125 -0.859375q-0.484375 -0.28125 -1.171875 -0.28125q-0.671875 0 -1.171875 0.28125q-0.5 0.28125 -0.8125 0.859375l3.96875 0z" fill-rule="nonzero"/><path fill="#ebe3fd" d="m366.48932 307.23984l0 23.653534l21.937012 0l-10.753265 -11.611542l10.753265 -12.041992z" fill-rule="evenodd"/><path stroke="#8b6bda" stroke-width="3.0" stroke-linejoin="round" stroke-linecap="butt" d="m366.48932 307.23984l0 23.653534l21.937012 0l-10.753265 -11.611542l10.753265 -12.041992z" fill-rule="evenodd"/></g></svg>