<svg version="1.1" viewBox="0.0 0.0 497.0 316.0" fill="none" stroke="none" stroke-linecap="square" stroke-miterlimit="10" xmlns:xlink="http://www.w3.org/1999/xlink" xmlns="http://www.w3.org/2000/svg"><clipPath id="p.0"><path d="m0 0l497.0 0l0 316.0l-497.0 0l0 -316.0z" clip-rule="nonzero"/></clipPath><g clip-path="url(#p.0)"><path fill="#000000" fill-opacity="0.0" d="m0 0l497.0 0l0 316.0l-497.0 0z" fill-rule="evenodd"/><path fill="#000000" fill-opacity="0.0" d="m247.20042 135.01614l84.50395 0l0 35.559067l-84.50395 0z" fill-rule="evenodd"/><path stroke="#ffffff" stroke-width="3.0" stroke-linejoin="round" stroke-linecap="butt" d="m247.20042 135.01614l84.50395 0l0 35.559067l-84.50395 0z" fill-rule="evenodd"/><path fill="#ffffff" d="m267.50473 156.4724q-0.171875 0.21875 -0.28125 0.28125q-0.109375 0.046875 -0.265625 0.046875q-0.296875 0 -0.484375 -0.203125q-0.1875 -0.203125 -0.1875 -0.671875l0 -0.90625q0 -0.484375 0.1875 -0.6875q0.1875 -0.203125 0.484375 -0.203125q0.234375 0 0.390625 0.125q0.171875 0.125 0.25 0.421875q0.078125 0.28125 0.171875 0.390625q0.1875 0.1875 0.671875 0.40625q0.484375 0.203125 1.0625 0.203125q0.890625 0 1.453125 -0.421875q0.375 -0.25 0.375 -0.625q0 -0.234375 -0.1875 -0.453125q-0.171875 -0.21875 -0.5625 -0.359375q-0.265625 -0.109375 -1.171875 -0.28125q-1.09375 -0.1875 -1.65625 -0.46875q-0.546875 -0.296875 -0.875 -0.8125q-0.328125 -0.53125 -0.328125 -1.125q0 -0.96875 0.796875 -1.6875q0.796875 -0.71875 2.078125 -0.71875q0.515625 0 0.953125 0.125q0.453125 0.109375 0.8125 0.34375q0.25 -0.25 0.515625 -0.25q0.296875 0 0.46875 0.203125q0.1875 0.203125 0.1875 0.671875l0 1.0q0 0.484375 -0.1875 0.6875q-0.171875 0.203125 -0.46875 0.203125q-0.25 0 -0.4375 -0.140625q-0.140625 -0.109375 -0.21875 -0.4375q-0.0625 -0.34375 -0.171875 -0.484375q-0.1875 -0.25 -0.5625 -0.40625q-0.375 -0.171875 -0.875 -0.171875q-0.71875 0 -1.140625 0.34375q-0.421875 0.328125 -0.421875 0.6875q0 0.25 0.171875 0.484375q0.171875 0.21875 0.5 0.359375q0.21875 0.078125 1.25 0.28125q1.03125 0.203125 1.578125 0.453125q0.546875 0.234375 0.90625 0.75q0.375 0.515625 0.375 1.21875q0 1.0 -0.703125 1.59375q-0.921875 0.765625 -2.359375 0.765625q-0.546875 0 -1.078125 -0.140625q-0.515625 -0.125 -1.015625 -0.390625zm9.623169 -4.234375l0 2.671875q0 0.4375 0.171875 0.578125q0.28125 0.203125 0.984375 0.203125q1.015625 0 1.875 -0.4375q0.34375 -0.15625 0.53125 -0.15625q0.25 0 0.4375 0.203125q0.203125 0.1875 0.203125 0.46875q0 0.25 -0.203125 0.4375q-0.328125 0.3125 -1.265625 0.578125q-0.9375 0.25 -1.578125 0.25q-1.25 0 -1.875 -0.53125q-0.609375 -0.546875 -0.609375 -1.328125l0 -2.9375l-0.484375 0q-0.484375 0 -0.6875 -0.1875q-0.203125 -0.1875 -0.203125 -0.484375q0 -0.28125 0.203125 -0.46875q0.203125 -0.1875 0.6875 -0.1875l0.484375 0l0 -1.203125q0 -0.484375 0.171875 -0.6875q0.1875 -0.203125 0.484375 -0.203125q0.296875 0 0.484375 0.203125q0.1875 0.203125 0.1875 0.6875l0 1.203125l2.46875 0q0.484375 0 0.6875 0.1875q0.203125 0.1875 0.203125 0.484375q0 0.28125 -0.203125 0.46875q-0.203125 0.1875 -0.6875 0.1875l-2.46875 0zm8.045074 -1.328125l0 0.828125q0.84375 -0.609375 1.328125 -0.796875q0.484375 -0.203125 0.90625 -0.203125q0.65625 0 1.265625 0.46875q0.421875 0.328125 0.421875 0.671875q0 0.28125 -0.203125 0.484375q-0.203125 0.203125 -0.484375 0.203125q-0.25 0 -0.53125 -0.25q-0.265625 -0.25 -0.46875 -0.25q-0.28125 0 -0.84375 0.359375q-0.546875 0.34375 -1.390625 1.046875l0 2.015625l1.90625 0q0.484375 0 0.6875 0.1875q0.203125 0.171875 0.203125 0.484375q0 0.28125 -0.203125 0.46875q-0.203125 0.1875 -0.6875 0.1875l-4.03125 0q-0.484375 0 -0.6875 -0.1875q-0.203125 -0.1875 -0.203125 -0.484375q0 -0.296875 0.203125 -0.46875q0.203125 -0.1875 0.6875 -0.1875l0.796875 0l0 -3.25l-0.484375 0q-0.484375 0 -0.6875 -0.1875q-0.203125 -0.1875 -0.203125 -0.484375q0 -0.28125 0.203125 -0.46875q0.203125 -0.1875 0.6875 -0.1875l1.8125 0zm8.763794 -2.53125l0 1.40625l-1.59375 0l0 -1.40625l1.59375 0zm0.171875 2.53125l0 4.578125l1.609375 0q0.46875 0 0.671875 0.1875q0.21875 0.171875 0.21875 0.484375q0 0.28125 -0.21875 0.46875q-0.203125 0.1875 -0.671875 0.1875l-4.546875 0q-0.46875 0 -0.6875 -0.1875q-0.203125 -0.1875 -0.203125 -0.484375q0 -0.296875 0.203125 -0.46875q0.21875 -0.1875 0.6875 -0.1875l1.609375 0l0 -3.25l-1.078125 0q-0.46875 0 -0.6875 -0.1875q-0.203125 -0.1875 -0.203125 -0.484375q0 -0.28125 0.203125 -0.46875q0.203125 -0.1875 0.6875 -0.1875l2.40625 0zm5.9981995 0l0 0.453125q0.359375 -0.3125 0.796875 -0.46875q0.4375 -0.15625 0.953125 -0.15625q1.1875 0 1.875 0.734375q0.546875 0.578125 0.546875 1.53125l0 2.484375q0.421875 0 0.625 0.1875q0.203125 0.171875 0.203125 0.484375q0 0.28125 -0.203125 0.46875q-0.203125 0.1875 -0.6875 0.1875l-1.203125 0q-0.484375 0 -0.6875 -0.1875q-0.203125 -0.1875 -0.203125 -0.484375q0 -0.296875 0.1875 -0.46875q0.203125 -0.1875 0.640625 -0.1875l0 -2.53125q0 -0.421875 -0.234375 -0.625q-0.3125 -0.265625 -0.921875 -0.265625q-0.46875 0 -0.8125 0.1875q-0.34375 0.171875 -0.875 0.75l0 2.484375q0.5 0 0.65625 0.09375q0.3125 0.1875 0.3125 0.578125q0 0.28125 -0.203125 0.46875q-0.203125 0.1875 -0.6875 0.1875l-1.515625 0q-0.484375 0 -0.6875 -0.1875q-0.203125 -0.1875 -0.203125 -0.484375q0 -0.359375 0.3125 -0.5625q0.15625 -0.09375 0.671875 -0.09375l0 -3.25q-0.421875 0 -0.625 -0.1875q-0.203125 -0.1875 -0.203125 -0.484375q0 -0.28125 0.203125 -0.46875q0.203125 -0.1875 0.6875 -0.1875l1.28125 0zm10.810669 0.390625l0 -0.390625l1.5625 0q0.484375 0 0.6875 0.1875q0.203125 0.1875 0.203125 0.484375q0 0.28125 -0.203125 0.46875q-0.203125 0.1875 -0.6875 0.1875l-0.234375 0l0 4.859375q0 0.703125 -0.296875 1.21875q-0.296875 0.53125 -0.90625 0.90625q-0.609375 0.375 -1.375 0.375l-1.515625 0q-0.484375 0 -0.6875 -0.1875q-0.203125 -0.171875 -0.203125 -0.46875q0 -0.296875 0.203125 -0.484375q0.203125 -0.1875 0.6875 -0.1875l1.46875 0q0.625 0 0.953125 -0.34375q0.34375 -0.328125 0.34375 -0.828125l0 -0.65625q-0.4375 0.296875 -0.90625 0.4375q-0.453125 0.140625 -0.9375 0.140625q-1.359375 0 -2.28125 -0.90625q-0.921875 -0.90625 -0.921875 -2.25q0 -1.328125 0.921875 -2.234375q0.921875 -0.921875 2.28125 -0.921875q0.5 0 0.953125 0.15625q0.46875 0.140625 0.890625 0.4375zm-0.015625 2.5625q0 -0.734375 -0.546875 -1.265625q-0.53125 -0.546875 -1.296875 -0.546875q-0.765625 0 -1.3125 0.546875q-0.53125 0.53125 -0.53125 1.265625q0 0.734375 0.53125 1.28125q0.546875 0.53125 1.3125 0.53125q0.765625 0 1.296875 -0.53125q0.546875 -0.546875 0.546875 -1.28125z" fill-rule="nonzero"/><path fill="#000000" fill-opacity="0.0" d="m30.287043 241.81215l84.50394 0l0 35.559067l-84.50394 0z" fill-rule="evenodd"/><path stroke="#ffffff" stroke-width="3.0" stroke-linejoin="round" stroke-linecap="butt" d="m30.287043 241.81215l84.50394 0l0 35.559067l-84.50394 0z" fill-rule="evenodd"/><path fill="#ffffff" d="m47.982864 257.06528l0 5.21875l2.875 0l0 -1.265625q0 -0.484375 0.1875 -0.6875q0.1875 -0.203125 0.484375 -0.203125q0.296875 0 0.484375 0.203125q0.1875 0.203125 0.1875 0.6875l0 2.59375l-6.328125 0q-0.46875 0 -0.6875 -0.1875q-0.203125 -0.1875 -0.203125 -0.484375q0 -0.296875 0.203125 -0.46875q0.21875 -0.1875 0.6875 -0.1875l0.78125 0l0 -5.21875l-0.78125 0q-0.46875 0 -0.6875 -0.1875q-0.203125 -0.1875 -0.203125 -0.484375q0 -0.296875 0.203125 -0.484375q0.21875 -0.1875 0.6875 -0.1875l2.890625 0q0.484375 0 0.6875 0.1875q0.203125 0.1875 0.203125 0.484375q0 0.296875 -0.203125 0.484375q-0.203125 0.1875 -0.6875 0.1875l-0.78125 0zm9.045059 -1.890625l0 1.40625l-1.59375 0l0 -1.40625l1.59375 0zm0.171875 2.53125l0 4.578125l1.609375 0q0.46875 0 0.671875 0.1875q0.21875 0.171875 0.21875 0.484375q0 0.28125 -0.21875 0.46875q-0.203125 0.1875 -0.671875 0.1875l-4.546875 0q-0.46875 0 -0.6875 -0.1875q-0.203125 -0.1875 -0.203125 -0.484375q0 -0.296875 0.203125 -0.46875q0.21875 -0.1875 0.6875 -0.1875l1.609375 0l0 -3.25l-1.078125 0q-0.46875 0 -0.6875 -0.1875q-0.203125 -0.1875 -0.203125 -0.484375q0 -0.28125 0.203125 -0.46875q0.203125 -0.1875 0.6875 -0.1875l2.40625 0zm8.779434 1.5625q-0.328125 -0.203125 -0.6875 -0.296875q-0.34375 -0.109375 -0.734375 -0.109375q-0.78125 0 -1.234375 0.25q-0.203125 0.109375 -0.203125 0.25q0 0.140625 0.265625 0.28125q0.21875 0.109375 0.9375 0.203125q1.328125 0.1875 1.84375 0.375q0.6875 0.234375 1.046875 0.71875q0.375 0.46875 0.375 1.0q0 0.703125 -0.625 1.1875q-0.90625 0.703125 -2.34375 0.703125q-0.578125 0 -1.078125 -0.109375q-0.484375 -0.09375 -0.890625 -0.296875q-0.109375 0.09375 -0.21875 0.140625q-0.109375 0.046875 -0.21875 0.046875q-0.3125 0 -0.5 -0.203125q-0.1875 -0.21875 -0.1875 -0.6875l0 -0.453125q0 -0.484375 0.1875 -0.6875q0.1875 -0.203125 0.484375 -0.203125q0.234375 0 0.390625 0.140625q0.171875 0.125 0.265625 0.453125q0.296875 0.25 0.71875 0.390625q0.4375 0.125 1.0 0.125q0.921875 0 1.421875 -0.28125q0.25 -0.140625 0.25 -0.296875q0 -0.265625 -0.34375 -0.4375q-0.34375 -0.15625 -1.421875 -0.28125q-1.609375 -0.171875 -2.15625 -0.65625q-0.53125 -0.46875 -0.53125 -1.171875q0 -0.703125 0.59375 -1.1875q0.828125 -0.640625 2.15625 -0.640625q0.453125 0 0.875 0.09375q0.4375 0.078125 0.828125 0.25q0.125 -0.078125 0.234375 -0.125q0.109375 -0.046875 0.1875 -0.046875q0.28125 0 0.453125 0.203125q0.1875 0.203125 0.1875 0.6875l0 0.328125q0 0.4375 -0.09375 0.59375q-0.21875 0.296875 -0.578125 0.296875q-0.234375 0 -0.421875 -0.140625q-0.171875 -0.15625 -0.234375 -0.40625zm6.232559 -0.234375l0 2.671875q0 0.4375 0.171875 0.578125q0.28125 0.203125 0.984375 0.203125q1.015625 0 1.875 -0.4375q0.34375 -0.15625 0.53125 -0.15625q0.25 0 0.4375 0.203125q0.203125 0.1875 0.203125 0.46875q0 0.25 -0.203125 0.4375q-0.328125 0.3125 -1.265625 0.578125q-0.9375 0.25 -1.578125 0.25q-1.25 0 -1.875 -0.53125q-0.609375 -0.546875 -0.609375 -1.328125l0 -2.9375l-0.484375 0q-0.484375 0 -0.6875 -0.1875q-0.203125 -0.1875 -0.203125 -0.484375q0 -0.28125 0.203125 -0.46875q0.203125 -0.1875 0.6875 -0.1875l0.484375 0l0 -1.203125q0 -0.484375 0.171875 -0.6875q0.1875 -0.203125 0.484375 -0.203125q0.296875 0 0.484375 0.203125q0.1875 0.203125 0.1875 0.6875l0 1.203125l2.46875 0q0.484375 0 0.6875 0.1875q0.203125 0.1875 0.203125 0.484375q0 0.28125 -0.203125 0.46875q-0.203125 0.1875 -0.6875 0.1875l-2.46875 0zm6.935684 0.78125l4.3125 2.390625q0.328125 0.1875 0.4375 0.328125q0.109375 0.140625 0.109375 0.359375q0 0.28125 -0.203125 0.484375q-0.203125 0.203125 -0.46875 0.203125q-0.171875 0 -0.53125 -0.1875l-6.4375 -3.578125l6.4375 -3.578125q0.359375 -0.1875 0.515625 -0.1875q0.28125 0 0.484375 0.203125q0.203125 0.1875 0.203125 0.46875q0 0.21875 -0.109375 0.375q-0.109375 0.140625 -0.4375 0.3125l-4.3125 2.40625zm8.295059 -1.25l-1.15625 -0.375q-0.40625 -0.125 -0.515625 -0.28125q-0.15625 -0.1875 -0.15625 -0.421875q0 -0.265625 0.1875 -0.46875q0.203125 -0.203125 0.4375 -0.203125q0.15625 0 0.46875 0.109375l1.140625 0.375l0 -1.21875q0 -0.484375 0.1875 -0.6875q0.1875 -0.203125 0.484375 -0.203125q0.296875 0 0.484375 0.203125q0.1875 0.203125 0.1875 0.6875l0 1.21875l1.15625 -0.375q0.3125 -0.109375 0.453125 -0.109375q0.25 0 0.4375 0.203125q0.1875 0.1875 0.1875 0.46875q0 0.234375 -0.140625 0.40625q-0.125 0.15625 -0.53125 0.296875l-1.15625 0.375l0.71875 0.984375q0.265625 0.359375 0.265625 0.5625q0 0.28125 -0.203125 0.484375q-0.1875 0.1875 -0.46875 0.1875q-0.203125 0 -0.34375 -0.078125q-0.125 -0.09375 -0.328125 -0.375l-0.71875 -0.984375l-0.703125 0.984375q-0.203125 0.28125 -0.34375 0.375q-0.140625 0.078125 -0.328125 0.078125q-0.28125 0 -0.484375 -0.1875q-0.1875 -0.203125 -0.1875 -0.484375q0 -0.203125 0.25 -0.5625l0.71875 -0.984375zm10.498184 1.25l-4.3125 -2.40625q-0.328125 -0.171875 -0.4375 -0.3125q-0.109375 -0.15625 -0.109375 -0.375q0 -0.28125 0.203125 -0.46875q0.203125 -0.203125 0.46875 -0.203125q0.171875 0 0.53125 0.1875l6.4375 3.578125l-6.4375 3.578125q-0.359375 0.1875 -0.53125 0.1875q-0.265625 0 -0.46875 -0.1875q-0.203125 -0.203125 -0.203125 -0.5q0 -0.21875 0.109375 -0.359375q0.109375 -0.140625 0.4375 -0.328125l4.3125 -2.390625z" fill-rule="nonzero"/><path fill="#000000" fill-opacity="0.0" d="m72.53901 241.81215l0.40944672 -41.984253" fill-rule="evenodd"/><path stroke="#ffffff" stroke-width="3.0" stroke-linejoin="round" stroke-linecap="butt" d="m72.53901 241.81215l0.24478912 -25.10022" fill-rule="evenodd"/><path stroke="#ffffff" stroke-width="3.0" stroke-linecap="butt" d="m72.7838 216.71193l5.065201 -7.0857697l-4.9260406 -7.1832123l-5.065201 7.0857697z" fill-rule="evenodd"/><path fill="#000000" fill-opacity="0.0" d="m72.94751 218.09467l73.60629 0l0 15.118118l-73.60629 0z" fill-rule="evenodd"/><path fill="#ffffff" d="m80.539474 224.0078q-0.234375 -0.140625 -0.484375 -0.203125q-0.25 -0.078125 -0.515625 -0.078125q-0.546875 0 -0.875 0.1875q-0.140625 0.078125 -0.140625 0.15625q0 0.109375 0.203125 0.203125q0.140625 0.078125 0.640625 0.15625q0.9375 0.125 1.296875 0.25q0.484375 0.171875 0.734375 0.5q0.265625 0.328125 0.265625 0.703125q0 0.5 -0.4375 0.828125q-0.640625 0.5 -1.65625 0.5q-0.390625 0 -0.734375 -0.078125q-0.34375 -0.0625 -0.640625 -0.203125q-0.0625 0.0625 -0.140625 0.09375q-0.078125 0.03125 -0.15625 0.03125q-0.21875 0 -0.359375 -0.140625q-0.125 -0.15625 -0.125 -0.484375l0 -0.3125q0 -0.34375 0.125 -0.484375q0.140625 -0.140625 0.34375 -0.140625q0.171875 0 0.28125 0.09375q0.109375 0.09375 0.171875 0.3125q0.21875 0.1875 0.515625 0.28125q0.3125 0.09375 0.703125 0.09375q0.640625 0 1.0 -0.203125q0.15625 -0.09375 0.15625 -0.203125q0 -0.1875 -0.234375 -0.3125q-0.25 -0.109375 -1.0 -0.1875q-1.125 -0.125 -1.5 -0.46875q-0.375 -0.328125 -0.375 -0.8125q0 -0.5 0.421875 -0.828125q0.578125 -0.46875 1.5 -0.46875q0.328125 0 0.625 0.0625q0.296875 0.0625 0.5625 0.1875q0.09375 -0.0625 0.171875 -0.09375q0.078125 -0.03125 0.140625 -0.03125q0.1875 0 0.3125 0.15625q0.125 0.140625 0.125 0.46875l0 0.234375q0 0.296875 -0.0625 0.40625q-0.15625 0.21875 -0.40625 0.21875q-0.171875 0 -0.296875 -0.109375q-0.125 -0.109375 -0.15625 -0.28125zm6.9259186 1.453125l-3.828125 0q0.140625 0.359375 0.515625 0.59375q0.375 0.21875 1.0 0.21875q0.53125 0 1.390625 -0.21875q0.34375 -0.09375 0.484375 -0.09375q0.1875 0 0.3125 0.140625q0.125 0.125 0.125 0.3125q0 0.1875 -0.125 0.3125q-0.1875 0.171875 -0.890625 0.328125q-0.703125 0.15625 -1.359375 0.15625q-1.125 0 -1.796875 -0.625q-0.671875 -0.640625 -0.671875 -1.578125q0 -0.984375 0.71875 -1.59375q0.734375 -0.625 1.6875 -0.625q0.5625 0 1.03125 0.203125q0.484375 0.203125 0.71875 0.4375q0.328125 0.34375 0.546875 0.828125q0.140625 0.34375 0.140625 0.8125l0 0.390625zm-1.03125 -0.9375q-0.21875 -0.390625 -0.5625 -0.59375q-0.34375 -0.203125 -0.828125 -0.203125q-0.46875 0 -0.8125 0.203125q-0.34375 0.203125 -0.5625 0.59375l2.765625 0zm5.1290436 2.53125l0 -0.21875q-0.359375 0.1875 -0.78125 0.28125q-0.421875 0.09375 -0.765625 0.09375q-0.75 0 -1.21875 -0.390625q-0.46875 -0.40625 -0.46875 -0.890625q0 -0.59375 0.59375 -1.09375q0.609375 -0.5 1.65625 -0.5q0.421875 0 0.984375 0.09375l0 -0.21875q0 -0.21875 -0.1875 -0.34375q-0.171875 -0.140625 -0.671875 -0.140625q-0.421875 0 -1.078125 0.171875q-0.25 0.046875 -0.390625 0.046875q-0.1875 0 -0.3125 -0.125q-0.125 -0.140625 -0.125 -0.34375q0 -0.125 0.046875 -0.203125q0.046875 -0.09375 0.125 -0.140625q0.078125 -0.046875 0.34375 -0.125q0.34375 -0.09375 0.703125 -0.15625q0.359375 -0.0625 0.640625 -0.0625q0.875 0 1.359375 0.390625q0.484375 0.375 0.484375 1.015625l0 1.921875l0.15625 0q0.328125 0 0.46875 0.140625q0.15625 0.125 0.15625 0.328125q0 0.203125 -0.15625 0.34375q-0.140625 0.125 -0.46875 0.125l-1.09375 0zm0 -1.671875q-0.5625 -0.109375 -1.03125 -0.109375q-0.578125 0 -0.984375 0.28125q-0.25 0.171875 -0.25 0.359375q0 0.125 0.125 0.21875q0.21875 0.140625 0.625 0.140625q0.328125 0 0.75 -0.125q0.4375 -0.140625 0.765625 -0.359375l0 -0.40625zm5.7696686 -1.375q-0.234375 -0.140625 -0.484375 -0.203125q-0.25 -0.078125 -0.515625 -0.078125q-0.546875 0 -0.875 0.1875q-0.140625 0.078125 -0.140625 0.15625q0 0.109375 0.203125 0.203125q0.140625 0.078125 0.640625 0.15625q0.9375 0.125 1.296875 0.25q0.484375 0.171875 0.734375 0.5q0.265625 0.328125 0.265625 0.703125q0 0.5 -0.4375 0.828125q-0.640625 0.5 -1.65625 0.5q-0.390625 0 -0.734375 -0.078125q-0.34375 -0.0625 -0.640625 -0.203125q-0.0625 0.0625 -0.140625 0.09375q-0.078125 0.03125 -0.15625 0.03125q-0.21875 0 -0.359375 -0.140625q-0.125 -0.15625 -0.125 -0.484375l0 -0.3125q0 -0.34375 0.125 -0.484375q0.140625 -0.140625 0.34375 -0.140625q0.171875 0 0.28125 0.09375q0.109375 0.09375 0.171875 0.3125q0.21875 0.1875 0.515625 0.28125q0.3125 0.09375 0.703125 0.09375q0.640625 0 1.0 -0.203125q0.15625 -0.09375 0.15625 -0.203125q0 -0.1875 -0.234375 -0.3125q-0.25 -0.109375 -1.0 -0.1875q-1.125 -0.125 -1.5 -0.46875q-0.375 -0.328125 -0.375 -0.8125q0 -0.5 0.421875 -0.828125q0.578125 -0.46875 1.5 -0.46875q0.328125 0 0.625 0.0625q0.296875 0.0625 0.5625 0.1875q0.09375 -0.0625 0.171875 -0.09375q0.078125 -0.03125 0.140625 -0.03125q0.1875 0 0.3125 0.15625q0.125 0.140625 0.125 0.46875l0 0.234375q0 0.296875 -0.0625 0.40625q-0.15625 0.21875 -0.40625 0.21875q-0.171875 0 -0.296875 -0.109375q-0.125 -0.109375 -0.15625 -0.28125zm7.0040436 1.0625q0 0.53125 -0.296875 1.03125q-0.296875 0.5 -0.890625 0.8125q-0.578125 0.296875 -1.21875 0.296875q-0.640625 0 -1.234375 -0.296875q-0.578125 -0.296875 -0.890625 -0.796875q-0.296875 -0.515625 -0.296875 -1.0625q0 -0.5625 0.3125 -1.09375q0.3125 -0.546875 0.890625 -0.859375q0.578125 -0.3125 1.21875 -0.3125q0.625 0 1.21875 0.328125q0.59375 0.3125 0.890625 0.84375q0.296875 0.53125 0.296875 1.109375zm-0.921875 0q0 -0.453125 -0.328125 -0.828125q-0.4375 -0.515625 -1.15625 -0.515625q-0.640625 0 -1.0625 0.40625q-0.421875 0.40625 -0.421875 0.9375q0 0.4375 0.421875 0.828125q0.4375 0.375 1.0625 0.375q0.625 0 1.046875 -0.375q0.4375 -0.390625 0.4375 -0.828125zm3.1602936 -2.15625l0 0.3125q0.25 -0.21875 0.546875 -0.328125q0.3125 -0.109375 0.671875 -0.109375q0.828125 0 1.3125 0.515625q0.390625 0.421875 0.390625 1.078125l0 1.734375q0.296875 0 0.4375 0.140625q0.140625 0.125 0.140625 0.328125q0 0.203125 -0.15625 0.34375q-0.140625 0.125 -0.46875 0.125l-0.84375 0q-0.34375 0 -0.484375 -0.125q-0.140625 -0.140625 -0.140625 -0.34375q0 -0.203125 0.140625 -0.328125q0.140625 -0.140625 0.4375 -0.140625l0 -1.765625q0 -0.296875 -0.15625 -0.4375q-0.21875 -0.1875 -0.65625 -0.1875q-0.3125 0 -0.5625 0.125q-0.234375 0.125 -0.609375 0.53125l0 1.734375q0.359375 0 0.453125 0.078125q0.234375 0.125 0.234375 0.390625q0 0.203125 -0.15625 0.34375q-0.140625 0.125 -0.46875 0.125l-1.0625 0q-0.34375 0 -0.484375 -0.125q-0.140625 -0.140625 -0.140625 -0.34375q0 -0.25 0.21875 -0.390625q0.109375 -0.078125 0.46875 -0.078125l0 -2.265625q-0.296875 0 -0.4375 -0.125q-0.140625 -0.140625 -0.140625 -0.34375q0 -0.203125 0.140625 -0.328125q0.140625 -0.140625 0.484375 -0.140625l0.890625 0zm6.9884186 -0.453125l0 3.65625l0.625 0q0.34375 0 0.484375 0.140625q0.140625 0.125 0.140625 0.328125q0 0.203125 -0.140625 0.34375q-0.140625 0.125 -0.484375 0.125l-2.1875 0q-0.328125 0 -0.46875 -0.125q-0.140625 -0.140625 -0.140625 -0.34375q0 -0.203125 0.140625 -0.328125q0.140625 -0.140625 0.46875 -0.140625l0.625 0l0 -3.65625l-1.0 0l0 0.890625q0 0.34375 -0.140625 0.484375q-0.125 0.140625 -0.328125 0.140625q-0.203125 0 -0.34375 -0.140625q-0.125 -0.140625 -0.125 -0.484375l0 -1.828125l4.828125 0.015625l0 1.8125q0 0.34375 -0.125 0.484375q-0.125 0.140625 -0.34375 0.140625q-0.203125 0 -0.328125 -0.140625q-0.125 -0.140625 -0.125 -0.484375l0 -0.890625l-1.03125 0zm5.4884186 -1.3125l0 0.984375l-1.125 0l0 -0.984375l1.125 0zm0.125 1.765625l0 3.203125l1.109375 0q0.34375 0 0.484375 0.140625q0.140625 0.125 0.140625 0.328125q0 0.203125 -0.140625 0.34375q-0.140625 0.125 -0.484375 0.125l-3.171875 0q-0.328125 0 -0.484375 -0.125q-0.140625 -0.140625 -0.140625 -0.34375q0 -0.203125 0.140625 -0.328125q0.15625 -0.140625 0.484375 -0.140625l1.125 0l0 -2.265625l-0.75 0q-0.328125 0 -0.484375 -0.125q-0.140625 -0.140625 -0.140625 -0.34375q0 -0.203125 0.140625 -0.328125q0.140625 -0.140625 0.484375 -0.140625l1.6875 0zm4.8946686 0.9375l0 1.875q0 0.296875 0.125 0.390625q0.203125 0.15625 0.6875 0.15625q0.71875 0 1.328125 -0.3125q0.21875 -0.109375 0.359375 -0.109375q0.1875 0 0.3125 0.140625q0.140625 0.125 0.140625 0.328125q0 0.171875 -0.15625 0.3125q-0.21875 0.21875 -0.875 0.40625q-0.65625 0.171875 -1.109375 0.171875q-0.875 0 -1.3125 -0.375q-0.421875 -0.375 -0.421875 -0.921875l0 -2.0625l-0.34375 0q-0.328125 0 -0.484375 -0.125q-0.140625 -0.140625 -0.140625 -0.34375q0 -0.203125 0.140625 -0.328125q0.15625 -0.140625 0.484375 -0.140625l0.34375 0l0 -0.84375q0 -0.328125 0.125 -0.46875q0.125 -0.15625 0.34375 -0.15625q0.203125 0 0.328125 0.15625q0.125 0.140625 0.125 0.46875l0 0.84375l1.734375 0q0.328125 0 0.46875 0.140625q0.15625 0.125 0.15625 0.328125q0 0.203125 -0.15625 0.34375q-0.140625 0.125 -0.46875 0.125l-1.734375 0zm6.3009186 -2.703125l0 4.96875l1.125 0q0.328125 0 0.46875 0.140625q0.15625 0.125 0.15625 0.328125q0 0.203125 -0.15625 0.34375q-0.140625 0.125 -0.46875 0.125l-3.171875 0q-0.34375 0 -0.484375 -0.125q-0.140625 -0.140625 -0.140625 -0.34375q0 -0.203125 0.140625 -0.328125q0.140625 -0.140625 0.484375 -0.140625l1.109375 0l0 -4.03125l-0.75 0q-0.328125 0 -0.484375 -0.125q-0.140625 -0.140625 -0.140625 -0.34375q0 -0.203125 0.140625 -0.328125q0.15625 -0.140625 0.484375 -0.140625l1.6875 0zm7.4727936 4.3125l-3.828125 0q0.140625 0.359375 0.515625 0.59375q0.375 0.21875 1.0 0.21875q0.53125 0 1.390625 -0.21875q0.34375 -0.09375 0.484375 -0.09375q0.1875 0 0.3125 0.140625q0.125 0.125 0.125 0.3125q0 0.1875 -0.125 0.3125q-0.1875 0.171875 -0.890625 0.328125q-0.703125 0.15625 -1.359375 0.15625q-1.125 0 -1.796875 -0.625q-0.671875 -0.640625 -0.671875 -1.578125q0 -0.984375 0.71875 -1.59375q0.734375 -0.625 1.6875 -0.625q0.5625 0 1.03125 0.203125q0.484375 0.203125 0.71875 0.4375q0.328125 0.34375 0.546875 0.828125q0.140625 0.34375 0.140625 0.8125l0 0.390625zm-1.03125 -0.9375q-0.21875 -0.390625 -0.5625 -0.59375q-0.34375 -0.203125 -0.828125 -0.203125q-0.46875 0 -0.8125 0.203125q-0.34375 0.203125 -0.5625 0.59375l2.765625 0zm5.3009186 -0.515625q-0.234375 -0.140625 -0.484375 -0.203125q-0.25 -0.078125 -0.515625 -0.078125q-0.546875 0 -0.875 0.1875q-0.140625 0.078125 -0.140625 0.15625q0 0.109375 0.203125 0.203125q0.140625 0.078125 0.640625 0.15625q0.9375 0.125 1.296875 0.25q0.484375 0.171875 0.734375 0.5q0.265625 0.328125 0.265625 0.703125q0 0.5 -0.4375 0.828125q-0.640625 0.5 -1.65625 0.5q-0.390625 0 -0.734375 -0.078125q-0.34375 -0.0625 -0.640625 -0.203125q-0.0625 0.0625 -0.140625 0.09375q-0.078125 0.03125 -0.15625 0.03125q-0.21875 0 -0.359375 -0.140625q-0.125 -0.15625 -0.125 -0.484375l0 -0.3125q0 -0.34375 0.125 -0.484375q0.140625 -0.140625 0.34375 -0.140625q0.171875 0 0.28125 0.09375q0.109375 0.09375 0.171875 0.3125q0.21875 0.1875 0.515625 0.28125q0.3125 0.09375 0.703125 0.09375q0.640625 0 1.0 -0.203125q0.15625 -0.09375 0.15625 -0.203125q0 -0.1875 -0.234375 -0.3125q-0.25 -0.109375 -1.0 -0.1875q-1.125 -0.125 -1.5 -0.46875q-0.375 -0.328125 -0.375 -0.8125q0 -0.5 0.421875 -0.828125q0.578125 -0.46875 1.5 -0.46875q0.328125 0 0.625 0.0625q0.296875 0.0625 0.5625 0.1875q0.09375 -0.0625 0.171875 -0.09375q0.078125 -0.03125 0.140625 -0.03125q0.1875 0 0.3125 0.15625q0.125 0.140625 0.125 0.46875l0 0.234375q0 0.296875 -0.0625 0.40625q-0.15625 0.21875 -0.40625 0.21875q-0.171875 0 -0.296875 -0.109375q-0.125 -0.109375 -0.15625 -0.28125z" fill-rule="nonzero"/><path fill="#000000" fill-opacity="0.0" d="m119.00525 127.61436l31.02362 0l0 15.118111l-31.02362 0z" fill-rule="evenodd"/><path fill="#ffffff" d="m124.64409 132.43373l0 0.3125q0.25 -0.21875 0.546875 -0.328125q0.3125 -0.109375 0.671875 -0.109375q0.828125 0 1.3125 0.515625q0.390625 0.421875 0.390625 1.078125l0 1.734375q0.296875 0 0.4375 0.140625q0.140625 0.125 0.140625 0.328125q0 0.203125 -0.15625 0.34375q-0.140625 0.125 -0.46875 0.125l-0.84375 0q-0.34375 0 -0.484375 -0.125q-0.140625 -0.140625 -0.140625 -0.34375q0 -0.203125 0.140625 -0.328125q0.140625 -0.140625 0.4375 -0.140625l0 -1.765625q0 -0.296875 -0.15625 -0.4375q-0.21875 -0.1875 -0.65625 -0.1875q-0.3125 0 -0.5625 0.125q-0.234375 0.125 -0.609375 0.53125l0 1.734375q0.359375 0 0.453125 0.078125q0.234375 0.125 0.234375 0.390625q0 0.203125 -0.15625 0.34375q-0.140625 0.125 -0.46875 0.125l-1.0625 0q-0.34375 0 -0.484375 -0.125q-0.140625 -0.140625 -0.140625 -0.34375q0 -0.25 0.21875 -0.390625q0.109375 -0.078125 0.46875 -0.078125l0 -2.265625q-0.296875 0 -0.4375 -0.125q-0.140625 -0.140625 -0.140625 -0.34375q0 -0.203125 0.140625 -0.328125q0.140625 -0.140625 0.484375 -0.140625l0.890625 0zm7.3790436 4.140625l0 -0.21875q-0.359375 0.1875 -0.78125 0.28125q-0.421875 0.09375 -0.765625 0.09375q-0.75 0 -1.21875 -0.390625q-0.46875 -0.40625 -0.46875 -0.890625q0 -0.59375 0.59375 -1.09375q0.609375 -0.5 1.65625 -0.5q0.421875 0 0.984375 0.09375l0 -0.21875q0 -0.21875 -0.1875 -0.34375q-0.171875 -0.140625 -0.671875 -0.140625q-0.421875 0 -1.078125 0.171875q-0.25 0.046875 -0.390625 0.046875q-0.1875 0 -0.3125 -0.125q-0.125 -0.140625 -0.125 -0.34375q0 -0.125 0.046875 -0.203125q0.046875 -0.09375 0.125 -0.140625q0.078125 -0.046875 0.34375 -0.125q0.34375 -0.09375 0.703125 -0.15625q0.359375 -0.0625 0.640625 -0.0625q0.875 0 1.359375 0.390625q0.484375 0.375 0.484375 1.015625l0 1.921875l0.15625 0q0.328125 0 0.46875 0.140625q0.15625 0.125 0.15625 0.328125q0 0.203125 -0.15625 0.34375q-0.140625 0.125 -0.46875 0.125l-1.09375 0zm0 -1.671875q-0.5625 -0.109375 -1.03125 -0.109375q-0.578125 0 -0.984375 0.28125q-0.25 0.171875 -0.25 0.359375q0 0.125 0.125 0.21875q0.21875 0.140625 0.625 0.140625q0.328125 0 0.75 -0.125q0.4375 -0.140625 0.765625 -0.359375l0 -0.40625zm3.3165436 -2.46875l0 0.265625q0.21875 -0.21875 0.40625 -0.296875q0.1875 -0.09375 0.4375 -0.09375q0.203125 0 0.390625 0.109375q0.203125 0.09375 0.40625 0.296875q0.234375 -0.203125 0.484375 -0.296875q0.25 -0.109375 0.5 -0.109375q0.53125 0 0.84375 0.28125q0.4375 0.375 0.4375 0.953125l0 2.09375q0.28125 0 0.421875 0.140625q0.140625 0.125 0.140625 0.328125q0 0.203125 -0.140625 0.34375q-0.140625 0.125 -0.46875 0.125l-0.890625 0l0 -2.953125q0 -0.203125 -0.078125 -0.28125q-0.078125 -0.09375 -0.234375 -0.09375q-0.15625 0 -0.296875 0.078125q-0.15625 0.125 -0.40625 0.4375l0 1.875q0.296875 0 0.4375 0.140625q0.140625 0.125 0.140625 0.328125q0 0.203125 -0.140625 0.34375q-0.140625 0.125 -0.484375 0.125l-0.890625 0l0 -2.953125q0 -0.203125 -0.078125 -0.28125q-0.078125 -0.09375 -0.234375 -0.09375q-0.15625 0 -0.328125 0.109375q-0.15625 0.09375 -0.375 0.40625l0 1.875q0.296875 0 0.4375 0.140625q0.140625 0.125 0.140625 0.328125q0 0.203125 -0.140625 0.34375q-0.140625 0.125 -0.484375 0.125l-0.84375 0q-0.34375 0 -0.484375 -0.125q-0.140625 -0.140625 -0.140625 -0.34375q0 -0.203125 0.140625 -0.328125q0.140625 -0.140625 0.4375 -0.140625l0 -2.265625q-0.296875 0 -0.4375 -0.125q-0.140625 -0.140625 -0.140625 -0.34375q0 -0.203125 0.140625 -0.328125q0.140625 -0.140625 0.484375 -0.140625l0.890625 0zm9.379044 2.546875l-3.828125 0q0.140625 0.359375 0.515625 0.59375q0.375 0.21875 1.0 0.21875q0.53125 0 1.390625 -0.21875q0.34375 -0.09375 0.484375 -0.09375q0.1875 0 0.3125 0.140625q0.125 0.125 0.125 0.3125q0 0.1875 -0.125 0.3125q-0.1875 0.171875 -0.890625 0.328125q-0.703125 0.15625 -1.359375 0.15625q-1.125 0 -1.796875 -0.625q-0.671875 -0.640625 -0.671875 -1.578125q0 -0.984375 0.71875 -1.59375q0.734375 -0.625 1.6875 -0.625q0.5625 0 1.03125 0.203125q0.484375 0.203125 0.71875 0.4375q0.328125 0.34375 0.546875 0.828125q0.140625 0.34375 0.140625 0.8125l0 0.390625zm-1.03125 -0.9375q-0.21875 -0.390625 -0.5625 -0.59375q-0.34375 -0.203125 -0.828125 -0.203125q-0.46875 0 -0.8125 0.203125q-0.34375 0.203125 -0.5625 0.59375l2.765625 0z" fill-rule="nonzero"/><path fill="#000000" fill-opacity="0.0" d="m206.024 36.10517l31.02362 0l0 15.118111l-31.02362 0z" fill-rule="evenodd"/><path fill="#ffffff" d="m211.66284 40.924545l0 0.3125q0.25 -0.21875 0.546875 -0.328125q0.3125 -0.109375 0.671875 -0.109375q0.828125 0 1.3125 0.515625q0.390625 0.421875 0.390625 1.078125l0 1.734375q0.296875 0 0.4375 0.140625q0.140625 0.125 0.140625 0.328125q0 0.203125 -0.15625 0.34375q-0.140625 0.125 -0.46875 0.125l-0.84375 0q-0.34375 0 -0.484375 -0.125q-0.140625 -0.140625 -0.140625 -0.34375q0 -0.203125 0.140625 -0.328125q0.140625 -0.140625 0.4375 -0.140625l0 -1.765625q0 -0.296875 -0.15625 -0.4375q-0.21875 -0.1875 -0.65625 -0.1875q-0.3125 0 -0.5625 0.125q-0.234375 0.125 -0.609375 0.53125l0 1.734375q0.359375 0 0.453125 0.078125q0.234375 0.125 0.234375 0.390625q0 0.203125 -0.15625 0.34375q-0.140625 0.125 -0.46875 0.125l-1.0625 0q-0.34375 0 -0.484375 -0.125q-0.140625 -0.140625 -0.140625 -0.34375q0 -0.25 0.21875 -0.390625q0.109375 -0.078125 0.46875 -0.078125l0 -2.265625q-0.296875 0 -0.4375 -0.125q-0.140625 -0.140625 -0.140625 -0.34375q0 -0.203125 0.140625 -0.328125q0.140625 -0.140625 0.484375 -0.140625l0.890625 0zm7.3790436 4.140625l0 -0.21875q-0.359375 0.1875 -0.78125 0.28125q-0.421875 0.09375 -0.765625 0.09375q-0.75 0 -1.21875 -0.390625q-0.46875 -0.40625 -0.46875 -0.890625q0 -0.59375 0.59375 -1.09375q0.609375 -0.5 1.65625 -0.5q0.421875 0 0.984375 0.09375l0 -0.21875q0 -0.21875 -0.1875 -0.34375q-0.171875 -0.140625 -0.671875 -0.140625q-0.421875 0 -1.078125 0.171875q-0.25 0.046875 -0.390625 0.046875q-0.1875 0 -0.3125 -0.125q-0.125 -0.140625 -0.125 -0.34375q0 -0.125 0.046875 -0.203125q0.046875 -0.09375 0.125 -0.140625q0.078125 -0.046875 0.34375 -0.125q0.34375 -0.09375 0.703125 -0.15625q0.359375 -0.0625 0.640625 -0.0625q0.875 0 1.359375 0.390625q0.484375 0.375 0.484375 1.015625l0 1.921875l0.15625 0q0.328125 0 0.46875 0.140625q0.15625 0.125 0.15625 0.328125q0 0.203125 -0.15625 0.34375q-0.140625 0.125 -0.46875 0.125l-1.09375 0zm0 -1.671875q-0.5625 -0.109375 -1.03125 -0.109375q-0.578125 0 -0.984375 0.28125q-0.25 0.171875 -0.25 0.359375q0 0.125 0.125 0.21875q0.21875 0.140625 0.625 0.140625q0.328125 0 0.75 -0.125q0.4375 -0.140625 0.765625 -0.359375l0 -0.40625zm3.3165436 -2.46875l0 0.265625q0.21875 -0.21875 0.40625 -0.296875q0.1875 -0.09375 0.4375 -0.09375q0.203125 0 0.390625 0.109375q0.203125 0.09375 0.40625 0.296875q0.234375 -0.203125 0.484375 -0.296875q0.25 -0.109375 0.5 -0.109375q0.53125 0 0.84375 0.28125q0.4375 0.375 0.4375 0.953125l0 2.09375q0.28125 0 0.421875 0.140625q0.140625 0.125 0.140625 0.328125q0 0.203125 -0.140625 0.34375q-0.140625 0.125 -0.46875 0.125l-0.890625 0l0 -2.953125q0 -0.203125 -0.078125 -0.28125q-0.078125 -0.09375 -0.234375 -0.09375q-0.15625 0 -0.296875 0.078125q-0.15625 0.125 -0.40625 0.4375l0 1.875q0.296875 0 0.4375 0.140625q0.140625 0.125 0.140625 0.328125q0 0.203125 -0.140625 0.34375q-0.140625 0.125 -0.484375 0.125l-0.890625 0l0 -2.953125q0 -0.203125 -0.078125 -0.28125q-0.078125 -0.09375 -0.234375 -0.09375q-0.15625 0 -0.328125 0.109375q-0.15625 0.09375 -0.375 0.40625l0 1.875q0.296875 0 0.4375 0.140625q0.140625 0.125 0.140625 0.328125q0 0.203125 -0.140625 0.34375q-0.140625 0.125 -0.484375 0.125l-0.84375 0q-0.34375 0 -0.484375 -0.125q-0.140625 -0.140625 -0.140625 -0.34375q0 -0.203125 0.140625 -0.328125q0.140625 -0.140625 0.4375 -0.140625l0 -2.265625q-0.296875 0 -0.4375 -0.125q-0.140625 -0.140625 -0.140625 -0.34375q0 -0.203125 0.140625 -0.328125q0.140625 -0.140625 0.484375 -0.140625l0.890625 0zm9.379044 2.546875l-3.828125 0q0.140625 0.359375 0.515625 0.59375q0.375 0.21875 1.0 0.21875q0.53125 0 1.390625 -0.21875q0.34375 -0.09375 0.484375 -0.09375q0.1875 0 0.3125 0.140625q0.125 0.125 0.125 0.3125q0 0.1875 -0.125 0.3125q-0.1875 0.171875 -0.890625 0.328125q-0.703125 0.15625 -1.359375 0.15625q-1.125 0 -1.796875 -0.625q-0.671875 -0.640625 -0.671875 -1.578125q0 -0.984375 0.71875 -1.59375q0.734375 -0.625 1.6875 -0.625q0.5625 0 1.03125 0.203125q0.484375 0.203125 0.71875 0.4375q0.328125 0.34375 0.546875 0.828125q0.140625 0.34375 0.140625 0.8125l0 0.390625zm-1.03125 -0.9375q-0.21875 -0.390625 -0.5625 -0.59375q-0.34375 -0.203125 -0.828125 -0.203125q-0.46875 0 -0.8125 0.203125q-0.34375 0.203125 -0.5625 0.59375l2.765625 0z" fill-rule="nonzero"/><path fill="#000000" fill-opacity="0.0" d="m215.00523 15.837455l23.874023 0l0 15.11811l-23.874023 0z" fill-rule="evenodd"/><path fill="#ffffff" d="m223.56595 20.65683l0 3.203125q0.296875 0 0.4375 0.140625q0.140625 0.125 0.140625 0.328125q0 0.203125 -0.140625 0.34375q-0.140625 0.125 -0.484375 0.125l-0.890625 0l0 -0.21875q-0.390625 0.1875 -0.765625 0.28125q-0.359375 0.09375 -0.6875 0.09375q-0.453125 0 -0.796875 -0.1875q-0.34375 -0.203125 -0.53125 -0.546875q-0.140625 -0.25 -0.140625 -0.609375l0 -2.015625l-0.15625 0q-0.34375 0 -0.484375 -0.125q-0.140625 -0.140625 -0.140625 -0.34375q0 -0.203125 0.140625 -0.328125q0.140625 -0.140625 0.484375 -0.140625l1.09375 0l0 2.78125q0 0.296875 0.140625 0.4375q0.140625 0.140625 0.4375 0.140625q0.28125 0 0.609375 -0.109375q0.328125 -0.109375 0.796875 -0.40625l0 -1.90625l-0.328125 0q-0.34375 0 -0.484375 -0.125q-0.140625 -0.140625 -0.140625 -0.34375q0 -0.203125 0.140625 -0.328125q0.140625 -0.140625 0.484375 -0.140625l1.265625 0zm3.4259186 0l0 0.59375q0.578125 -0.421875 0.921875 -0.5625q0.34375 -0.15625 0.640625 -0.15625q0.453125 0 0.875 0.34375q0.296875 0.234375 0.296875 0.46875q0 0.203125 -0.140625 0.34375q-0.140625 0.125 -0.328125 0.125q-0.171875 0 -0.375 -0.171875q-0.1875 -0.171875 -0.34375 -0.171875q-0.1875 0 -0.578125 0.25q-0.390625 0.25 -0.96875 0.734375l0 1.40625l1.328125 0q0.328125 0 0.46875 0.140625q0.15625 0.125 0.15625 0.328125q0 0.203125 -0.15625 0.34375q-0.140625 0.125 -0.46875 0.125l-2.828125 0q-0.328125 0 -0.484375 -0.125q-0.140625 -0.140625 -0.140625 -0.34375q0 -0.203125 0.140625 -0.328125q0.15625 -0.140625 0.484375 -0.140625l0.5625 0l0 -2.265625l-0.34375 0q-0.328125 0 -0.484375 -0.125q-0.140625 -0.140625 -0.140625 -0.34375q0 -0.203125 0.140625 -0.328125q0.15625 -0.140625 0.484375 -0.140625l1.28125 0zm6.2540436 -1.765625l0 4.96875l1.125 0q0.328125 0 0.46875 0.140625q0.15625 0.125 0.15625 0.328125q0 0.203125 -0.15625 0.34375q-0.140625 0.125 -0.46875 0.125l-3.171875 0q-0.34375 0 -0.484375 -0.125q-0.140625 -0.140625 -0.140625 -0.34375q0 -0.203125 0.140625 -0.328125q0.140625 -0.140625 0.484375 -0.140625l1.109375 0l0 -4.03125l-0.75 0q-0.328125 0 -0.484375 -0.125q-0.140625 -0.140625 -0.140625 -0.34375q0 -0.203125 0.140625 -0.328125q0.15625 -0.140625 0.484375 -0.140625l1.6875 0z" fill-rule="nonzero"/><path fill="#000000" fill-opacity="0.0" d="m424.39633 161.45688l46.677155 0l0 15.118103l-46.677155 0z" fill-rule="evenodd"/><path fill="#ffffff" d="m430.9727 167.21375l0 2.265625l1.328125 0q0.328125 0 0.46875 0.140625q0.15625 0.125 0.15625 0.328125q0 0.203125 -0.15625 0.34375q-0.140625 0.125 -0.46875 0.125l-2.828125 0q-0.328125 0 -0.484375 -0.125q-0.140625 -0.140625 -0.140625 -0.34375q0 -0.203125 0.140625 -0.328125q0.15625 -0.140625 0.484375 -0.140625l0.5625 0l0 -2.265625l-0.453125 0q-0.328125 0 -0.484375 -0.125q-0.140625 -0.140625 -0.140625 -0.34375q0 -0.203125 0.140625 -0.328125q0.15625 -0.140625 0.484375 -0.140625l0.453125 0l0 -0.34375q0 -0.609375 0.453125 -1.015625q0.46875 -0.40625 1.328125 -0.40625q0.390625 0 0.890625 0.078125q0.515625 0.0625 0.65625 0.1875q0.140625 0.125 0.140625 0.328125q0 0.21875 -0.125 0.359375q-0.125 0.125 -0.3125 0.125q-0.078125 0 -0.265625 -0.03125q-0.578125 -0.109375 -1.015625 -0.109375q-0.46875 0 -0.640625 0.140625q-0.171875 0.125 -0.171875 0.34375l0 0.34375l1.4375 0q0.328125 0 0.46875 0.140625q0.15625 0.125 0.15625 0.328125q0 0.203125 -0.15625 0.34375q-0.140625 0.125 -0.46875 0.125l-1.4375 0zm7.5821533 -0.9375l0 3.203125q0.296875 0 0.4375 0.140625q0.140625 0.125 0.140625 0.328125q0 0.203125 -0.140625 0.34375q-0.140625 0.125 -0.484375 0.125l-0.890625 0l0 -0.21875q-0.390625 0.1875 -0.765625 0.28125q-0.359375 0.09375 -0.6875 0.09375q-0.453125 0 -0.796875 -0.1875q-0.34375 -0.203125 -0.53125 -0.546875q-0.140625 -0.25 -0.140625 -0.609375l0 -2.015625l-0.15625 0q-0.34375 0 -0.484375 -0.125q-0.140625 -0.140625 -0.140625 -0.34375q0 -0.203125 0.140625 -0.328125q0.140625 -0.140625 0.484375 -0.140625l1.09375 0l0 2.78125q0 0.296875 0.140625 0.4375q0.140625 0.140625 0.4375 0.140625q0.28125 0 0.609375 -0.109375q0.328125 -0.109375 0.796875 -0.40625l0 -1.90625l-0.328125 0q-0.34375 0 -0.484375 -0.125q-0.140625 -0.140625 -0.140625 -0.34375q0 -0.203125 0.140625 -0.328125q0.140625 -0.140625 0.484375 -0.140625l1.265625 0zm4.082184 -1.765625l0 4.96875l1.125 0q0.328125 0 0.46875 0.140625q0.15625 0.125 0.15625 0.328125q0 0.203125 -0.15625 0.34375q-0.140625 0.125 -0.46875 0.125l-3.171875 0q-0.34375 0 -0.484375 -0.125q-0.140625 -0.140625 -0.140625 -0.34375q0 -0.203125 0.140625 -0.328125q0.140625 -0.140625 0.484375 -0.140625l1.109375 0l0 -4.03125l-0.75 0q-0.328125 0 -0.484375 -0.125q-0.140625 -0.140625 -0.140625 -0.34375q0 -0.203125 0.140625 -0.328125q0.15625 -0.140625 0.484375 -0.140625l1.6875 0zm5.5977783 0l0 4.96875l1.125 0q0.328125 0 0.46875 0.140625q0.15625 0.125 0.15625 0.328125q0 0.203125 -0.15625 0.34375q-0.140625 0.125 -0.46875 0.125l-3.171875 0q-0.34375 0 -0.484375 -0.125q-0.140625 -0.140625 -0.140625 -0.34375q0 -0.203125 0.140625 -0.328125q0.140625 -0.140625 0.484375 -0.140625l1.109375 0l0 -4.03125l-0.75 0q-0.328125 0 -0.484375 -0.125q-0.140625 -0.140625 -0.140625 -0.34375q0 -0.203125 0.140625 -0.328125q0.15625 -0.140625 0.484375 -0.140625l1.6875 0zm7.269684 1.3125l0 2.65625q0 0.859375 -0.625 1.46875q-0.625 0.609375 -1.5 0.609375q-0.4375 0 -0.8125 -0.15625q-0.375 -0.15625 -0.6875 -0.453125q-0.296875 -0.296875 -0.46875 -0.609375q-0.171875 -0.328125 -0.171875 -0.859375l0 -2.65625q-0.296875 0 -0.4375 -0.125q-0.140625 -0.125 -0.140625 -0.34375q0 -0.203125 0.140625 -0.328125q0.140625 -0.125 0.484375 -0.125l1.234375 -0.015625q0.328125 0 0.46875 0.140625q0.15625 0.125 0.15625 0.328125q0 0.21875 -0.15625 0.34375q-0.140625 0.125 -0.46875 0.125l-0.34375 0l0 2.734375q0 0.421875 0.34375 0.75q0.359375 0.3125 0.84375 0.3125q0.328125 0 0.609375 -0.15625q0.296875 -0.15625 0.484375 -0.453125q0.109375 -0.1875 0.109375 -0.453125l0 -2.734375l-0.34375 0q-0.328125 0 -0.484375 -0.125q-0.140625 -0.125 -0.140625 -0.34375q0 -0.203125 0.140625 -0.328125q0.15625 -0.140625 0.484375 -0.140625l1.234375 0.015625q0.328125 0 0.46875 0.125q0.15625 0.125 0.15625 0.328125q0 0.21875 -0.140625 0.34375q-0.140625 0.125 -0.4375 0.125zm2.4884033 2.484375l0 1.171875l0.34375 0q0.34375 0 0.484375 0.140625q0.140625 0.125 0.140625 0.328125q0 0.203125 -0.140625 0.34375q-0.140625 0.125 -0.484375 0.125l-1.421875 0q-0.328125 0 -0.484375 -0.125q-0.140625 -0.140625 -0.140625 -0.34375q0 -0.203125 0.140625 -0.328125q0.15625 -0.140625 0.484375 -0.140625l0.15625 0l0 -3.65625l-0.15625 0q-0.328125 0 -0.484375 -0.125q-0.140625 -0.125 -0.140625 -0.34375q0 -0.203125 0.140625 -0.328125q0.15625 -0.140625 0.484375 -0.140625l2.125 0.015625q0.984375 0 1.53125 0.484375q0.546875 0.484375 0.546875 1.1875q0 0.4375 -0.265625 0.796875q-0.25 0.359375 -0.765625 0.640625q0.296875 0.25 0.640625 0.65625q0.203125 0.265625 0.5625 0.8125q0.34375 0 0.46875 0.078125q0.203125 0.140625 0.203125 0.390625q0 0.203125 -0.140625 0.34375q-0.140625 0.125 -0.484375 0.125l-0.53125 0q-1.140625 -1.75 -1.875 -2.109375l-0.9375 0zm0 -0.9375l0.734375 0q0.40625 0 0.71875 -0.125q0.4375 -0.15625 0.578125 -0.328125q0.15625 -0.1875 0.15625 -0.375q0 -0.265625 -0.28125 -0.484375q-0.28125 -0.234375 -0.828125 -0.234375l-1.078125 0l0 1.546875zm6.175934 -1.546875l0 3.65625l2.015625 0l0 -0.875q0 -0.34375 0.125 -0.484375q0.140625 -0.140625 0.34375 -0.140625q0.203125 0 0.328125 0.140625q0.140625 0.140625 0.140625 0.484375l0 1.8125l-4.421875 0q-0.34375 0 -0.484375 -0.125q-0.140625 -0.140625 -0.140625 -0.34375q0 -0.203125 0.140625 -0.328125q0.140625 -0.140625 0.484375 -0.140625l0.53125 0l0 -3.65625l-0.53125 0q-0.34375 0 -0.484375 -0.125q-0.140625 -0.125 -0.140625 -0.34375q0 -0.203125 0.140625 -0.328125q0.140625 -0.140625 0.484375 -0.140625l2.015625 0.015625q0.34375 0 0.484375 0.125q0.140625 0.125 0.140625 0.328125q0 0.21875 -0.140625 0.34375q-0.140625 0.125 -0.484375 0.125l-0.546875 0z" fill-rule="nonzero"/><path fill="#000000" fill-opacity="0.0" d="m358.2861 170.1364l46.677155 0l0 15.118103l-46.677155 0z" fill-rule="evenodd"/><path fill="#ffffff" d="m369.23767 178.58076l0 1.53125l0.5625 0q0.328125 0 0.46875 0.125q0.15625 0.140625 0.15625 0.34375q0 0.203125 -0.15625 0.328125q-0.140625 0.140625 -0.46875 0.140625l-1.65625 0q-0.34375 0 -0.484375 -0.140625q-0.140625 -0.125 -0.140625 -0.328125q0 -0.203125 0.140625 -0.34375q0.15625 -0.125 0.484375 -0.125l0.15625 0l0 -4.21875l-0.15625 0q-0.34375 0 -0.484375 -0.125q-0.140625 -0.140625 -0.140625 -0.34375q0 -0.203125 0.140625 -0.328125q0.140625 -0.140625 0.484375 -0.140625l1.09375 0l0 0.328125q0.328125 -0.234375 0.671875 -0.34375q0.359375 -0.109375 0.71875 -0.109375q0.96875 0 1.640625 0.65625q0.671875 0.65625 0.671875 1.484375q0 0.921875 -0.796875 1.53125q-0.671875 0.5 -1.5 0.5q-0.359375 0 -0.71875 -0.109375q-0.34375 -0.109375 -0.6875 -0.3125zm2.765625 -1.609375q0 -0.1875 -0.15625 -0.484375q-0.15625 -0.3125 -0.484375 -0.515625q-0.3125 -0.203125 -0.734375 -0.203125q-0.703125 0 -1.109375 0.53125q-0.28125 0.359375 -0.28125 0.6875q0 0.375 0.390625 0.734375q0.40625 0.34375 1.0 0.34375q0.578125 0 0.96875 -0.34375q0.40625 -0.359375 0.40625 -0.75zm3.8009033 -2.015625l0 0.59375q0.578125 -0.421875 0.921875 -0.5625q0.34375 -0.15625 0.640625 -0.15625q0.453125 0 0.875 0.34375q0.296875 0.234375 0.296875 0.46875q0 0.203125 -0.140625 0.34375q-0.140625 0.125 -0.328125 0.125q-0.171875 0 -0.375 -0.171875q-0.1875 -0.171875 -0.34375 -0.171875q-0.1875 0 -0.578125 0.25q-0.390625 0.25 -0.96875 0.734375l0 1.40625l1.328125 0q0.328125 0 0.46875 0.140625q0.15625 0.125 0.15625 0.328125q0 0.203125 -0.15625 0.34375q-0.140625 0.125 -0.46875 0.125l-2.828125 0q-0.328125 0 -0.484375 -0.125q-0.140625 -0.140625 -0.140625 -0.34375q0 -0.203125 0.140625 -0.328125q0.15625 -0.140625 0.484375 -0.140625l0.5625 0l0 -2.265625l-0.34375 0q-0.328125 0 -0.484375 -0.125q-0.140625 -0.140625 -0.140625 -0.34375q0 -0.203125 0.140625 -0.328125q0.15625 -0.140625 0.484375 -0.140625l1.28125 0zm8.129059 2.546875l-3.828125 0q0.140625 0.359375 0.515625 0.59375q0.375 0.21875 1.0 0.21875q0.53125 0 1.390625 -0.21875q0.34375 -0.09375 0.484375 -0.09375q0.1875 0 0.3125 0.140625q0.125 0.125 0.125 0.3125q0 0.1875 -0.125 0.3125q-0.1875 0.171875 -0.890625 0.328125q-0.703125 0.15625 -1.359375 0.15625q-1.125 0 -1.796875 -0.625q-0.671875 -0.640625 -0.671875 -1.578125q0 -0.984375 0.71875 -1.59375q0.734375 -0.625 1.6875 -0.625q0.5625 0 1.03125 0.203125q0.484375 0.203125 0.71875 0.4375q0.328125 0.34375 0.546875 0.828125q0.140625 0.34375 0.140625 0.8125l0 0.390625zm-1.03125 -0.9375q-0.21875 -0.390625 -0.5625 -0.59375q-0.34375 -0.203125 -0.828125 -0.203125q-0.46875 0 -0.8125 0.203125q-0.34375 0.203125 -0.5625 0.59375l2.765625 0zm4.2852783 -0.671875l0 2.265625l1.328125 0q0.328125 0 0.46875 0.140625q0.15625 0.125 0.15625 0.328125q0 0.203125 -0.15625 0.34375q-0.140625 0.125 -0.46875 0.125l-2.828125 0q-0.328125 0 -0.484375 -0.125q-0.140625 -0.140625 -0.140625 -0.34375q0 -0.203125 0.140625 -0.328125q0.15625 -0.140625 0.484375 -0.140625l0.5625 0l0 -2.265625l-0.453125 0q-0.328125 0 -0.484375 -0.125q-0.140625 -0.140625 -0.140625 -0.34375q0 -0.203125 0.140625 -0.328125q0.15625 -0.140625 0.484375 -0.140625l0.453125 0l0 -0.34375q0 -0.609375 0.453125 -1.015625q0.46875 -0.40625 1.328125 -0.40625q0.390625 0 0.890625 0.078125q0.515625 0.0625 0.65625 0.1875q0.140625 0.125 0.140625 0.328125q0 0.21875 -0.125 0.359375q-0.125 0.125 -0.3125 0.125q-0.078125 0 -0.265625 -0.03125q-0.578125 -0.109375 -1.015625 -0.109375q-0.46875 0 -0.640625 0.140625q-0.171875 0.125 -0.171875 0.34375l0 0.34375l1.4375 0q0.328125 0 0.46875 0.140625q0.15625 0.125 0.15625 0.328125q0 0.203125 -0.15625 0.34375q-0.140625 0.125 -0.46875 0.125l-1.4375 0zm5.941559 -2.703125l0 0.984375l-1.125 0l0 -0.984375l1.125 0zm0.125 1.765625l0 3.203125l1.109375 0q0.34375 0 0.484375 0.140625q0.140625 0.125 0.140625 0.328125q0 0.203125 -0.140625 0.34375q-0.140625 0.125 -0.484375 0.125l-3.171875 0q-0.328125 0 -0.484375 -0.125q-0.140625 -0.140625 -0.140625 -0.34375q0 -0.203125 0.140625 -0.328125q0.15625 -0.140625 0.484375 -0.140625l1.125 0l0 -2.265625l-0.75 0q-0.328125 0 -0.484375 -0.125q-0.140625 -0.140625 -0.140625 -0.34375q0 -0.203125 0.140625 -0.328125q0.140625 -0.140625 0.484375 -0.140625l1.6875 0zm5.8321533 1.984375l1.421875 1.21875q0.25 0.015625 0.375 0.15625q0.125 0.125 0.125 0.3125q0 0.203125 -0.140625 0.34375q-0.140625 0.125 -0.484375 0.125l-1.0625 0q-0.328125 0 -0.484375 -0.125q-0.140625 -0.140625 -0.140625 -0.34375q0 -0.171875 0.109375 -0.296875q0.109375 -0.125 0.28125 -0.171875l-0.703125 -0.59375l-0.703125 0.59375q0.21875 0.0625 0.296875 0.171875q0.09375 0.109375 0.09375 0.296875q0 0.203125 -0.140625 0.34375q-0.140625 0.125 -0.46875 0.125l-1.0625 0q-0.328125 0 -0.46875 -0.125q-0.140625 -0.140625 -0.140625 -0.34375q0 -0.1875 0.125 -0.3125q0.125 -0.140625 0.375 -0.15625l1.390625 -1.21875l-1.234375 -1.046875q-0.234375 -0.015625 -0.359375 -0.140625q-0.125 -0.140625 -0.125 -0.328125q0 -0.203125 0.140625 -0.328125q0.140625 -0.140625 0.484375 -0.140625l0.875 0q0.328125 0 0.46875 0.140625q0.15625 0.125 0.15625 0.328125q0 0.265625 -0.265625 0.4375l0.578125 0.46875l0.546875 -0.484375q-0.25 -0.171875 -0.25 -0.40625q0 -0.21875 0.140625 -0.34375q0.140625 -0.140625 0.484375 -0.140625l0.859375 0q0.34375 0 0.484375 0.140625q0.140625 0.125 0.140625 0.328125q0 0.1875 -0.125 0.328125q-0.125 0.125 -0.359375 0.140625l-1.234375 1.046875z" fill-rule="nonzero"/><path fill="#000000" fill-opacity="0.0" d="m331.8609 207.37785l46.677155 0l0 15.118118l-46.677155 0z" fill-rule="evenodd"/><path fill="#ffffff" d="m362.74646 212.19724l0 3.203125q0.296875 0 0.4375 0.140625q0.140625 0.125 0.140625 0.328125q0 0.203125 -0.140625 0.34375q-0.140625 0.125 -0.484375 0.125l-0.890625 0l0 -0.21875q-0.390625 0.1875 -0.765625 0.28125q-0.359375 0.09375 -0.6875 0.09375q-0.453125 0 -0.796875 -0.1875q-0.34375 -0.203125 -0.53125 -0.546875q-0.140625 -0.25 -0.140625 -0.609375l0 -2.015625l-0.15625 0q-0.34375 0 -0.484375 -0.125q-0.140625 -0.140625 -0.140625 -0.34375q0 -0.203125 0.140625 -0.328125q0.140625 -0.140625 0.484375 -0.140625l1.09375 0l0 2.78125q0 0.296875 0.140625 0.4375q0.140625 0.140625 0.4375 0.140625q0.28125 0 0.609375 -0.109375q0.328125 -0.109375 0.796875 -0.40625l0 -1.90625l-0.328125 0q-0.34375 0 -0.484375 -0.125q-0.140625 -0.140625 -0.140625 -0.34375q0 -0.203125 0.140625 -0.328125q0.140625 -0.140625 0.484375 -0.140625l1.265625 0zm3.4259338 0l0 0.59375q0.578125 -0.421875 0.921875 -0.5625q0.34375 -0.15625 0.640625 -0.15625q0.453125 0 0.875 0.34375q0.296875 0.234375 0.296875 0.46875q0 0.203125 -0.140625 0.34375q-0.140625 0.125 -0.328125 0.125q-0.171875 0 -0.375 -0.171875q-0.1875 -0.171875 -0.34375 -0.171875q-0.1875 0 -0.578125 0.25q-0.390625 0.25 -0.96875 0.734375l0 1.40625l1.328125 0q0.328125 0 0.46875 0.140625q0.15625 0.125 0.15625 0.328125q0 0.203125 -0.15625 0.34375q-0.140625 0.125 -0.46875 0.125l-2.828125 0q-0.328125 0 -0.484375 -0.125q-0.140625 -0.140625 -0.140625 -0.34375q0 -0.203125 0.140625 -0.328125q0.15625 -0.140625 0.484375 -0.140625l0.5625 0l0 -2.265625l-0.34375 0q-0.328125 0 -0.484375 -0.125q-0.140625 -0.140625 -0.140625 -0.34375q0 -0.203125 0.140625 -0.328125q0.15625 -0.140625 0.484375 -0.140625l1.28125 0zm6.254059 -1.765625l0 4.96875l1.125 0q0.328125 0 0.46875 0.140625q0.15625 0.125 0.15625 0.328125q0 0.203125 -0.15625 0.34375q-0.140625 0.125 -0.46875 0.125l-3.171875 0q-0.34375 0 -0.484375 -0.125q-0.140625 -0.140625 -0.140625 -0.34375q0 -0.203125 0.140625 -0.328125q0.140625 -0.140625 0.484375 -0.140625l1.109375 0l0 -4.03125l-0.75 0q-0.328125 0 -0.484375 -0.125q-0.140625 -0.140625 -0.140625 -0.34375q0 -0.203125 0.140625 -0.328125q0.15625 -0.140625 0.484375 -0.140625l1.6875 0z" fill-rule="nonzero"/><path fill="#000000" fill-opacity="0.0" d="m393.08923 297.06055l31.02362 0l0 15.118103l-31.02362 0z" fill-rule="evenodd"/><path fill="#ffffff" d="m399.58286 305.5049l0 1.53125l0.5625 0q0.328125 0 0.46875 0.125q0.15625 0.140625 0.15625 0.34375q0 0.203125 -0.15625 0.328125q-0.140625 0.140625 -0.46875 0.140625l-1.65625 0q-0.34375 0 -0.484375 -0.140625q-0.140625 -0.125 -0.140625 -0.328125q0 -0.203125 0.140625 -0.34375q0.15625 -0.125 0.484375 -0.125l0.15625 0l0 -4.21875l-0.15625 0q-0.34375 0 -0.484375 -0.125q-0.140625 -0.140625 -0.140625 -0.34375q0 -0.203125 0.140625 -0.328125q0.140625 -0.140625 0.484375 -0.140625l1.09375 0l0 0.328125q0.328125 -0.234375 0.671875 -0.34375q0.359375 -0.109375 0.71875 -0.109375q0.96875 0 1.640625 0.65625q0.671875 0.65625 0.671875 1.484375q0 0.921875 -0.796875 1.53125q-0.671875 0.5 -1.5 0.5q-0.359375 0 -0.71875 -0.109375q-0.34375 -0.109375 -0.6875 -0.3125zm2.765625 -1.609375q0 -0.1875 -0.15625 -0.484375q-0.15625 -0.3125 -0.484375 -0.515625q-0.3125 -0.203125 -0.734375 -0.203125q-0.703125 0 -1.109375 0.53125q-0.28125 0.359375 -0.28125 0.6875q0 0.375 0.390625 0.734375q0.40625 0.34375 1.0 0.34375q0.578125 0 0.96875 -0.34375q0.40625 -0.359375 0.40625 -0.75zm6.4102783 0.140625q0 0.53125 -0.296875 1.03125q-0.296875 0.5 -0.890625 0.8125q-0.578125 0.296875 -1.21875 0.296875q-0.640625 0 -1.234375 -0.296875q-0.578125 -0.296875 -0.890625 -0.796875q-0.296875 -0.515625 -0.296875 -1.0625q0 -0.5625 0.3125 -1.09375q0.3125 -0.546875 0.890625 -0.859375q0.578125 -0.3125 1.21875 -0.3125q0.625 0 1.21875 0.328125q0.59375 0.3125 0.890625 0.84375q0.296875 0.53125 0.296875 1.109375zm-0.921875 0q0 -0.453125 -0.328125 -0.828125q-0.4375 -0.515625 -1.15625 -0.515625q-0.640625 0 -1.0625 0.40625q-0.421875 0.40625 -0.421875 0.9375q0 0.4375 0.421875 0.828125q0.4375 0.375 1.0625 0.375q0.625 0 1.046875 -0.375q0.4375 -0.390625 0.4375 -0.828125zm3.9103088 -2.15625l0 0.59375q0.578125 -0.421875 0.921875 -0.5625q0.34375 -0.15625 0.640625 -0.15625q0.453125 0 0.875 0.34375q0.296875 0.234375 0.296875 0.46875q0 0.203125 -0.140625 0.34375q-0.140625 0.125 -0.328125 0.125q-0.171875 0 -0.375 -0.171875q-0.1875 -0.171875 -0.34375 -0.171875q-0.1875 0 -0.578125 0.25q-0.390625 0.25 -0.96875 0.734375l0 1.40625l1.328125 0q0.328125 0 0.46875 0.140625q0.15625 0.125 0.15625 0.328125q0 0.203125 -0.15625 0.34375q-0.140625 0.125 -0.46875 0.125l-2.828125 0q-0.328125 0 -0.484375 -0.125q-0.140625 -0.140625 -0.140625 -0.34375q0 -0.203125 0.140625 -0.328125q0.15625 -0.140625 0.484375 -0.140625l0.5625 0l0 -2.265625l-0.34375 0q-0.328125 0 -0.484375 -0.125q-0.140625 -0.140625 -0.140625 -0.34375q0 -0.203125 0.140625 -0.328125q0.15625 -0.140625 0.484375 -0.140625l1.28125 0zm5.5509033 0.9375l0 1.875q0 0.296875 0.125 0.390625q0.203125 0.15625 0.6875 0.15625q0.71875 0 1.328125 -0.3125q0.21875 -0.109375 0.359375 -0.109375q0.1875 0 0.3125 0.140625q0.140625 0.125 0.140625 0.328125q0 0.171875 -0.15625 0.3125q-0.21875 0.21875 -0.875 0.40625q-0.65625 0.171875 -1.109375 0.171875q-0.875 0 -1.3125 -0.375q-0.421875 -0.375 -0.421875 -0.921875l0 -2.0625l-0.34375 0q-0.328125 0 -0.484375 -0.125q-0.140625 -0.140625 -0.140625 -0.34375q0 -0.203125 0.140625 -0.328125q0.15625 -0.140625 0.484375 -0.140625l0.34375 0l0 -0.84375q0 -0.328125 0.125 -0.46875q0.125 -0.15625 0.34375 -0.15625q0.203125 0 0.328125 0.15625q0.125 0.140625 0.125 0.46875l0 0.84375l1.734375 0q0.328125 0 0.46875 0.140625q0.15625 0.125 0.15625 0.328125q0 0.203125 -0.15625 0.34375q-0.140625 0.125 -0.46875 0.125l-1.734375 0z" fill-rule="nonzero"/><path fill="#000000" fill-opacity="0.0" d="m247.19948 143.89783l-146.86615 -1.1653595" fill-rule="evenodd"/><path stroke="#ffffff" stroke-width="3.0" stroke-linejoin="round" stroke-linecap="butt" d="m247.19948 143.89783l-129.98184 -1.0313873" fill-rule="evenodd"/><path stroke="#ffffff" stroke-width="3.0" stroke-linecap="butt" d="m117.21763 142.86644l-7.094963 -5.052307l-7.1742477 4.939087l7.0949707 5.052307z" fill-rule="evenodd"/><path fill="#000000" fill-opacity="0.0" d="m247.19948 161.6616l-66.20468 0l0 140.71016l-108.440994 0l0 -24.993622" fill-rule="evenodd"/><path stroke="#ffffff" stroke-width="3.0" stroke-linejoin="round" stroke-linecap="butt" d="m247.19948 161.6616l-66.20468 0l0 140.71016l-108.440994 0l0 -24.993622" fill-rule="evenodd"/><path fill="#000000" fill-opacity="0.0" d="m278.9475 135.01593l0 -83.44343l-90.61418 0l0 -0.14712143" fill-rule="evenodd"/><path stroke="#ffffff" stroke-width="3.0" stroke-linejoin="round" stroke-linecap="butt" d="m278.9475 135.01593l0 -83.44343l-73.729996 0" fill-rule="evenodd"/><path stroke="#ffffff" stroke-width="3.0" stroke-linecap="butt" d="m205.21751 51.572502l-7.0910187 -5.0578384l-7.1780853 4.933502l7.0910187 5.0578423z" fill-rule="evenodd"/><path fill="#000000" fill-opacity="0.0" d="m300.11285 135.03168l0 -103.65354l-103.779526 0" fill-rule="evenodd"/><path stroke="#ffffff" stroke-width="3.0" stroke-linejoin="round" stroke-linecap="butt" d="m300.11285 135.03168l0 -103.65354l-86.8947 0" fill-rule="evenodd"/><path stroke="#ffffff" stroke-width="3.0" stroke-linecap="butt" d="m213.21815 31.378138l-7.1348267 -4.995861l-7.1348267 4.995861l7.1348267 4.995863z" fill-rule="evenodd"/><path fill="#000000" fill-opacity="0.0" d="m331.8609 143.91357l92.37793 0l0 50.204727" fill-rule="evenodd"/><path stroke="#ffffff" stroke-width="3.0" stroke-linejoin="round" stroke-linecap="butt" d="m331.8609 143.91357l92.37793 0l0 33.3199" fill-rule="evenodd"/><path stroke="#ffffff" stroke-width="3.0" stroke-linecap="butt" d="m424.23883 177.23346l-4.9958496 7.134842l4.9958496 7.1348267l4.99588 -7.1348267z" fill-rule="evenodd"/><path fill="#000000" fill-opacity="0.0" d="m331.8609 161.67735l73.102356 0l0 40.755905" fill-rule="evenodd"/><path stroke="#ffffff" stroke-width="3.0" stroke-linejoin="round" stroke-linecap="butt" d="m331.8609 161.67735l73.102356 0l0 23.871078" fill-rule="evenodd"/><path stroke="#ffffff" stroke-width="3.0" stroke-linecap="butt" d="m404.96326 185.54843l-4.9958496 7.1348267l4.9958496 7.1348267l4.9958496 -7.1348267z" fill-rule="evenodd"/><path fill="#000000" fill-opacity="0.0" d="m300.11285 170.55923l0 51.93701l96.8819 0" fill-rule="evenodd"/><path stroke="#ffffff" stroke-width="3.0" stroke-linejoin="round" stroke-linecap="butt" d="m300.11285 170.55923l0 51.93701l79.99704 0" fill-rule="evenodd"/><path stroke="#ffffff" stroke-width="3.0" stroke-linecap="butt" d="m380.10992 222.49625l7.1348267 4.995865l7.1348267 -4.995865l-7.1348267 -4.995865z" fill-rule="evenodd"/><path fill="#000000" fill-opacity="0.0" d="m278.9475 170.54349l0 142.2496l145.16534 0l0 -33.336212" fill-rule="evenodd"/><path stroke="#ffffff" stroke-width="3.0" stroke-linejoin="round" stroke-linecap="butt" d="m278.9475 170.54349l0 142.2496l145.16534 0l0 -16.451385" fill-rule="evenodd"/><path stroke="#ffffff" stroke-width="3.0" stroke-linecap="butt" d="m424.11285 296.3417l4.99588 -7.1348267l-4.99588 -7.1348267l-4.9958496 7.1348267z" fill-rule="evenodd"/><path fill="#cfe2f3" d="m396.98514 222.48557l0 0c0 -15.664017 12.204651 -28.362213 27.259827 -28.362213l0 0c7.229767 0 14.163422 2.9881592 19.275635 8.307098c5.112213 5.3189545 7.9842224 12.5329895 7.9842224 20.055115l0 0c0 15.664017 -12.204651 28.362198 -27.259857 28.362198l0 0c-15.055176 0 -27.259827 -12.698181 -27.259827 -28.362198z" fill-rule="evenodd"/><path stroke="#4e8aeb" stroke-width="3.0" stroke-linejoin="round" stroke-linecap="butt" d="m396.98514 222.48557l0 0c0 -15.664017 12.204651 -28.362213 27.259827 -28.362213l0 0c7.229767 0 14.163422 2.9881592 19.275635 8.307098c5.112213 5.3189545 7.9842224 12.5329895 7.9842224 20.055115l0 0c0 15.664017 -12.204651 28.362198 -27.259857 28.362198l0 0c-15.055176 0 -27.259827 -12.698181 -27.259827 -28.362198z" fill-rule="evenodd"/><path fill="#cfe2f3" d="m441.1056 231.26369l0 0c-3.8216858 8.244141 -12.474274 12.67598 -20.972748 10.742157c-8.498444 -1.9338226 -14.653778 -9.735184 -14.919708 -18.90947c-0.26593018 -9.174286 5.426056 -17.358429 13.7966 -19.837296c8.370544 -2.4788666 17.26361 1.3860474 21.555634 9.368042l-8.601135 5.155365c-1.9510498 -4.07251 -6.150482 -6.10878 -10.141632 -4.9175873c-3.9911194 1.1911774 -6.725342 5.296814 -6.60318 9.915176c0.12219238 4.618347 3.0686646 8.53598 7.1157837 9.461121c4.047119 0.9251251 8.131561 -1.3852997 9.863922 -5.579712z" fill-rule="evenodd"/><path stroke="#4e8aeb" stroke-width="3.0" stroke-linejoin="round" stroke-linecap="butt" d="m441.1056 231.26369l0 0c-3.8216858 8.244141 -12.474274 12.67598 -20.972748 10.742157c-8.498444 -1.9338226 -14.653778 -9.735184 -14.919708 -18.90947c-0.26593018 -9.174286 5.426056 -17.358429 13.7966 -19.837296c8.370544 -2.4788666 17.26361 1.3860474 21.555634 9.368042l-8.601135 5.155365c-1.9510498 -4.07251 -6.150482 -6.10878 -10.141632 -4.9175873c-3.9911194 1.1911774 -6.725342 5.296814 -6.60318 9.915176c0.12219238 4.618347 3.0686646 8.53598 7.1157837 9.461121c4.047119 0.9251251 8.131561 -1.3852997 9.863922 -5.579712z" fill-rule="evenodd"/><path fill="#000000" fill-opacity="0.0" d="m354.19684 253.76659l139.84253 0l0 25.70079l-139.84253 0z" fill-rule="evenodd"/><path fill="#ffffff" d="m358.18042 275.22284q-0.171875 0.21875 -0.28125 0.28125q-0.109375 0.046875 -0.265625 0.046875q-0.296875 0 -0.484375 -0.203125q-0.1875 -0.203125 -0.1875 -0.671875l0 -0.90625q0 -0.484375 0.1875 -0.6875q0.1875 -0.203125 0.484375 -0.203125q0.234375 0 0.390625 0.125q0.171875 0.125 0.25 0.421875q0.078125 0.28125 0.171875 0.390625q0.1875 0.1875 0.671875 0.40625q0.484375 0.203125 1.0625 0.203125q0.890625 0 1.453125 -0.421875q0.375 -0.25 0.375 -0.625q0 -0.234375 -0.1875 -0.453125q-0.171875 -0.21875 -0.5625 -0.359375q-0.265625 -0.109375 -1.171875 -0.28125q-1.09375 -0.1875 -1.65625 -0.46875q-0.546875 -0.296875 -0.875 -0.8125q-0.328125 -0.53125 -0.328125 -1.125q0 -0.96875 0.796875 -1.6875q0.796875 -0.71875 2.078125 -0.71875q0.515625 0 0.953125 0.125q0.453125 0.109375 0.8125 0.34375q0.25 -0.25 0.515625 -0.25q0.296875 0 0.46875 0.203125q0.1875 0.203125 0.1875 0.671875l0 1.0q0 0.484375 -0.1875 0.6875q-0.171875 0.203125 -0.46875 0.203125q-0.25 0 -0.4375 -0.140625q-0.140625 -0.109375 -0.21875 -0.4375q-0.0625 -0.34375 -0.171875 -0.484375q-0.1875 -0.25 -0.5625 -0.40625q-0.375 -0.171875 -0.875 -0.171875q-0.71875 0 -1.140625 0.34375q-0.421875 0.328125 -0.421875 0.6875q0 0.25 0.171875 0.484375q0.171875 0.21875 0.5 0.359375q0.21875 0.078125 1.25 0.28125q1.03125 0.203125 1.578125 0.453125q0.546875 0.234375 0.90625 0.75q0.375 0.515625 0.375 1.21875q0 1.0 -0.703125 1.59375q-0.921875 0.765625 -2.359375 0.765625q-0.546875 0 -1.078125 -0.140625q-0.515625 -0.125 -1.015625 -0.390625zm13.295044 -1.9375l-5.46875 0q0.203125 0.53125 0.734375 0.84375q0.53125 0.3125 1.4375 0.3125q0.75 0 1.96875 -0.3125q0.515625 -0.125 0.703125 -0.125q0.265625 0 0.453125 0.1875q0.1875 0.1875 0.1875 0.46875q0 0.265625 -0.203125 0.4375q-0.265625 0.25 -1.28125 0.46875q-1.0 0.21875 -1.921875 0.21875q-1.609375 0 -2.578125 -0.90625q-0.953125 -0.90625 -0.953125 -2.234375q0 -1.40625 1.03125 -2.28125q1.046875 -0.875 2.40625 -0.875q0.8125 0 1.484375 0.28125q0.6875 0.28125 1.015625 0.609375q0.46875 0.484375 0.78125 1.203125q0.203125 0.484375 0.203125 1.140625l0 0.5625zm-1.46875 -1.328125q-0.3125 -0.578125 -0.8125 -0.859375q-0.484375 -0.28125 -1.171875 -0.28125q-0.671875 0 -1.171875 0.28125q-0.5 0.28125 -0.8125 0.859375l3.96875 0zm5.8419495 -2.296875l0 0.828125q0.84375 -0.609375 1.328125 -0.796875q0.484375 -0.203125 0.90625 -0.203125q0.65625 0 1.265625 0.46875q0.421875 0.328125 0.421875 0.671875q0 0.28125 -0.203125 0.484375q-0.203125 0.203125 -0.484375 0.203125q-0.25 0 -0.53125 -0.25q-0.265625 -0.25 -0.46875 -0.25q-0.28125 0 -0.84375 0.359375q-0.546875 0.34375 -1.390625 1.046875l0 2.015625l1.90625 0q0.484375 0 0.6875 0.1875q0.203125 0.171875 0.203125 0.484375q0 0.28125 -0.203125 0.46875q-0.203125 0.1875 -0.6875 0.1875l-4.03125 0q-0.484375 0 -0.6875 -0.1875q-0.203125 -0.1875 -0.203125 -0.484375q0 -0.296875 0.203125 -0.46875q0.203125 -0.1875 0.6875 -0.1875l0.796875 0l0 -3.25l-0.484375 0q-0.484375 0 -0.6875 -0.1875q-0.203125 -0.1875 -0.203125 -0.484375q0 -0.28125 0.203125 -0.46875q0.203125 -0.1875 0.6875 -0.1875l1.8125 0zm8.295044 4.28125l1.4375 -2.953125q-0.546875 0 -0.6875 -0.09375q-0.328125 -0.203125 -0.328125 -0.578125q0 -0.28125 0.203125 -0.46875q0.203125 -0.1875 0.6875 -0.1875l1.828125 0q0.484375 0 0.6875 0.1875q0.203125 0.1875 0.203125 0.484375q0 0.28125 -0.203125 0.46875q-0.203125 0.1875 -0.6875 0.1875l-0.21875 0l-2.234375 4.578125l-1.390625 0l-2.234375 -4.578125l-0.1875 0q-0.484375 0 -0.6875 -0.1875q-0.203125 -0.1875 -0.203125 -0.484375q0 -0.28125 0.203125 -0.46875q0.203125 -0.1875 0.6875 -0.1875l1.796875 0q0.46875 0 0.671875 0.1875q0.203125 0.1875 0.203125 0.484375q0 0.359375 -0.3125 0.5625q-0.15625 0.09375 -0.6875 0.09375l1.453125 2.953125zm11.326324 -0.65625l-5.46875 0q0.203125 0.53125 0.734375 0.84375q0.53125 0.3125 1.4375 0.3125q0.75 0 1.96875 -0.3125q0.515625 -0.125 0.703125 -0.125q0.265625 0 0.453125 0.1875q0.1875 0.1875 0.1875 0.46875q0 0.265625 -0.203125 0.4375q-0.265625 0.25 -1.28125 0.46875q-1.0 0.21875 -1.921875 0.21875q-1.609375 0 -2.578125 -0.90625q-0.953125 -0.90625 -0.953125 -2.234375q0 -1.40625 1.03125 -2.28125q1.046875 -0.875 2.40625 -0.875q0.8125 0 1.484375 0.28125q0.6875 0.28125 1.015625 0.609375q0.46875 0.484375 0.78125 1.203125q0.203125 0.484375 0.203125 1.140625l0 0.5625zm-1.46875 -1.328125q-0.3125 -0.578125 -0.8125 -0.859375q-0.484375 -0.28125 -1.171875 -0.28125q-0.671875 0 -1.171875 0.28125q-0.5 0.28125 -0.8125 0.859375l3.96875 0zm5.841919 -2.296875l0 0.828125q0.84375 -0.609375 1.328125 -0.796875q0.484375 -0.203125 0.90625 -0.203125q0.65625 0 1.265625 0.46875q0.421875 0.328125 0.421875 0.671875q0 0.28125 -0.203125 0.484375q-0.203125 0.203125 -0.484375 0.203125q-0.25 0 -0.53125 -0.25q-0.265625 -0.25 -0.46875 -0.25q-0.28125 0 -0.84375 0.359375q-0.546875 0.34375 -1.390625 1.046875l0 2.015625l1.90625 0q0.484375 0 0.6875 0.1875q0.203125 0.171875 0.203125 0.484375q0 0.28125 -0.203125 0.46875q-0.203125 0.1875 -0.6875 0.1875l-4.03125 0q-0.484375 0 -0.6875 -0.1875q-0.203125 -0.1875 -0.203125 -0.484375q0 -0.296875 0.203125 -0.46875q0.203125 -0.1875 0.6875 -0.1875l0.796875 0l0 -3.25l-0.484375 0q-0.484375 0 -0.6875 -0.1875q-0.203125 -0.1875 -0.203125 -0.484375q0 -0.28125 0.203125 -0.46875q0.203125 -0.1875 0.6875 -0.1875l1.8125 0zm11.326324 -0.640625l0 3.78125q0 1.234375 -0.890625 2.09375q-0.890625 0.859375 -2.140625 0.859375q-0.609375 0 -1.15625 -0.203125q-0.546875 -0.21875 -0.984375 -0.640625q-0.421875 -0.4375 -0.671875 -0.890625q-0.234375 -0.453125 -0.234375 -1.21875l0 -3.78125q-0.421875 0 -0.625 -0.1875q-0.203125 -0.203125 -0.203125 -0.484375q0 -0.296875 0.203125 -0.484375q0.203125 -0.1875 0.6875 -0.1875l1.75 0q0.484375 0 0.6875 0.1875q0.203125 0.1875 0.203125 0.484375q0 0.296875 -0.203125 0.484375q-0.203125 0.1875 -0.6875 0.1875l-0.484375 0l0 3.890625q0 0.59375 0.5 1.0625q0.5 0.453125 1.203125 0.453125q0.46875 0 0.875 -0.21875q0.421875 -0.21875 0.671875 -0.640625q0.171875 -0.265625 0.171875 -0.65625l0 -3.890625l-0.484375 0q-0.484375 0 -0.6875 -0.1875q-0.203125 -0.1875 -0.203125 -0.484375q0 -0.296875 0.203125 -0.484375q0.203125 -0.1875 0.6875 -0.1875l1.75 0q0.484375 0 0.6875 0.1875q0.203125 0.1875 0.203125 0.484375q0 0.28125 -0.203125 0.484375q-0.203125 0.1875 -0.625 0.1875zm3.576294 3.53125l0 1.6875l0.484375 0q0.46875 0 0.671875 0.1875q0.21875 0.171875 0.21875 0.484375q0 0.28125 -0.21875 0.46875q-0.203125 0.1875 -0.671875 0.1875l-2.03125 0q-0.484375 0 -0.6875 -0.1875q-0.203125 -0.1875 -0.203125 -0.484375q0 -0.296875 0.203125 -0.46875q0.21875 -0.1875 0.6875 -0.1875l0.203125 0l0 -5.21875l-0.203125 0q-0.484375 0 -0.6875 -0.1875q-0.203125 -0.1875 -0.203125 -0.484375q0 -0.296875 0.203125 -0.484375q0.203125 -0.1875 0.6875 -0.1875l3.015625 0q1.421875 0 2.1875 0.703125q0.78125 0.703125 0.78125 1.703125q0 0.625 -0.359375 1.140625q-0.359375 0.5 -1.09375 0.90625q0.421875 0.359375 0.90625 0.9375q0.296875 0.375 0.796875 1.171875q0.515625 0 0.671875 0.09375q0.296875 0.203125 0.296875 0.578125q0 0.28125 -0.203125 0.46875q-0.203125 0.1875 -0.6875 0.1875l-0.765625 0q-1.609375 -2.5 -2.6875 -3.015625l-1.3125 0zm0 -1.328125l1.03125 0q0.59375 0 1.046875 -0.171875q0.609375 -0.234375 0.8125 -0.5q0.21875 -0.265625 0.21875 -0.515625q0 -0.375 -0.40625 -0.6875q-0.40625 -0.328125 -1.171875 -0.328125l-1.53125 0l0 2.203125zm8.810699 -2.203125l0 5.21875l2.875 0l0 -1.265625q0 -0.484375 0.1875 -0.6875q0.1875 -0.203125 0.484375 -0.203125q0.296875 0 0.484375 0.203125q0.1875 0.203125 0.1875 0.6875l0 2.59375l-6.328125 0q-0.46875 0 -0.6875 -0.1875q-0.203125 -0.1875 -0.203125 -0.484375q0 -0.296875 0.203125 -0.46875q0.21875 -0.1875 0.6875 -0.1875l0.78125 0l0 -5.21875l-0.78125 0q-0.46875 0 -0.6875 -0.1875q-0.203125 -0.1875 -0.203125 -0.484375q0 -0.296875 0.203125 -0.484375q0.21875 -0.1875 0.6875 -0.1875l2.890625 0q0.484375 0 0.6875 0.1875q0.203125 0.1875 0.203125 0.484375q0 0.296875 -0.203125 0.484375q-0.203125 0.1875 -0.6875 0.1875l-0.78125 0zm8.560669 4.59375l1.921875 -4.59375l-0.296875 0q-0.484375 0 -0.6875 -0.1875q-0.203125 -0.1875 -0.203125 -0.484375q0 -0.296875 0.203125 -0.484375q0.203125 -0.1875 0.6875 -0.1875l1.78125 0q0.484375 0 0.6875 0.1875q0.203125 0.1875 0.203125 0.484375q0 0.359375 -0.3125 0.5625q-0.140625 0.109375 -0.609375 0.109375l-2.734375 6.546875l-1.28125 0l-2.734375 -6.546875q-0.46875 0 -0.625 -0.109375q-0.3125 -0.203125 -0.3125 -0.5625q0 -0.296875 0.21875 -0.484375q0.203125 -0.1875 0.671875 -0.1875l1.8125 0q0.46875 0 0.671875 0.1875q0.21875 0.1875 0.21875 0.484375q0 0.296875 -0.203125 0.484375q-0.203125 0.1875 -0.6875 0.1875l-0.3125 0l1.921875 4.59375zm8.482574 -6.484375l0 1.40625l-1.59375 0l0 -1.40625l1.59375 0zm0.171875 2.53125l0 4.578125l1.609375 0q0.46875 0 0.671875 0.1875q0.21875 0.171875 0.21875 0.484375q0 0.28125 -0.21875 0.46875q-0.203125 0.1875 -0.671875 0.1875l-4.546875 0q-0.46875 0 -0.6875 -0.1875q-0.203125 -0.1875 -0.203125 -0.484375q0 -0.296875 0.203125 -0.46875q0.21875 -0.1875 0.6875 -0.1875l1.609375 0l0 -3.25l-1.078125 0q-0.46875 0 -0.6875 -0.1875q-0.203125 -0.1875 -0.203125 -0.484375q0 -0.28125 0.203125 -0.46875q0.203125 -0.1875 0.6875 -0.1875l2.40625 0zm10.685669 3.625l-5.46875 0q0.203125 0.53125 0.734375 0.84375q0.53125 0.3125 1.4375 0.3125q0.75 0 1.96875 -0.3125q0.515625 -0.125 0.703125 -0.125q0.265625 0 0.453125 0.1875q0.1875 0.1875 0.1875 0.46875q0 0.265625 -0.203125 0.4375q-0.265625 0.25 -1.28125 0.46875q-1.0 0.21875 -1.921875 0.21875q-1.609375 0 -2.578125 -0.90625q-0.953125 -0.90625 -0.953125 -2.234375q0 -1.40625 1.03125 -2.28125q1.046875 -0.875 2.40625 -0.875q0.8125 0 1.484375 0.28125q0.6875 0.28125 1.015625 0.609375q0.46875 0.484375 0.78125 1.203125q0.203125 0.484375 0.203125 1.140625l0 0.5625zm-1.46875 -1.328125q-0.3125 -0.578125 -0.8125 -0.859375q-0.484375 -0.28125 -1.171875 -0.28125q-0.671875 0 -1.171875 0.28125q-0.5 0.28125 -0.8125 0.859375l3.96875 0zm6.1388245 1.15625l-0.9375 2.453125l-1.25 0l-1.125 -4.578125q-0.359375 -0.015625 -0.546875 -0.203125q-0.1875 -0.1875 -0.1875 -0.46875q0 -0.28125 0.203125 -0.46875q0.21875 -0.1875 0.6875 -0.1875l1.25 0q0.484375 0 0.6875 0.1875q0.203125 0.1875 0.203125 0.484375q0 0.296875 -0.234375 0.5q-0.171875 0.15625 -0.6875 0.15625l0.5 2.125l0.828125 -2.171875l1.1875 0l0.828125 2.171875l0.53125 -2.125q-0.5 0 -0.65625 -0.09375q-0.3125 -0.203125 -0.3125 -0.578125q0 -0.28125 0.203125 -0.46875q0.203125 -0.1875 0.6875 -0.1875l1.25 0q0.484375 0 0.6875 0.1875q0.21875 0.1875 0.21875 0.484375q0 0.265625 -0.1875 0.453125q-0.171875 0.1875 -0.53125 0.203125l-1.09375 4.578125l-1.234375 0l-0.96875 -2.453125zm4.998169 1.125l0 -5.21875q-0.421875 -0.015625 -0.625 -0.203125q-0.203125 -0.1875 -0.203125 -0.46875q0 -0.296875 0.203125 -0.484375q0.203125 -0.1875 0.6875 -0.1875l2.796875 0q0.640625 0 1.265625 0.25q0.625 0.234375 1.0 0.609375q0.296875 0.28125 0.59375 0.765625q0.3125 0.484375 0.46875 0.96875q0.15625 0.484375 0.15625 1.171875l0 0.640625q0 0.84375 -0.296875 1.5q-0.28125 0.65625 -0.75 1.078125q-0.453125 0.40625 -0.859375 0.59375q-0.65625 0.3125 -1.6875 0.3125l-2.6875 0q-0.484375 0 -0.6875 -0.1875q-0.203125 -0.1875 -0.203125 -0.484375q0 -0.296875 0.203125 -0.484375q0.203125 -0.1875 0.625 -0.171875zm1.328125 0l1.421875 0q0.796875 0 1.203125 -0.234375q0.53125 -0.296875 0.796875 -0.75q0.265625 -0.46875 0.265625 -1.203125l0 -0.640625q0 -0.625 -0.25 -1.109375q-0.375 -0.734375 -0.84375 -1.0q-0.46875 -0.28125 -1.1875 -0.28125l-1.40625 0l0 5.21875zm10.857574 1.328125l0 -0.3125q-0.5 0.265625 -1.109375 0.390625q-0.609375 0.140625 -1.09375 0.140625q-1.078125 0 -1.75 -0.5625q-0.671875 -0.578125 -0.671875 -1.265625q0 -0.84375 0.859375 -1.5625q0.859375 -0.71875 2.359375 -0.71875q0.609375 0 1.40625 0.140625l0 -0.328125q0 -0.296875 -0.265625 -0.484375q-0.25 -0.1875 -0.96875 -0.1875q-0.59375 0 -1.546875 0.234375q-0.34375 0.078125 -0.546875 0.078125q-0.265625 0 -0.453125 -0.1875q-0.171875 -0.1875 -0.171875 -0.484375q0 -0.171875 0.0625 -0.296875q0.0625 -0.125 0.171875 -0.203125q0.125 -0.078125 0.5 -0.171875q0.484375 -0.140625 1.0 -0.21875q0.515625 -0.078125 0.9375 -0.078125q1.234375 0 1.921875 0.53125q0.6875 0.53125 0.6875 1.46875l0 2.75l0.234375 0q0.484375 0 0.6875 0.1875q0.203125 0.171875 0.203125 0.484375q0 0.28125 -0.203125 0.46875q-0.203125 0.1875 -0.6875 0.1875l-1.5625 0zm0 -2.390625q-0.796875 -0.15625 -1.484375 -0.15625q-0.8125 0 -1.390625 0.40625q-0.375 0.25 -0.375 0.5q0 0.203125 0.1875 0.3125q0.3125 0.21875 0.890625 0.21875q0.46875 0 1.078125 -0.1875q0.609375 -0.1875 1.09375 -0.515625l0 -0.578125zm6.466919 -2.1875l0 2.671875q0 0.4375 0.171875 0.578125q0.28125 0.203125 0.984375 0.203125q1.015625 0 1.875 -0.4375q0.34375 -0.15625 0.53125 -0.15625q0.25 0 0.4375 0.203125q0.203125 0.1875 0.203125 0.46875q0 0.25 -0.203125 0.4375q-0.328125 0.3125 -1.265625 0.578125q-0.9375 0.25 -1.578125 0.25q-1.25 0 -1.875 -0.53125q-0.609375 -0.546875 -0.609375 -1.328125l0 -2.9375l-0.484375 0q-0.484375 0 -0.6875 -0.1875q-0.203125 -0.1875 -0.203125 -0.484375q0 -0.28125 0.203125 -0.46875q0.203125 -0.1875 0.6875 -0.1875l0.484375 0l0 -1.203125q0 -0.484375 0.171875 -0.6875q0.1875 -0.203125 0.484375 -0.203125q0.296875 0 0.484375 0.203125q0.1875 0.203125 0.1875 0.6875l0 1.203125l2.46875 0q0.484375 0 0.6875 0.1875q0.203125 0.1875 0.203125 0.484375q0 0.28125 -0.203125 0.46875q-0.203125 0.1875 -0.6875 0.1875l-2.46875 0zm9.529449 4.578125l0 -0.3125q-0.5 0.265625 -1.109375 0.390625q-0.609375 0.140625 -1.09375 0.140625q-1.078125 0 -1.75 -0.5625q-0.671875 -0.578125 -0.671875 -1.265625q0 -0.84375 0.859375 -1.5625q0.859375 -0.71875 2.359375 -0.71875q0.609375 0 1.40625 0.140625l0 -0.328125q0 -0.296875 -0.265625 -0.484375q-0.25 -0.1875 -0.96875 -0.1875q-0.59375 0 -1.546875 0.234375q-0.34375 0.078125 -0.546875 0.078125q-0.265625 0 -0.453125 -0.1875q-0.171875 -0.1875 -0.171875 -0.484375q0 -0.171875 0.0625 -0.296875q0.0625 -0.125 0.171875 -0.203125q0.125 -0.078125 0.5 -0.171875q0.484375 -0.140625 1.0 -0.21875q0.515625 -0.078125 0.9375 -0.078125q1.234375 0 1.921875 0.53125q0.6875 0.53125 0.6875 1.46875l0 2.75l0.234375 0q0.484375 0 0.6875 0.1875q0.203125 0.171875 0.203125 0.484375q0 0.28125 -0.203125 0.46875q-0.203125 0.1875 -0.6875 0.1875l-1.5625 0zm0 -2.390625q-0.796875 -0.15625 -1.484375 -0.15625q-0.8125 0 -1.390625 0.40625q-0.375 0.25 -0.375 0.5q0 0.203125 0.1875 0.3125q0.3125 0.21875 0.890625 0.21875q0.46875 0 1.078125 -0.1875q0.609375 -0.1875 1.09375 -0.515625l0 -0.578125z" fill-rule="nonzero"/><path fill="#ebe3fd" d="m434.44315 230.00262l0 23.65355l21.937012 0l-10.753296 -11.611557l10.753296 -12.041992z" fill-rule="evenodd"/><path stroke="#8b6bda" stroke-width="3.0" stroke-linejoin="round" stroke-linecap="butt" d="m434.44315 230.00262l0 23.65355l21.937012 0l-10.753296 -11.611557l10.753296 -12.041992z" fill-rule="evenodd"/><path fill="#cfe2f3" d="m141.8119 31.385826l0 0c0 -15.664013 12.204651 -28.362204 27.259842 -28.362204l0 0c7.229767 0 14.163406 2.9881525 19.27562 8.307098c5.112213 5.318944 7.9842224 12.532983 7.9842224 20.055107l0 0c0 15.664013 -12.204651 28.362206 -27.259842 28.362206l0 0c-15.055191 0 -27.259842 -12.698193 -27.259842 -28.362206z" fill-rule="evenodd"/><path stroke="#4e8aeb" stroke-width="3.0" stroke-linejoin="round" stroke-linecap="butt" d="m141.8119 31.385826l0 0c0 -15.664013 12.204651 -28.362204 27.259842 -28.362204l0 0c7.229767 0 14.163406 2.9881525 19.27562 8.307098c5.112213 5.318944 7.9842224 12.532983 7.9842224 20.055107l0 0c0 15.664013 -12.204651 28.362206 -27.259842 28.362206l0 0c-15.055191 0 -27.259842 -12.698193 -27.259842 -28.362206z" fill-rule="evenodd"/><path fill="#cfe2f3" d="m185.93236 40.163944l0 0c-3.821701 8.244152 -12.474274 12.67598 -20.972733 10.742161c-8.498444 -1.9338188 -14.653778 -9.735176 -14.919708 -18.909462c-0.26593018 -9.174288 5.4260406 -17.358437 13.796585 -19.837301c8.370544 -2.4788647 17.263626 1.3860502 21.555649 9.368044l-8.601135 5.1553555c-1.9510803 -4.07251 -6.150482 -6.1087646 -10.141632 -4.9175854c-3.9911346 1.1911812 -6.7253723 5.2968216 -6.603195 9.915178c0.122177124 4.6183567 3.0686646 8.535982 7.1157837 9.461119c4.0471344 0.92513657 8.131561 -1.385292 9.863937 -5.579712z" fill-rule="evenodd"/><path stroke="#4e8aeb" stroke-width="3.0" stroke-linejoin="round" stroke-linecap="butt" d="m185.93236 40.163944l0 0c-3.821701 8.244152 -12.474274 12.67598 -20.972733 10.742161c-8.498444 -1.9338188 -14.653778 -9.735176 -14.919708 -18.909462c-0.26593018 -9.174288 5.4260406 -17.358437 13.796585 -19.837301c8.370544 -2.4788647 17.263626 1.3860502 21.555649 9.368044l-8.601135 5.1553555c-1.9510803 -4.07251 -6.150482 -6.1087646 -10.141632 -4.9175854c-3.9911346 1.1911812 -6.7253723 5.2968216 -6.603195 9.915178c0.122177124 4.6183567 3.0686646 8.535982 7.1157837 9.461119c4.0471344 0.92513657 8.131561 -1.385292 9.863937 -5.579712z" fill-rule="evenodd"/><path fill="#000000" fill-opacity="0.0" d="m99.02362 62.945065l139.84251 0l0 25.700787l-139.84251 0z" fill-rule="evenodd"/><path fill="#ffffff" d="m111.583496 81.44819l0 1.96875l3.40625 0l0 -0.734375q0 -0.46875 0.1875 -0.671875q0.1875 -0.21875 0.484375 -0.21875q0.296875 0 0.46875 0.21875q0.1875 0.203125 0.1875 0.671875l0 2.0625l-6.265625 0q-0.484375 0 -0.703125 -0.1875q-0.203125 -0.1875 -0.203125 -0.484375q0 -0.296875 0.203125 -0.46875q0.21875 -0.1875 0.703125 -0.1875l0.203125 0l0 -5.21875l-0.203125 0q-0.484375 0 -0.703125 -0.1875q-0.203125 -0.1875 -0.203125 -0.484375q0 -0.296875 0.203125 -0.484375q0.21875 -0.1875 0.703125 -0.1875l5.984375 0l0 2.03125q0 0.484375 -0.1875 0.6875q-0.1875 0.203125 -0.484375 0.203125q-0.296875 0 -0.484375 -0.203125q-0.1875 -0.203125 -0.1875 -0.6875l0 -0.6875l-3.109375 0l0 1.921875l1.171875 0q0 -0.515625 0.09375 -0.671875q0.203125 -0.3125 0.578125 -0.3125q0.296875 0 0.484375 0.203125q0.1875 0.203125 0.1875 0.6875l0 1.53125q0 0.4375 -0.109375 0.578125q-0.203125 0.3125 -0.5625 0.3125q-0.375 0 -0.578125 -0.3125q-0.09375 -0.15625 -0.09375 -0.6875l-1.171875 0zm7.716934 2.5625l0 2.1875l0.796875 0q0.484375 0 0.6875 0.1875q0.203125 0.1875 0.203125 0.484375q0 0.296875 -0.203125 0.46875q-0.203125 0.1875 -0.6875 0.1875l-2.359375 0q-0.484375 0 -0.6875 -0.1875q-0.203125 -0.171875 -0.203125 -0.46875q0 -0.296875 0.203125 -0.484375q0.21875 -0.1875 0.6875 -0.1875l0.234375 0l0 -6.03125l-0.234375 0q-0.484375 0 -0.6875 -0.1875q-0.203125 -0.1875 -0.203125 -0.484375q0 -0.28125 0.203125 -0.46875q0.203125 -0.1875 0.6875 -0.1875l1.5625 0l0 0.453125q0.46875 -0.3125 0.96875 -0.46875q0.5 -0.15625 1.03125 -0.15625q1.359375 0 2.328125 0.921875q0.96875 0.921875 0.96875 2.125q0 1.3125 -1.140625 2.171875q-0.953125 0.71875 -2.140625 0.71875q-0.515625 0 -1.015625 -0.140625q-0.5 -0.15625 -1.0 -0.453125zm3.953125 -2.296875q0 -0.28125 -0.21875 -0.703125q-0.21875 -0.4375 -0.6875 -0.71875q-0.453125 -0.296875 -1.0625 -0.296875q-1.0 0 -1.59375 0.75q-0.390625 0.515625 -0.390625 0.984375q0 0.53125 0.5625 1.046875q0.578125 0.5 1.421875 0.5q0.84375 0 1.40625 -0.5q0.5625 -0.5 0.5625 -1.0625zm6.185684 -5.40625l0 1.40625l-1.59375 0l0 -1.40625l1.59375 0zm0.171875 2.53125l0 4.578125l1.609375 0q0.46875 0 0.671875 0.1875q0.21875 0.171875 0.21875 0.484375q0 0.28125 -0.21875 0.46875q-0.203125 0.1875 -0.671875 0.1875l-4.546875 0q-0.46875 0 -0.6875 -0.1875q-0.203125 -0.1875 -0.203125 -0.484375q0 -0.296875 0.203125 -0.46875q0.21875 -0.1875 0.6875 -0.1875l1.609375 0l0 -3.25l-1.078125 0q-0.46875 0 -0.6875 -0.1875q-0.203125 -0.1875 -0.203125 -0.484375q0 -0.28125 0.203125 -0.46875q0.203125 -0.1875 0.6875 -0.1875l2.40625 0zm8.779434 1.5625q-0.328125 -0.203125 -0.6875 -0.296875q-0.34375 -0.109375 -0.734375 -0.109375q-0.78125 0 -1.234375 0.25q-0.203125 0.109375 -0.203125 0.25q0 0.140625 0.265625 0.28125q0.21875 0.109375 0.9375 0.203125q1.328125 0.1875 1.84375 0.375q0.6875 0.234375 1.046875 0.71875q0.375 0.46875 0.375 1.0q0 0.703125 -0.625 1.1875q-0.90625 0.703125 -2.34375 0.703125q-0.578125 0 -1.078125 -0.109375q-0.484375 -0.09375 -0.890625 -0.296875q-0.109375 0.09375 -0.21875 0.140625q-0.109375 0.046875 -0.21875 0.046875q-0.3125 0 -0.5 -0.203125q-0.1875 -0.21875 -0.1875 -0.6875l0 -0.453125q0 -0.484375 0.1875 -0.6875q0.1875 -0.203125 0.484375 -0.203125q0.234375 0 0.390625 0.140625q0.171875 0.125 0.265625 0.453125q0.296875 0.25 0.71875 0.390625q0.4375 0.125 1.0 0.125q0.921875 0 1.421875 -0.28125q0.25 -0.140625 0.25 -0.296875q0 -0.265625 -0.34375 -0.4375q-0.34375 -0.15625 -1.421875 -0.28125q-1.609375 -0.171875 -2.15625 -0.65625q-0.53125 -0.46875 -0.53125 -1.171875q0 -0.703125 0.59375 -1.1875q0.828125 -0.640625 2.15625 -0.640625q0.453125 0 0.875 0.09375q0.4375 0.078125 0.828125 0.25q0.125 -0.078125 0.234375 -0.125q0.109375 -0.046875 0.1875 -0.046875q0.28125 0 0.453125 0.203125q0.1875 0.203125 0.1875 0.6875l0 0.328125q0 0.4375 -0.09375 0.59375q-0.21875 0.296875 -0.578125 0.296875q-0.234375 0 -0.421875 -0.140625q-0.171875 -0.15625 -0.234375 -0.40625zm10.029434 1.5q0 0.765625 -0.4375 1.484375q-0.421875 0.71875 -1.265625 1.15625q-0.84375 0.421875 -1.75 0.421875q-0.921875 0 -1.75 -0.421875q-0.828125 -0.421875 -1.265625 -1.140625q-0.4375 -0.71875 -0.4375 -1.515625q0 -0.796875 0.4375 -1.5625q0.4375 -0.78125 1.265625 -1.21875q0.84375 -0.4375 1.75 -0.4375q0.90625 0 1.75 0.453125q0.84375 0.4375 1.265625 1.203125q0.4375 0.765625 0.4375 1.578125zm-1.34375 0q0 -0.640625 -0.453125 -1.171875q-0.640625 -0.734375 -1.65625 -0.734375q-0.90625 0 -1.515625 0.578125q-0.609375 0.578125 -0.609375 1.34375q0 0.625 0.609375 1.171875q0.625 0.53125 1.515625 0.53125q0.890625 0 1.5 -0.53125q0.609375 -0.546875 0.609375 -1.1875zm8.935684 -5.59375l0 7.109375l0.21875 0q0.484375 0 0.6875 0.1875q0.21875 0.171875 0.21875 0.484375q0 0.28125 -0.21875 0.46875q-0.203125 0.1875 -0.6875 0.1875l-1.546875 0l0 -0.328125q-0.46875 0.265625 -0.96875 0.40625q-0.484375 0.140625 -1.03125 0.140625q-1.5 0 -2.421875 -0.859375q-0.90625 -0.875 -0.90625 -2.171875q0 -1.359375 0.953125 -2.3125q0.96875 -0.953125 2.359375 -0.953125q0.515625 0 1.015625 0.15625q0.5 0.15625 1.0 0.46875l0 -1.65625l-0.234375 0q-0.484375 0 -0.6875 -0.1875q-0.203125 -0.1875 -0.203125 -0.46875q0 -0.296875 0.203125 -0.484375q0.203125 -0.1875 0.6875 -0.1875l1.5625 0zm-1.328125 5.65625q0 -0.828125 -0.59375 -1.390625q-0.578125 -0.578125 -1.40625 -0.578125q-0.84375 0 -1.421875 0.578125q-0.578125 0.5625 -0.578125 1.375q0 0.734375 0.515625 1.203125q0.53125 0.46875 1.484375 0.46875q0.9375 0 1.46875 -0.46875q0.53125 -0.46875 0.53125 -1.1875zm9.607559 0.5l-5.46875 0q0.203125 0.53125 0.734375 0.84375q0.53125 0.3125 1.4375 0.3125q0.75 0 1.96875 -0.3125q0.515625 -0.125 0.703125 -0.125q0.265625 0 0.453125 0.1875q0.1875 0.1875 0.1875 0.46875q0 0.265625 -0.203125 0.4375q-0.265625 0.25 -1.28125 0.46875q-1.0 0.21875 -1.921875 0.21875q-1.609375 0 -2.578125 -0.90625q-0.953125 -0.90625 -0.953125 -2.234375q0 -1.40625 1.03125 -2.28125q1.046875 -0.875 2.40625 -0.875q0.8125 0 1.484375 0.28125q0.6875 0.28125 1.015625 0.609375q0.46875 0.484375 0.78125 1.203125q0.203125 0.484375 0.203125 1.140625l0 0.5625zm-1.46875 -1.328125q-0.3125 -0.578125 -0.8125 -0.859375q-0.484375 -0.28125 -1.171875 -0.28125q-0.671875 0 -1.171875 0.28125q-0.5 0.28125 -0.8125 0.859375l3.96875 0zm6.123184 1.65625l1.921875 -4.59375l-0.296875 0q-0.484375 0 -0.6875 -0.1875q-0.203125 -0.1875 -0.203125 -0.484375q0 -0.296875 0.203125 -0.484375q0.203125 -0.1875 0.6875 -0.1875l1.78125 0q0.484375 0 0.6875 0.1875q0.203125 0.1875 0.203125 0.484375q0 0.359375 -0.3125 0.5625q-0.140625 0.109375 -0.609375 0.109375l-2.734375 6.546875l-1.28125 0l-2.734375 -6.546875q-0.46875 0 -0.625 -0.109375q-0.3125 -0.203125 -0.3125 -0.5625q0 -0.296875 0.21875 -0.484375q0.203125 -0.1875 0.671875 -0.1875l1.8125 0q0.46875 0 0.671875 0.1875q0.21875 0.1875 0.21875 0.484375q0 0.296875 -0.203125 0.484375q-0.203125 0.1875 -0.6875 0.1875l-0.3125 0l1.921875 4.59375zm8.482559 -6.484375l0 1.40625l-1.59375 0l0 -1.40625l1.59375 0zm0.171875 2.53125l0 4.578125l1.609375 0q0.46875 0 0.671875 0.1875q0.21875 0.171875 0.21875 0.484375q0 0.28125 -0.21875 0.46875q-0.203125 0.1875 -0.671875 0.1875l-4.546875 0q-0.46875 0 -0.6875 -0.1875q-0.203125 -0.1875 -0.203125 -0.484375q0 -0.296875 0.203125 -0.46875q0.21875 -0.1875 0.6875 -0.1875l1.609375 0l0 -3.25l-1.078125 0q-0.46875 0 -0.6875 -0.1875q-0.203125 -0.1875 -0.203125 -0.484375q0 -0.28125 0.203125 -0.46875q0.203125 -0.1875 0.6875 -0.1875l2.40625 0zm10.685684 3.625l-5.46875 0q0.203125 0.53125 0.734375 0.84375q0.53125 0.3125 1.4375 0.3125q0.75 0 1.96875 -0.3125q0.515625 -0.125 0.703125 -0.125q0.265625 0 0.453125 0.1875q0.1875 0.1875 0.1875 0.46875q0 0.265625 -0.203125 0.4375q-0.265625 0.25 -1.28125 0.46875q-1.0 0.21875 -1.921875 0.21875q-1.609375 0 -2.578125 -0.90625q-0.953125 -0.90625 -0.953125 -2.234375q0 -1.40625 1.03125 -2.28125q1.046875 -0.875 2.40625 -0.875q0.8125 0 1.484375 0.28125q0.6875 0.28125 1.015625 0.609375q0.46875 0.484375 0.78125 1.203125q0.203125 0.484375 0.203125 1.140625l0 0.5625zm-1.46875 -1.328125q-0.3125 -0.578125 -0.8125 -0.859375q-0.484375 -0.28125 -1.171875 -0.28125q-0.671875 0 -1.171875 0.28125q-0.5 0.28125 -0.8125 0.859375l3.96875 0zm6.138809 1.15625l-0.9375 2.453125l-1.25 0l-1.125 -4.578125q-0.359375 -0.015625 -0.546875 -0.203125q-0.1875 -0.1875 -0.1875 -0.46875q0 -0.28125 0.203125 -0.46875q0.21875 -0.1875 0.6875 -0.1875l1.25 0q0.484375 0 0.6875 0.1875q0.203125 0.1875 0.203125 0.484375q0 0.296875 -0.234375 0.5q-0.171875 0.15625 -0.6875 0.15625l0.5 2.125l0.828125 -2.171875l1.1875 0l0.828125 2.171875l0.53125 -2.125q-0.5 0 -0.65625 -0.09375q-0.3125 -0.203125 -0.3125 -0.578125q0 -0.28125 0.203125 -0.46875q0.203125 -0.1875 0.6875 -0.1875l1.25 0q0.484375 0 0.6875 0.1875q0.21875 0.1875 0.21875 0.484375q0 0.265625 -0.1875 0.453125q-0.171875 0.1875 -0.53125 0.203125l-1.09375 4.578125l-1.234375 0l-0.96875 -2.453125zm4.998184 1.125l0 -5.21875q-0.421875 -0.015625 -0.625 -0.203125q-0.203125 -0.1875 -0.203125 -0.46875q0 -0.296875 0.203125 -0.484375q0.203125 -0.1875 0.6875 -0.1875l2.796875 0q0.640625 0 1.265625 0.25q0.625 0.234375 1.0 0.609375q0.296875 0.28125 0.59375 0.765625q0.3125 0.484375 0.46875 0.96875q0.15625 0.484375 0.15625 1.171875l0 0.640625q0 0.84375 -0.296875 1.5q-0.28125 0.65625 -0.75 1.078125q-0.453125 0.40625 -0.859375 0.59375q-0.65625 0.3125 -1.6875 0.3125l-2.6875 0q-0.484375 0 -0.6875 -0.1875q-0.203125 -0.1875 -0.203125 -0.484375q0 -0.296875 0.203125 -0.484375q0.203125 -0.1875 0.625 -0.171875zm1.328125 0l1.421875 0q0.796875 0 1.203125 -0.234375q0.53125 -0.296875 0.796875 -0.75q0.265625 -0.46875 0.265625 -1.203125l0 -0.640625q0 -0.625 -0.25 -1.109375q-0.375 -0.734375 -0.84375 -1.0q-0.46875 -0.28125 -1.1875 -0.28125l-1.40625 0l0 5.21875zm10.857559 1.328125l0 -0.3125q-0.5 0.265625 -1.109375 0.390625q-0.609375 0.140625 -1.09375 0.140625q-1.078125 0 -1.75 -0.5625q-0.671875 -0.578125 -0.671875 -1.265625q0 -0.84375 0.859375 -1.5625q0.859375 -0.71875 2.359375 -0.71875q0.609375 0 1.40625 0.140625l0 -0.328125q0 -0.296875 -0.265625 -0.484375q-0.25 -0.1875 -0.96875 -0.1875q-0.59375 0 -1.546875 0.234375q-0.34375 0.078125 -0.546875 0.078125q-0.265625 0 -0.453125 -0.1875q-0.171875 -0.1875 -0.171875 -0.484375q0 -0.171875 0.0625 -0.296875q0.0625 -0.125 0.171875 -0.203125q0.125 -0.078125 0.5 -0.171875q0.484375 -0.140625 1.0 -0.21875q0.515625 -0.078125 0.9375 -0.078125q1.234375 0 1.921875 0.53125q0.6875 0.53125 0.6875 1.46875l0 2.75l0.234375 0q0.484375 0 0.6875 0.1875q0.203125 0.171875 0.203125 0.484375q0 0.28125 -0.203125 0.46875q-0.203125 0.1875 -0.6875 0.1875l-1.5625 0zm0 -2.390625q-0.796875 -0.15625 -1.484375 -0.15625q-0.8125 0 -1.390625 0.40625q-0.375 0.25 -0.375 0.5q0 0.203125 0.1875 0.3125q0.3125 0.21875 0.890625 0.21875q0.46875 0 1.078125 -0.1875q0.609375 -0.1875 1.09375 -0.515625l0 -0.578125zm6.466934 -2.1875l0 2.671875q0 0.4375 0.171875 0.578125q0.28125 0.203125 0.984375 0.203125q1.015625 0 1.875 -0.4375q0.34375 -0.15625 0.53125 -0.15625q0.25 0 0.4375 0.203125q0.203125 0.1875 0.203125 0.46875q0 0.25 -0.203125 0.4375q-0.328125 0.3125 -1.265625 0.578125q-0.9375 0.25 -1.578125 0.25q-1.25 0 -1.875 -0.53125q-0.609375 -0.546875 -0.609375 -1.328125l0 -2.9375l-0.484375 0q-0.484375 0 -0.6875 -0.1875q-0.203125 -0.1875 -0.203125 -0.484375q0 -0.28125 0.203125 -0.46875q0.203125 -0.1875 0.6875 -0.1875l0.484375 0l0 -1.203125q0 -0.484375 0.171875 -0.6875q0.1875 -0.203125 0.484375 -0.203125q0.296875 0 0.484375 0.203125q0.1875 0.203125 0.1875 0.6875l0 1.203125l2.46875 0q0.484375 0 0.6875 0.1875q0.203125 0.1875 0.203125 0.484375q0 0.28125 -0.203125 0.46875q-0.203125 0.1875 -0.6875 0.1875l-2.46875 0zm9.529434 4.578125l0 -0.3125q-0.5 0.265625 -1.109375 0.390625q-0.609375 0.140625 -1.09375 0.140625q-1.078125 0 -1.75 -0.5625q-0.671875 -0.578125 -0.671875 -1.265625q0 -0.84375 0.859375 -1.5625q0.859375 -0.71875 2.359375 -0.71875q0.609375 0 1.40625 0.140625l0 -0.328125q0 -0.296875 -0.265625 -0.484375q-0.25 -0.1875 -0.96875 -0.1875q-0.59375 0 -1.546875 0.234375q-0.34375 0.078125 -0.546875 0.078125q-0.265625 0 -0.453125 -0.1875q-0.171875 -0.1875 -0.171875 -0.484375q0 -0.171875 0.0625 -0.296875q0.0625 -0.125 0.171875 -0.203125q0.125 -0.078125 0.5 -0.171875q0.484375 -0.140625 1.0 -0.21875q0.515625 -0.078125 0.9375 -0.078125q1.234375 0 1.921875 0.53125q0.6875 0.53125 0.6875 1.46875l0 2.75l0.234375 0q0.484375 0 0.6875 0.1875q0.203125 0.171875 0.203125 0.484375q0 0.28125 -0.203125 0.46875q-0.203125 0.1875 -0.6875 0.1875l-1.5625 0zm0 -2.390625q-0.796875 -0.15625 -1.484375 -0.15625q-0.8125 0 -1.390625 0.40625q-0.375 0.25 -0.375 0.5q0 0.203125 0.1875 0.3125q0.3125 0.21875 0.890625 0.21875q0.46875 0 1.078125 -0.1875q0.609375 -0.1875 1.09375 -0.515625l0 -0.578125z" fill-rule="nonzero"/><path fill="#ebe3fd" d="m179.26991 38.902885l0 23.653545l21.937012 0l-10.753281 -11.611549l10.753281 -12.041996z" fill-rule="evenodd"/><path stroke="#8b6bda" stroke-width="3.0" stroke-linejoin="round" stroke-linecap="butt" d="m179.26991 38.902885l0 23.653545l21.937012 0l-10.753281 -11.611549l10.753281 -12.041996z" fill-rule="evenodd"/><path fill="#cfe2f3" d="m45.811905 142.73491l0 0c0 -15.664017 12.204647 -28.362206 27.259842 -28.362206l0 0c7.229759 0 14.163406 2.9881516 19.27562 8.307098c5.112213 5.318947 7.9842224 12.532982 7.9842224 20.055107l0 0c0 15.664017 -12.204643 28.362198 -27.259842 28.362198l0 0c-15.055195 0 -27.259842 -12.698181 -27.259842 -28.362198z" fill-rule="evenodd"/><path stroke="#4e8aeb" stroke-width="3.0" stroke-linejoin="round" stroke-linecap="butt" d="m45.811905 142.73491l0 0c0 -15.664017 12.204647 -28.362206 27.259842 -28.362206l0 0c7.229759 0 14.163406 2.9881516 19.27562 8.307098c5.112213 5.318947 7.9842224 12.532982 7.9842224 20.055107l0 0c0 15.664017 -12.204643 28.362198 -27.259842 28.362198l0 0c-15.055195 0 -27.259842 -12.698181 -27.259842 -28.362198z" fill-rule="evenodd"/><path fill="#cfe2f3" d="m89.93235 151.51303l0 0c-3.8216858 8.244141 -12.474266 12.67598 -20.972725 10.742157c-8.498447 -1.9338226 -14.653778 -9.735184 -14.919708 -18.90947c-0.26592636 -9.174286 5.4260445 -17.358429 13.796585 -19.837296c8.370544 -2.4788666 17.263626 1.3860474 21.555649 9.368042l-8.601135 5.155365c-1.9510727 -4.07251 -6.150482 -6.10878 -10.141632 -4.9175873c-3.9911423 1.1911774 -6.7253647 5.296814 -6.6031876 9.915176c0.122177124 4.618347 3.068657 8.53598 7.1157837 9.461121c4.047127 0.9251251 8.131546 -1.3852997 9.86393 -5.579712z" fill-rule="evenodd"/><path stroke="#4e8aeb" stroke-width="3.0" stroke-linejoin="round" stroke-linecap="butt" d="m89.93235 151.51303l0 0c-3.8216858 8.244141 -12.474266 12.67598 -20.972725 10.742157c-8.498447 -1.9338226 -14.653778 -9.735184 -14.919708 -18.90947c-0.26592636 -9.174286 5.4260445 -17.358429 13.796585 -19.837296c8.370544 -2.4788666 17.263626 1.3860474 21.555649 9.368042l-8.601135 5.155365c-1.9510727 -4.07251 -6.150482 -6.10878 -10.141632 -4.9175873c-3.9911423 1.1911774 -6.7253647 5.296814 -6.6031876 9.915176c0.122177124 4.618347 3.068657 8.53598 7.1157837 9.461121c4.047127 0.9251251 8.131546 -1.3852997 9.86393 -5.579712z" fill-rule="evenodd"/><path fill="#000000" fill-opacity="0.0" d="m3.023622 174.1183l139.84251 0l0 25.700775l-139.84251 0z" fill-rule="evenodd"/><path fill="#ffffff" d="m21.598215 189.37141l0 5.21875l0.90625 0q0.484375 0 0.6875 0.1875q0.203125 0.171875 0.203125 0.484375q0 0.28125 -0.203125 0.46875q-0.203125 0.1875 -0.6875 0.1875l-3.125 0q-0.484375 0 -0.6875 -0.1875q-0.203125 -0.1875 -0.203125 -0.484375q0 -0.296875 0.203125 -0.46875q0.203125 -0.1875 0.6875 -0.1875l0.890625 0l0 -5.21875l-1.4375 0l0 1.25q0 0.484375 -0.1875 0.6875q-0.1875 0.203125 -0.484375 0.203125q-0.296875 0 -0.484375 -0.203125q-0.1875 -0.203125 -0.1875 -0.6875l0 -2.59375l6.90625 0l0 2.59375q0 0.484375 -0.1875 0.6875q-0.171875 0.203125 -0.46875 0.203125q-0.296875 0 -0.484375 -0.203125q-0.1875 -0.203125 -0.1875 -0.6875l0 -1.25l-1.46875 0zm7.357559 4.59375l1.921875 -4.59375l-0.296875 0q-0.484375 0 -0.6875 -0.1875q-0.203125 -0.1875 -0.203125 -0.484375q0 -0.296875 0.203125 -0.484375q0.203125 -0.1875 0.6875 -0.1875l1.7812481 0q0.484375 0 0.6875 0.1875q0.203125 0.1875 0.203125 0.484375q0 0.359375 -0.3125 0.5625q-0.140625 0.109375 -0.609375 0.109375l-2.734373 6.546875l-1.28125 0l-2.734375 -6.546875q-0.46875 0 -0.625 -0.109375q-0.3125 -0.203125 -0.3125 -0.5625q0 -0.296875 0.21875 -0.484375q0.203125 -0.1875 0.671875 -0.1875l1.8125 0q0.46875 0 0.671875 0.1875q0.21875 0.1875 0.21875 0.484375q0 0.296875 -0.203125 0.484375q-0.203125 0.1875 -0.6875 0.1875l-0.3125 0l1.921875 4.59375zm6.0450573 1.609375q-0.171875 0.21875 -0.28125 0.28125q-0.109375 0.046875 -0.265625 0.046875q-0.296875 0 -0.484375 -0.203125q-0.1875 -0.203125 -0.1875 -0.671875l0 -0.90625q0 -0.484375 0.1875 -0.6875q0.1875 -0.203125 0.484375 -0.203125q0.234375 0 0.390625 0.125q0.171875 0.125 0.25 0.421875q0.078125 0.28125 0.171875 0.390625q0.1875 0.1875 0.671875 0.40625q0.484375 0.203125 1.0625 0.203125q0.890625 0 1.453125 -0.421875q0.375 -0.25 0.375 -0.625q0 -0.234375 -0.1875 -0.453125q-0.171875 -0.21875 -0.5625 -0.359375q-0.265625 -0.109375 -1.171875 -0.28125q-1.09375 -0.1875 -1.65625 -0.46875q-0.546875 -0.296875 -0.875 -0.8125q-0.328125 -0.53125 -0.328125 -1.125q0 -0.96875 0.796875 -1.6875q0.796875 -0.71875 2.078125 -0.71875q0.515625 0 0.953125 0.125q0.453125 0.109375 0.8125 0.34375q0.25 -0.25 0.515625 -0.25q0.296875 0 0.46875 0.203125q0.1875 0.203125 0.1875 0.671875l0 1.0q0 0.484375 -0.1875 0.6875q-0.171875 0.203125 -0.46875 0.203125q-0.25 0 -0.4375 -0.140625q-0.140625 -0.109375 -0.21875 -0.4375q-0.0625 -0.34375 -0.171875 -0.484375q-0.1875 -0.25 -0.5625 -0.40625q-0.375 -0.171875 -0.875 -0.171875q-0.71875 0 -1.140625 0.34375q-0.421875 0.328125 -0.421875 0.6875q0 0.25 0.171875 0.484375q0.171875 0.21875 0.5 0.359375q0.21875 0.078125 1.25 0.28125q1.03125 0.203125 1.578125 0.453125q0.546875 0.234375 0.90625 0.75q0.375 0.515625 0.375 1.21875q0 1.0 -0.703125 1.59375q-0.921875 0.765625 -2.359375 0.765625q-0.546875 0 -1.078125 -0.140625q-0.515625 -0.125 -1.015625 -0.390625zm8.576309 -8.09375l0 2.84375q0.421875 -0.25 0.84375 -0.359375q0.421875 -0.125 0.859375 -0.125q0.6875 0 1.21875 0.234375q0.546875 0.234375 0.90625 0.734375q0.359375 0.5 0.359375 1.265625l0 2.515625q0.5 0 0.65625 0.09375q0.3125 0.203125 0.3125 0.578125q0 0.28125 -0.203125 0.46875q-0.203125 0.1875 -0.6875 0.1875l-1.515625 0q-0.46875 0 -0.6875 -0.1875q-0.203125 -0.1875 -0.203125 -0.484375q0 -0.359375 0.3125 -0.5625q0.171875 -0.109375 0.671875 -0.09375l0 -2.421875q0 -0.515625 -0.234375 -0.71875q-0.3125 -0.28125 -0.90625 -0.28125q-0.4375 0 -0.78125 0.171875q-0.34375 0.171875 -0.921875 0.75l0 2.5q0.515625 0 0.65625 0.09375q0.328125 0.203125 0.328125 0.578125q0 0.28125 -0.203125 0.46875q-0.203125 0.1875 -0.6875 0.1875l-1.515625 0q-0.484375 0 -0.6875 -0.1875q-0.203125 -0.1875 -0.203125 -0.484375q0 -0.359375 0.3125 -0.5625q0.15625 -0.109375 0.65625 -0.09375l0 -5.78125l-0.21875 0q-0.484375 0 -0.6875 -0.1875q-0.203125 -0.1875 -0.203125 -0.484375q0 -0.28125 0.203125 -0.46875q0.203125 -0.1875 0.6875 -0.1875l1.5625 0zm12.841934 5.59375q0 0.765625 -0.4375 1.484375q-0.421875 0.71875 -1.265625 1.15625q-0.84375 0.421875 -1.75 0.421875q-0.921875 0 -1.75 -0.421875q-0.828125 -0.421875 -1.265625 -1.140625q-0.4375 -0.71875 -0.4375 -1.515625q0 -0.796875 0.4375 -1.5625q0.4375 -0.78125 1.265625 -1.21875q0.84375 -0.4375 1.75 -0.4375q0.90625 0 1.75 0.453125q0.84375 0.4375 1.265625 1.203125q0.4375 0.765625 0.4375 1.578125zm-1.34375 0q0 -0.640625 -0.453125 -1.171875q-0.640625 -0.734375 -1.65625 -0.734375q-0.90625 0 -1.515625 0.578125q-0.609375 0.578125 -0.609375 1.34375q0 0.625 0.609375 1.171875q0.625 0.53125 1.515625 0.53125q0.890625 0 1.5 -0.53125q0.609375 -0.546875 0.609375 -1.1875zm5.888809 0.390625l-0.9375 2.453125l-1.25 0l-1.125 -4.578125q-0.359375 -0.015625 -0.546875 -0.203125q-0.1875 -0.1875 -0.1875 -0.46875q0 -0.28125 0.203125 -0.46875q0.21875 -0.1875 0.6875 -0.1875l1.25 0q0.484375 0 0.6875 0.1875q0.203125 0.1875 0.203125 0.484375q0 0.296875 -0.234375 0.5q-0.171875 0.15625 -0.6875 0.15625l0.5 2.125l0.828125 -2.171875l1.1875 0l0.828125 2.171875l0.53125 -2.125q-0.5 0 -0.65625 -0.09375q-0.3125 -0.203125 -0.3125 -0.578125q0 -0.28125 0.203125 -0.46875q0.203125 -0.1875 0.6875 -0.1875l1.25 0q0.484375 0 0.6875 0.1875q0.21875 0.1875 0.21875 0.484375q0 0.265625 -0.1875 0.453125q-0.171875 0.1875 -0.53125 0.203125l-1.09375 4.578125l-1.234375 0l-0.96875 -2.453125zm7.982559 0.5l1.921875 -4.59375l-0.296875 0q-0.484375 0 -0.6875 -0.1875q-0.203125 -0.1875 -0.203125 -0.484375q0 -0.296875 0.203125 -0.484375q0.203125 -0.1875 0.6875 -0.1875l1.78125 0q0.484375 0 0.6875 0.1875q0.203125 0.1875 0.203125 0.484375q0 0.359375 -0.3125 0.5625q-0.140625 0.109375 -0.609375 0.109375l-2.734375 6.546875l-1.28125 0l-2.734375 -6.546875q-0.46875 0 -0.625 -0.109375q-0.3125 -0.203125 -0.3125 -0.5625q0 -0.296875 0.21875 -0.484375q0.203125 -0.1875 0.671875 -0.1875l1.8125 0q0.46875 0 0.671875 0.1875q0.21875 0.1875 0.21875 0.484375q0 0.296875 -0.203125 0.484375q-0.203125 0.1875 -0.6875 0.1875l-0.3125 0l1.921875 4.59375zm8.482559 -6.484375l0 1.40625l-1.59375 0l0 -1.40625l1.59375 0zm0.171875 2.53125l0 4.578125l1.609375 0q0.46875 0 0.671875 0.1875q0.21875 0.171875 0.21875 0.484375q0 0.28125 -0.21875 0.46875q-0.203125 0.1875 -0.671875 0.1875l-4.546875 0q-0.46875 0 -0.6875 -0.1875q-0.203125 -0.1875 -0.203125 -0.484375q0 -0.296875 0.203125 -0.46875q0.21875 -0.1875 0.6875 -0.1875l1.609375 0l0 -3.25l-1.078125 0q-0.46875 0 -0.6875 -0.1875q-0.203125 -0.1875 -0.203125 -0.484375q0 -0.28125 0.203125 -0.46875q0.203125 -0.1875 0.6875 -0.1875l2.40625 0zm10.685684 3.625l-5.46875 0q0.203125 0.53125 0.734375 0.84375q0.53125 0.3125 1.4375 0.3125q0.75 0 1.96875 -0.3125q0.515625 -0.125 0.703125 -0.125q0.265625 0 0.453125 0.1875q0.1875 0.1875 0.1875 0.46875q0 0.265625 -0.203125 0.4375q-0.265625 0.25 -1.28125 0.46875q-1.0 0.21875 -1.921875 0.21875q-1.609375 0 -2.578125 -0.90625q-0.953125 -0.90625 -0.953125 -2.234375q0 -1.40625 1.03125 -2.28125q1.046875 -0.875 2.40625 -0.875q0.8125 0 1.484375 0.28125q0.6875 0.28125 1.015625 0.609375q0.46875 0.484375 0.78125 1.203125q0.203125 0.484375 0.203125 1.140625l0 0.5625zm-1.46875 -1.328125q-0.3125 -0.578125 -0.8125 -0.859375q-0.484375 -0.28125 -1.171875 -0.28125q-0.671875 0 -1.171875 0.28125q-0.5 0.28125 -0.8125 0.859375l3.96875 0zm6.138809 1.15625l-0.9375 2.453125l-1.25 0l-1.125 -4.578125q-0.359375 -0.015625 -0.546875 -0.203125q-0.1875 -0.1875 -0.1875 -0.46875q0 -0.28125 0.203125 -0.46875q0.21875 -0.1875 0.6875 -0.1875l1.25 0q0.484375 0 0.6875 0.1875q0.203125 0.1875 0.203125 0.484375q0 0.296875 -0.234375 0.5q-0.171875 0.15625 -0.6875 0.15625l0.5 2.125l0.828125 -2.171875l1.1875 0l0.828125 2.171875l0.53125 -2.125q-0.5 0 -0.65625 -0.09375q-0.3125 -0.203125 -0.3125 -0.578125q0 -0.28125 0.203125 -0.46875q0.203125 -0.1875 0.6875 -0.1875l1.25 0q0.484375 0 0.6875 0.1875q0.21875 0.1875 0.21875 0.484375q0 0.265625 -0.1875 0.453125q-0.171875 0.1875 -0.53125 0.203125l-1.09375 4.578125l-1.234375 0l-0.96875 -2.453125zm4.998184 1.125l0 -5.21875q-0.421875 -0.015625 -0.625 -0.203125q-0.203125 -0.1875 -0.203125 -0.46875q0 -0.296875 0.203125 -0.484375q0.203125 -0.1875 0.6875 -0.1875l2.796875 0q0.640625 0 1.265625 0.25q0.625 0.234375 1.0 0.609375q0.296875 0.28125 0.59375 0.765625q0.3125 0.484375 0.46875 0.96875q0.15625 0.484375 0.15625 1.171875l0 0.640625q0 0.84375 -0.296875 1.5q-0.28125 0.65625 -0.75 1.078125q-0.453125 0.40625 -0.859375 0.59375q-0.65625 0.3125 -1.6875 0.3125l-2.6875 0q-0.484375 0 -0.6875 -0.1875q-0.203125 -0.1875 -0.203125 -0.484375q0 -0.296875 0.203125 -0.484375q0.203125 -0.1875 0.625 -0.171875zm1.328125 0l1.421875 0q0.796875 0 1.203125 -0.234375q0.53125 -0.296875 0.796875 -0.75q0.265625 -0.46875 0.265625 -1.203125l0 -0.640625q0 -0.625 -0.25 -1.109375q-0.375 -0.734375 -0.84375 -1.0q-0.46875 -0.28125 -1.1875 -0.28125l-1.40625 0l0 5.21875zm10.857559 1.328125l0 -0.3125q-0.5 0.265625 -1.109375 0.390625q-0.609375 0.140625 -1.09375 0.140625q-1.078125 0 -1.75 -0.5625q-0.671875 -0.578125 -0.671875 -1.265625q0 -0.84375 0.859375 -1.5625q0.859375 -0.71875 2.359375 -0.71875q0.609375 0 1.40625 0.140625l0 -0.328125q0 -0.296875 -0.265625 -0.484375q-0.25 -0.1875 -0.96875 -0.1875q-0.59375 0 -1.546875 0.234375q-0.34375 0.078125 -0.546875 0.078125q-0.265625 0 -0.453125 -0.1875q-0.171875 -0.1875 -0.171875 -0.484375q0 -0.171875 0.0625 -0.296875q0.0625 -0.125 0.171875 -0.203125q0.125 -0.078125 0.5 -0.171875q0.484375 -0.140625 1.0 -0.21875q0.515625 -0.078125 0.9375 -0.078125q1.234375 0 1.921875 0.53125q0.6875 0.53125 0.6875 1.46875l0 2.75l0.234375 0q0.484375 0 0.6875 0.1875q0.203125 0.171875 0.203125 0.484375q0 0.28125 -0.203125 0.46875q-0.203125 0.1875 -0.6875 0.1875l-1.5625 0zm0 -2.390625q-0.796875 -0.15625 -1.484375 -0.15625q-0.8125 0 -1.390625 0.40625q-0.375 0.25 -0.375 0.5q0 0.203125 0.1875 0.3125q0.3125 0.21875 0.890625 0.21875q0.46875 0 1.078125 -0.1875q0.609375 -0.1875 1.09375 -0.515625l0 -0.578125zm6.466934 -2.1875l0 2.671875q0 0.4375 0.171875 0.578125q0.28125 0.203125 0.984375 0.203125q1.015625 0 1.875 -0.4375q0.34375 -0.15625 0.53125 -0.15625q0.25 0 0.4375 0.203125q0.203125 0.1875 0.203125 0.46875q0 0.25 -0.203125 0.4375q-0.328125 0.3125 -1.265625 0.578125q-0.9375 0.25 -1.578125 0.25q-1.25 0 -1.875 -0.53125q-0.609375 -0.546875 -0.609375 -1.328125l0 -2.9375l-0.484375 0q-0.484375 0 -0.6875 -0.1875q-0.203125 -0.1875 -0.203125 -0.484375q0 -0.28125 0.203125 -0.46875q0.203125 -0.1875 0.6875 -0.1875l0.484375 0l0 -1.203125q0 -0.484375 0.171875 -0.6875q0.1875 -0.203125 0.484375 -0.203125q0.296875 0 0.484375 0.203125q0.1875 0.203125 0.1875 0.6875l0 1.203125l2.46875 0q0.484375 0 0.6875 0.1875q0.203125 0.1875 0.203125 0.484375q0 0.28125 -0.203125 0.46875q-0.203125 0.1875 -0.6875 0.1875l-2.46875 0zm9.529434 4.578125l0 -0.3125q-0.5 0.265625 -1.109375 0.390625q-0.609375 0.140625 -1.09375 0.140625q-1.078125 0 -1.75 -0.5625q-0.671875 -0.578125 -0.671875 -1.265625q0 -0.84375 0.859375 -1.5625q0.859375 -0.71875 2.359375 -0.71875q0.609375 0 1.40625 0.140625l0 -0.328125q0 -0.296875 -0.265625 -0.484375q-0.25 -0.1875 -0.96875 -0.1875q-0.59375 0 -1.546875 0.234375q-0.34375 0.078125 -0.546875 0.078125q-0.265625 0 -0.453125 -0.1875q-0.171875 -0.1875 -0.171875 -0.484375q0 -0.171875 0.0625 -0.296875q0.0625 -0.125 0.171875 -0.203125q0.125 -0.078125 0.5 -0.171875q0.484375 -0.140625 1.0 -0.21875q0.515625 -0.078125 0.9375 -0.078125q1.234375 0 1.921875 0.53125q0.6875 0.53125 0.6875 1.46875l0 2.75l0.234375 0q0.48438263 0 0.6875076 0.1875q0.203125 0.171875 0.203125 0.484375q0 0.28125 -0.203125 0.46875q-0.203125 0.1875 -0.6875076 0.1875l-1.5625 0zm0 -2.390625q-0.796875 -0.15625 -1.484375 -0.15625q-0.8125 0 -1.390625 0.40625q-0.375 0.25 -0.375 0.5q0 0.203125 0.1875 0.3125q0.3125 0.21875 0.890625 0.21875q0.46875 0 1.078125 -0.1875q0.609375 -0.1875 1.09375 -0.515625l0 -0.578125z" fill-rule="nonzero"/><path fill="#ebe3fd" d="m83.26991 150.25197l0 23.65355l21.937004 0l-10.753281 -11.611557l10.753281 -12.041992z" fill-rule="evenodd"/><path stroke="#8b6bda" stroke-width="3.0" stroke-linejoin="round" stroke-linecap="butt" d="m83.26991 150.25197l0 23.65355l21.937004 0l-10.753281 -11.611557l10.753281 -12.041992z" fill-rule="evenodd"/></g></svg>